<svg width="393" height="343" viewBox="0 0 393 343" fill="none" xmlns="http://www.w3.org/2000/svg">
<path d="M269.819 218.851C273.967 219.692 276.667 223.832 275.856 228.099L272.83 243.97C271.994 248.363 267.763 251.181 263.493 250.102C259.493 249.093 257.068 244.882 257.86 240.722L257.943 240.296L237.999 241.234C237.399 241.259 236.878 241.669 236.691 242.262C234.743 248.323 232.179 254.1 229.075 259.501C228.76 260.049 228.809 260.743 229.208 261.229L238.029 272.023C239.78 270.305 242.068 269.413 244.38 269.413C246.328 269.413 248.296 270.047 249.964 271.364C254.003 274.546 254.77 280.501 251.681 284.666L249.123 288.107C246.122 292.15 240.528 293.235 236.455 290.341C232.947 287.853 231.678 283.379 232.947 279.492L220.24 273.741C219.664 273.482 219 273.634 218.582 274.111C212.698 280.764 205.85 286.49 198.264 291.061C197.742 291.375 197.462 291.983 197.56 292.596L200.812 313.028L203.626 311.867C207.665 310.205 212.26 312.334 213.701 316.616C215.049 320.624 212.934 325.007 209.111 326.578L194.731 332.507C190.697 334.169 186.102 332.041 184.661 327.759C183.313 323.75 185.428 319.367 189.251 317.791L189.64 317.634L178.039 300.892C177.69 300.385 177.075 300.162 176.489 300.319C169.558 302.169 162.286 303.162 154.789 303.162C148.856 303.162 143.07 302.538 137.477 301.363C136.887 301.241 136.281 301.5 135.957 302.022L124.351 320.776L124.76 320.928C128.538 322.347 130.88 326.021 130.88 329.933C130.88 331.027 130.698 332.137 130.314 333.221C130.314 338.831 126.127 341.851 121.011 339.925L106.749 334.569C101.977 332.78 99.4876 327.384 101.136 322.453C102.828 317.371 108.451 314.807 113.351 316.646L113.681 316.768L116.042 294.79C116.111 294.172 115.796 293.584 115.26 293.296C106.228 288.492 98.1249 282.092 91.3014 274.455C90.8882 273.994 90.2437 273.842 89.6829 274.08L72.2773 281.433C74.2451 285.223 73.1382 290.027 69.5469 292.46C65.7981 294.998 60.7358 293.818 58.1777 290.027L53.7205 283.414C51.2262 279.72 51.8068 274.572 55.2406 271.785C58.9008 268.815 64.1205 269.585 66.8608 273.32L79.1204 259.05C79.5288 258.574 79.5976 257.885 79.2976 257.333C74.2648 247.988 70.8211 237.611 69.3403 226.589C69.2566 225.971 68.8188 225.469 68.2333 225.332L48.6434 220.67L48.6238 223.037C48.6041 225.403 47.6595 227.547 46.1394 229.092C44.6241 230.643 42.5382 231.596 40.2358 231.596C35.6606 231.596 31.9561 227.749 32.0004 223.037L32.1283 208.377C32.1677 203.583 36.0148 199.545 40.6638 199.671C45.1751 199.793 48.7763 203.614 48.7517 208.276L68.1989 203.578C68.7893 203.436 69.2271 202.935 69.3058 202.316C70.8309 190.662 74.555 179.721 80.0306 169.951C80.3356 169.404 80.2815 168.72 79.883 168.233L70.6095 157.014L69.8027 158.109C67.3035 161.514 62.5315 162.107 59.3092 159.345C56.2885 156.751 55.9195 152.099 58.2908 148.871L64.4698 140.459C65.9064 138.508 68.0858 137.48 70.2947 137.48C71.8247 137.48 73.3694 137.976 74.6879 139C77.743 141.377 78.4612 145.745 76.4442 149.018L89.4123 154.795C89.9829 155.048 90.6422 154.896 91.0653 154.425C97.1853 147.513 104.353 141.605 112.313 136.958C112.835 136.649 113.125 136.046 113.036 135.433L110.05 114.955L107.216 116.08C103.163 117.687 98.5923 115.492 97.2099 111.195C95.9111 107.167 98.0856 102.814 101.928 101.294L116.382 95.5677C120.44 93.9613 125.006 96.1504 126.388 100.453C127.687 104.476 125.517 108.829 121.67 110.354L121.282 110.506L132.656 127.401C133 127.913 133.61 128.146 134.196 127.999C140.798 126.332 147.69 125.45 154.789 125.45H154.799C155.419 125.45 155.975 125.06 156.181 124.457L159.95 113.602C155.586 112.194 152.678 107.76 153.234 102.925C153.869 97.4477 158.961 93.5559 164.279 94.2451L169.454 94.914C174.728 95.5981 178.684 100.463 178.108 105.91C177.655 110.152 174.694 113.455 170.935 114.469L172.244 126.235C172.313 126.869 172.77 127.386 173.38 127.522C182.127 129.504 190.377 132.853 197.904 137.338C198.431 137.647 199.08 137.601 199.548 137.206L215.158 124.158L212.786 122.217C209.377 119.43 208.895 114.266 211.788 110.856C214.493 107.658 219.241 107.375 222.463 110.015L234.59 119.931C237.999 122.713 238.481 127.882 235.589 131.292C232.883 134.485 228.136 134.769 224.913 132.134L224.584 131.865L216.225 150.559C215.969 151.121 216.087 151.785 216.51 152.231C222.394 158.438 227.402 165.533 231.328 173.296C231.614 173.858 232.209 174.177 232.819 174.091L244.67 172.384C242.929 167.377 245.512 161.828 250.48 160.151C255.218 158.55 260.325 161.261 262.066 166.075L264.796 173.615C266.518 178.383 264.452 183.841 259.926 185.868C255.587 187.809 250.692 186.055 248.36 182.093L238.526 188.964C238.009 189.324 237.778 189.983 237.945 190.601C239.967 198.151 241.049 206.097 241.049 214.306C241.049 215.679 241.02 217.042 240.956 218.395C240.931 219.018 241.271 219.591 241.822 219.839L260.261 228.135L260.841 225.069C261.658 220.797 265.677 218.015 269.819 218.851Z" fill="#F79595"/>
<path d="M192.247 181.048C198.973 181.048 204.426 176.352 204.426 170.559C204.426 164.766 198.973 160.07 192.247 160.07C185.521 160.07 180.068 164.766 180.068 170.559C180.068 176.352 185.521 181.048 192.247 181.048Z" fill="#EE6161"/>
<path d="M148.297 249.59C155.649 249.59 161.609 243.451 161.609 235.878C161.609 228.305 155.649 222.167 148.297 222.167C140.945 222.167 134.985 228.305 134.985 235.878C134.985 243.451 140.945 249.59 148.297 249.59Z" fill="#EE6161"/>
<path d="M200.177 238.552C205.441 238.552 209.708 234.156 209.708 228.734C209.708 223.312 205.441 218.917 200.177 218.917C194.913 218.917 190.646 223.312 190.646 228.734C190.646 234.156 194.913 238.552 200.177 238.552Z" fill="#F9B1B1"/>
<path d="M164.977 286.19C170.094 286.19 174.243 281.917 174.243 276.645C174.243 271.374 170.094 267.1 164.977 267.1C159.859 267.1 155.71 271.374 155.71 276.645C155.71 281.917 159.859 286.19 164.977 286.19Z" fill="#F9B1B1"/>
<path d="M102.328 210.05C102.328 175.892 118.148 145.533 142.642 126.324C139.783 126.739 136.959 127.301 134.195 127.999C133.61 128.146 133 127.913 132.656 127.401L121.282 110.506L121.67 110.354C125.517 108.829 127.687 104.476 126.388 100.453C125.006 96.1506 120.44 93.9615 116.382 95.5678L101.928 101.294C98.0855 102.814 95.9111 107.167 97.2099 111.196C98.5923 115.493 103.163 117.687 107.216 116.08L110.05 114.955L113.036 135.433C113.125 136.046 112.835 136.649 112.313 136.958C104.353 141.605 97.1853 147.513 91.0653 154.425C90.6422 154.896 89.9829 155.048 89.4123 154.795L76.4442 149.018C78.4612 145.745 77.743 141.377 74.6879 139C73.3694 137.976 71.8247 137.48 70.2947 137.48C68.0858 137.48 65.9064 138.509 64.4698 140.459L58.2908 148.871C55.9195 152.099 56.2885 156.751 59.3092 159.345C62.5315 162.107 67.3035 161.514 69.8027 158.109L70.6095 157.014L79.883 168.234C80.2815 168.72 80.3356 169.404 80.0306 169.951C74.555 179.721 70.8309 190.662 69.3058 202.317C69.2271 202.935 68.7893 203.436 68.1989 203.578L48.7517 208.276C48.7763 203.614 45.1751 199.793 40.6638 199.671C36.0148 199.545 32.1677 203.583 32.1283 208.377L32.0004 223.037C31.9561 227.75 35.6606 231.596 40.2358 231.596C42.5382 231.596 44.6241 230.643 46.1394 229.092C47.6595 227.547 48.6041 225.403 48.6238 223.037L48.6434 220.671L68.2333 225.332C68.8188 225.469 69.2566 225.971 69.3403 226.589C70.8211 237.611 74.2648 247.989 79.2975 257.333C79.5976 257.885 79.5288 258.574 79.1204 259.051L66.8608 273.32C64.1205 269.586 58.9008 268.815 55.2406 271.785C51.8068 274.572 51.2262 279.72 53.7205 283.414L58.1776 290.027C60.7358 293.818 65.7981 294.998 69.5469 292.46C73.1382 290.027 74.2451 285.223 72.2773 281.433L89.6828 274.08C90.2437 273.842 90.8882 273.994 91.3014 274.455C98.1249 282.092 106.228 288.492 115.26 293.296C115.796 293.585 116.111 294.172 116.042 294.791L113.681 316.768L113.351 316.646C108.451 314.807 102.828 317.371 101.136 322.453C99.4876 327.384 101.977 332.781 106.749 334.569L121.011 339.926C126.127 341.851 130.314 338.831 130.314 333.221C130.698 332.137 130.88 331.027 130.88 329.933C130.88 326.021 128.538 322.347 124.76 320.928L124.351 320.776L135.957 302.022C136.281 301.5 136.887 301.241 137.477 301.363C143.07 302.539 148.856 303.162 154.789 303.162C155.487 303.162 156.196 303.153 156.891 303.136C124.457 285.519 102.328 250.443 102.328 210.05Z" fill="#F37C7C"/>
<path d="M106.993 263.757C112.325 263.757 116.647 259.305 116.647 253.814C116.647 248.322 112.325 243.87 106.993 243.87C101.662 243.87 97.34 248.322 97.34 253.814C97.34 259.305 101.662 263.757 106.993 263.757Z" fill="#EE6161"/>
<path d="M178.437 210.05H175.175C173.137 210.05 171.485 208.349 171.485 206.25C171.485 204.151 173.137 202.449 175.175 202.449H178.437C180.475 202.449 182.127 204.151 182.127 206.25C182.127 208.349 180.475 210.05 178.437 210.05Z" fill="#F9B1B1"/>
<path d="M134.984 276.483H131.633C129.595 276.483 127.943 274.781 127.943 272.682C127.943 270.583 129.595 268.882 131.633 268.882H134.984C137.022 268.882 138.674 270.583 138.674 272.682C138.674 274.781 137.022 276.483 134.984 276.483Z" fill="#F9B1B1"/>
<path d="M100.568 221.137H97.3399C95.3017 221.137 93.6501 219.435 93.6501 217.336C93.6501 215.237 95.3017 213.536 97.3399 213.536H100.568C102.606 213.536 104.258 215.237 104.258 217.336C104.258 219.435 102.606 221.137 100.568 221.137Z" fill="#EE6161"/>
<path d="M166.101 154.644H161.608C159.57 154.644 157.919 152.943 157.919 150.844C157.919 148.745 159.57 147.043 161.608 147.043H166.101C168.139 147.043 169.791 148.745 169.791 150.844C169.791 152.943 168.139 154.644 166.101 154.644Z" fill="#F9B1B1"/>
<path d="M195.607 264.111H190.646C188.608 264.111 186.956 262.41 186.956 260.311C186.956 258.212 188.608 256.51 190.646 256.51H195.607C197.645 256.51 199.297 258.212 199.297 260.311C199.297 262.41 197.645 264.111 195.607 264.111Z" fill="#EE6161"/>
<path d="M139.33 198.185C150.347 189.236 153.396 174.3 146.141 164.822C138.886 155.345 124.073 154.916 113.056 163.864C102.039 172.813 98.9891 187.749 106.244 197.227C113.5 206.704 128.312 207.133 139.33 198.185Z" fill="#EE6161"/>
<path d="M86.7456 46.3889C88.2583 46.6957 89.2435 48.2058 88.9474 49.7621L87.8438 55.5511C87.5387 57.1536 85.9955 58.1813 84.4379 57.7876C82.979 57.4198 82.0944 55.8838 82.3833 54.3663L82.4138 54.211L75.1391 54.553C74.9202 54.5622 74.73 54.7119 74.6618 54.9282C73.9512 57.1388 73.0163 59.2459 71.884 61.2162C71.7691 61.4159 71.7871 61.6691 71.9324 61.8465L75.1499 65.7835C75.7887 65.1569 76.6231 64.8316 77.4665 64.8316C78.1771 64.8316 78.8949 65.0626 79.5032 65.5432C80.9764 66.7039 81.2564 68.8757 80.1295 70.3951L79.1964 71.6501C78.1017 73.1251 76.0614 73.5206 74.5756 72.4652C73.2962 71.5577 72.8332 69.9256 73.2962 68.5079L68.6611 66.4101C68.4512 66.3158 68.2089 66.3713 68.0564 66.545C65.9102 68.9719 63.4124 71.0605 60.6453 72.7277C60.4551 72.8423 60.3528 73.0641 60.3887 73.2877L61.5749 80.7402L62.6013 80.3169C64.0745 79.7107 65.7505 80.487 66.2763 82.0488C66.768 83.5109 65.9964 85.1097 64.6021 85.6827L59.3569 87.8452C57.8855 88.4515 56.2095 87.6752 55.6837 86.1133C55.192 84.6513 55.9636 83.0525 57.3579 82.4776L57.4997 82.4203L53.2684 76.3135C53.141 76.1286 52.9166 76.0473 52.7031 76.1046C50.1747 76.7792 47.5225 77.1415 44.7878 77.1415C42.6237 77.1415 40.5134 76.9142 38.4731 76.4853C38.2578 76.441 38.0371 76.5352 37.9186 76.7256L33.6855 83.5663L33.8345 83.6218C35.2126 84.1393 36.0668 85.4794 36.0668 86.9063C36.0668 87.3055 36.0004 87.7103 35.8604 88.1058C35.8604 90.1519 34.3333 91.2536 32.4671 90.5512L27.265 88.5975C25.5244 87.945 24.6164 85.9766 25.2175 84.1781C25.8348 82.3242 27.8859 81.389 29.6732 82.0599L29.7934 82.1043L30.6547 74.0881C30.6798 73.8626 30.565 73.6481 30.3694 73.5428C27.0748 71.7906 24.1193 69.4561 21.6304 66.6707C21.4797 66.5025 21.2446 66.447 21.0401 66.5339L14.6913 69.2158C15.4091 70.5984 15.0053 72.3506 13.6954 73.2378C12.328 74.1638 10.4815 73.7332 9.54841 72.3506L7.92264 69.9385C7.01285 68.5911 7.22459 66.7132 8.47712 65.6966C9.81219 64.6135 11.7161 64.8944 12.7156 66.2567L17.1874 61.0517C17.3363 60.878 17.3614 60.6266 17.252 60.4252C15.4163 57.0168 14.1601 53.2314 13.62 49.2113C13.5895 48.9858 13.4298 48.8028 13.2163 48.7529L6.07076 47.0524L6.06359 47.9156C6.05641 48.7788 5.71187 49.5606 5.15739 50.1244C4.6047 50.69 3.84385 51.0375 3.00405 51.0375C1.33521 51.0375 -0.0160068 49.6346 0.000143278 47.9156L0.046799 42.5684C0.0611545 40.8199 1.46441 39.3467 3.16017 39.3929C4.80568 39.4373 6.11921 40.8309 6.11024 42.5314L13.2037 40.818C13.419 40.7663 13.5787 40.5833 13.6075 40.3578C14.1637 36.1066 15.5221 32.116 17.5193 28.5524C17.6306 28.3528 17.6109 28.1033 17.4655 27.9259L14.083 23.8336L13.7887 24.2329C12.8771 25.475 11.1365 25.6912 9.96113 24.6839C8.85934 23.7375 8.72475 22.0408 9.58968 20.8634L11.8435 17.7951C12.3675 17.0835 13.1624 16.7083 13.9681 16.7083C14.5262 16.7083 15.0897 16.8894 15.5706 17.2628C16.6849 18.1297 16.9469 19.7229 16.2112 20.917L20.9414 23.0241C21.1495 23.1165 21.39 23.061 21.5443 22.8891C23.7766 20.368 26.3911 18.2128 29.2945 16.5179C29.4847 16.4052 29.5906 16.1852 29.5583 15.9616L28.4691 8.49245L27.4355 8.90278C25.9568 9.4887 24.2898 8.68837 23.7856 7.12098C23.3118 5.65156 24.105 4.06384 25.5064 3.50934L30.7785 1.42072C32.259 0.834793 33.9242 1.63327 34.4284 3.20251C34.9022 4.67009 34.1108 6.25781 32.7076 6.81416L32.5658 6.86961L36.7146 13.032C36.8402 13.2186 37.0627 13.3037 37.2762 13.2501C39.6844 12.642 42.1984 12.3204 44.7878 12.3204H44.7914C45.0175 12.3204 45.2203 12.178 45.2956 11.9581L46.6702 7.99894C45.0785 7.48511 44.018 5.86781 44.2207 4.1045C44.4522 2.10645 46.3095 0.686927 48.2493 0.9383L50.137 1.18228C52.0607 1.43181 53.5034 3.20621 53.2935 5.19317C53.1284 6.74023 52.0481 7.94534 50.6772 8.31501L51.1545 12.6068C51.1796 12.8379 51.3465 13.0264 51.569 13.0763C54.7595 13.799 57.7688 15.0208 60.5143 16.6566C60.7063 16.7693 60.9432 16.7527 61.1137 16.6085L66.8075 11.849L65.9426 11.1411C64.699 10.1245 64.5231 8.24108 65.5783 6.99715C66.5652 5.83085 68.2969 5.72734 69.4722 6.69032L73.8955 10.3075C75.1391 11.3223 75.315 13.2076 74.2598 14.4515C73.2729 15.6159 71.5412 15.7194 70.3659 14.7583L70.2456 14.6603L67.1969 21.4789C67.1036 21.684 67.1466 21.9262 67.3009 22.0888C69.4471 24.353 71.2739 26.9407 72.7058 29.7723C72.8099 29.9775 73.027 30.094 73.2495 30.0625L77.5724 29.4396C76.9371 27.6135 77.8792 25.5896 79.6916 24.9778C81.4197 24.3937 83.2823 25.3825 83.9175 27.1385L84.9135 29.8888C85.5415 31.6281 84.7878 33.6187 83.137 34.3581C81.5543 35.066 79.7688 34.4265 78.9182 32.9811L75.3311 35.4874C75.1427 35.6186 75.0583 35.8589 75.1194 36.0844C75.8569 38.8384 76.2517 41.7366 76.2517 44.7309C76.2517 45.2318 76.2409 45.729 76.2176 46.2225C76.2086 46.4499 76.3324 46.6587 76.5334 46.7493L83.259 49.775L83.4707 48.6568C83.7686 47.0987 85.2347 46.0839 86.7456 46.3889Z" fill="#F79595"/>
<path d="M58.4506 32.6C60.9041 32.6 62.893 30.8871 62.893 28.7742C62.893 26.6612 60.9041 24.9483 58.4506 24.9483C55.9972 24.9483 54.0083 26.6612 54.0083 28.7742C54.0083 30.8871 55.9972 32.6 58.4506 32.6Z" fill="#EE6161"/>
<path d="M42.4197 57.601C45.1014 57.601 47.2753 55.3618 47.2753 52.5996C47.2753 49.8374 45.1014 47.5982 42.4197 47.5982C39.738 47.5982 37.5641 49.8374 37.5641 52.5996C37.5641 55.3618 39.738 57.601 42.4197 57.601Z" fill="#EE6161"/>
<path d="M61.3434 53.5748C63.2634 53.5748 64.8199 51.9715 64.8199 49.9938C64.8199 48.0161 63.2634 46.4128 61.3434 46.4128C59.4233 46.4128 57.8668 48.0161 57.8668 49.9938C57.8668 51.9715 59.4233 53.5748 61.3434 53.5748Z" fill="#F9B1B1"/>
<path d="M48.5038 70.951C50.3705 70.951 51.8838 69.3922 51.8838 67.4694C51.8838 65.5466 50.3705 63.9879 48.5038 63.9879C46.6371 63.9879 45.1238 65.5466 45.1238 67.4694C45.1238 69.3922 46.6371 70.951 48.5038 70.951Z" fill="#F9B1B1"/>
<path d="M25.6525 43.1787C25.6525 30.7195 31.4229 19.6459 40.3573 12.6391C39.3142 12.7906 38.2843 12.9954 37.2762 13.2501C37.0627 13.3037 36.8402 13.2187 36.7146 13.032L32.5658 6.86966L32.7076 6.81421C34.1108 6.25786 34.9022 4.67014 34.4284 3.20256C33.9242 1.63333 32.2589 0.834846 30.7785 1.42077L25.5064 3.50939C24.105 4.06389 23.3118 5.65161 23.7856 7.12104C24.2898 8.68843 25.9568 9.48876 27.4355 8.90283L28.4691 8.4925L29.5583 15.9616C29.5906 16.1853 29.4847 16.4052 29.2945 16.518C26.3911 18.2129 23.7766 20.3681 21.5443 22.8892C21.39 23.0611 21.1495 23.1165 20.9414 23.0241L16.2112 20.917C16.9469 19.723 16.6849 18.1297 15.5706 17.2629C15.0897 16.8895 14.5262 16.7084 13.9681 16.7084C13.1624 16.7084 12.3675 17.0836 11.8435 17.7952L9.58968 20.8634C8.72475 22.0408 8.85934 23.7376 9.96113 24.6839C11.1365 25.6913 12.8771 25.475 13.7887 24.2329L14.083 23.8337L17.4655 27.9259C17.6109 28.1034 17.6306 28.3529 17.5193 28.5525C15.5221 32.1161 14.1637 36.1066 13.6074 40.3578C13.5787 40.5833 13.419 40.7663 13.2037 40.8181L6.11024 42.5315C6.11921 40.831 4.80568 39.4373 3.16017 39.393C1.46441 39.3468 0.0611545 40.8199 0.0467989 42.5684L0.000143278 47.9157C-0.0160068 49.6346 1.33521 51.0375 3.00405 51.0375C3.84385 51.0375 4.6047 50.69 5.15739 50.1244C5.71187 49.5607 6.05641 48.7788 6.06359 47.9157L6.07076 47.0525L13.2163 48.753C13.4298 48.8029 13.5895 48.9859 13.62 49.2114C14.1601 53.2315 15.4163 57.0169 17.252 60.4252C17.3614 60.6267 17.3363 60.8781 17.1874 61.0518L12.7156 66.2567C11.7161 64.8945 9.81219 64.6135 8.47712 65.6967C7.22459 66.7132 7.01285 68.5912 7.92263 69.9386L9.5484 72.3507C10.4815 73.7332 12.328 74.1639 13.6954 73.2379C15.0053 72.3507 15.4091 70.5984 14.6913 69.2159L21.0401 66.534C21.2446 66.4471 21.4797 66.5025 21.6304 66.6707C24.1193 69.4562 27.0748 71.7906 30.3694 73.5429C30.565 73.6482 30.6798 73.8626 30.6547 74.0881L29.7934 82.1043L29.6731 82.06C27.8859 81.389 25.8348 82.3243 25.2175 84.1782C24.6164 85.9766 25.5244 87.9451 27.265 88.5976L32.4671 90.5512C34.3333 91.2536 35.8604 90.152 35.8604 88.1059C36.0004 87.7104 36.0668 87.3056 36.0668 86.9063C36.0668 85.4794 35.2126 84.1394 33.8345 83.6218L33.6855 83.5664L37.9186 76.7257C38.0371 76.5353 38.2578 76.441 38.4731 76.4854C40.5134 76.9142 42.6237 77.1416 44.7878 77.1416C45.0424 77.1416 45.3012 77.1382 45.5544 77.1321C33.7241 70.7064 25.6525 57.9122 25.6525 43.1787Z" fill="#F37C7C"/>
<path d="M27.3541 62.7684C29.2987 62.7684 30.8752 61.1446 30.8752 59.1416C30.8752 57.1385 29.2987 55.5148 27.3541 55.5148C25.4094 55.5148 23.833 57.1385 23.833 59.1416C23.833 61.1446 25.4094 62.7684 27.3541 62.7684Z" fill="#EE6161"/>
<path d="M53.4135 43.1787H52.2238C51.4803 43.1787 50.8779 42.5581 50.8779 41.7925C50.8779 41.0269 51.4803 40.4062 52.2238 40.4062H53.4135C54.1569 40.4062 54.7593 41.0269 54.7593 41.7925C54.7593 42.5581 54.1569 43.1787 53.4135 43.1787Z" fill="#F9B1B1"/>
<path d="M37.5638 67.4103H36.3414C35.598 67.4103 34.9956 66.7896 34.9956 66.024C34.9956 65.2585 35.598 64.6378 36.3414 64.6378H37.5638C38.3073 64.6378 38.9097 65.2585 38.9097 66.024C38.9097 66.7896 38.3073 67.4103 37.5638 67.4103Z" fill="#F9B1B1"/>
<path d="M25.0105 47.2226H23.833C23.0896 47.2226 22.4872 46.6019 22.4872 45.8363C22.4872 45.0707 23.0896 44.4501 23.833 44.4501H25.0105C25.754 44.4501 26.3564 45.0707 26.3564 45.8363C26.3564 46.6019 25.754 47.2226 25.0105 47.2226Z" fill="#EE6161"/>
<path d="M48.9139 22.9692H47.2752C46.5317 22.9692 45.9293 22.3486 45.9293 21.583C45.9293 20.8174 46.5317 20.1967 47.2752 20.1967H48.9139C49.6573 20.1967 50.2597 20.8174 50.2597 21.583C50.2597 22.3486 49.6573 22.9692 48.9139 22.9692Z" fill="#F9B1B1"/>
<path d="M59.6762 62.8978H57.8667C57.1233 62.8978 56.5209 62.2771 56.5209 61.5115C56.5209 60.7459 57.1233 60.1253 57.8667 60.1253H59.6762C60.4197 60.1253 61.0221 60.7459 61.0221 61.5115C61.0221 62.2771 60.4195 62.8978 59.6762 62.8978Z" fill="#EE6161"/>
<path d="M39.149 38.8507C43.1675 35.5868 44.2798 30.1385 41.6334 26.6816C38.987 23.2247 33.584 23.0683 29.5655 26.3322C25.547 29.5961 24.4346 35.0444 27.081 38.5013C29.7274 41.9582 35.1304 42.1146 39.149 38.8507Z" fill="#EE6161"/>
<g clip-path="url(#clip0)">
<path d="M41.0628 295.333C41.6917 295.461 42.1012 296.089 41.9781 296.736L41.5193 299.142C41.3925 299.809 40.7509 300.236 40.1034 300.072C39.4969 299.919 39.1291 299.281 39.2492 298.65L39.2619 298.585L36.2376 298.727C36.1466 298.731 36.0675 298.793 36.0392 298.883C35.7437 299.802 35.3551 300.678 34.8843 301.497C34.8366 301.58 34.8441 301.686 34.9045 301.76L36.2421 303.396C36.5077 303.136 36.8545 303 37.2052 303C37.5006 303 37.799 303.097 38.0519 303.296C38.6644 303.779 38.7807 304.682 38.3122 305.313L37.9243 305.835C37.4693 306.448 36.621 306.613 36.0034 306.174C35.4715 305.797 35.279 305.118 35.4715 304.529L33.5445 303.657C33.4572 303.618 33.3565 303.641 33.2931 303.713C32.4009 304.722 31.3624 305.59 30.2121 306.283C30.133 306.331 30.0905 306.423 30.1054 306.516L30.5985 309.614L31.0253 309.438C31.6377 309.186 32.3345 309.509 32.5531 310.158C32.7575 310.766 32.4367 311.431 31.857 311.669L29.6765 312.568C29.0647 312.82 28.368 312.497 28.1494 311.848C27.945 311.24 28.2658 310.575 28.8454 310.336L28.9044 310.313L27.1453 307.774C27.0923 307.697 26.9991 307.663 26.9103 307.687C25.8592 307.967 24.7566 308.118 23.6196 308.118C22.72 308.118 21.8427 308.024 20.9944 307.845C20.9049 307.827 20.8132 307.866 20.7639 307.945L19.0041 310.789L19.066 310.812C19.639 311.027 19.9941 311.584 19.9941 312.178C19.9941 312.344 19.9664 312.512 19.9083 312.676C19.9083 313.527 19.2734 313.985 18.4976 313.693L16.3349 312.881C15.6113 312.609 15.2338 311.791 15.4837 311.043C15.7403 310.273 16.593 309.884 17.336 310.163L17.386 310.181L17.7441 306.849C17.7545 306.755 17.7068 306.666 17.6255 306.622C16.2558 305.894 15.0271 304.923 13.9924 303.765C13.9298 303.695 13.832 303.672 13.747 303.708L11.1076 304.823C11.406 305.398 11.2382 306.126 10.6936 306.495C10.1251 306.88 9.35749 306.701 8.96956 306.126L8.29368 305.124C7.91545 304.563 8.00348 303.783 8.5242 303.36C9.07923 302.91 9.87074 303.027 10.2863 303.593L12.1453 301.429C12.2072 301.357 12.2177 301.252 12.1722 301.169C11.409 299.752 10.8868 298.178 10.6623 296.507C10.6496 296.413 10.5832 296.337 10.4944 296.316L7.5238 295.609L7.52082 295.968C7.51783 296.327 7.3746 296.652 7.14408 296.886C6.91431 297.121 6.59801 297.266 6.24887 297.266C5.55509 297.266 4.99335 296.683 5.00006 295.968L5.01946 293.745C5.02542 293.018 5.6088 292.406 6.31378 292.425C6.99787 292.443 7.54394 293.023 7.54021 293.73L10.4892 293.017C10.5787 292.996 10.6451 292.92 10.657 292.826C10.8883 291.059 11.453 289.4 12.2833 287.918C12.3296 287.835 12.3214 287.731 12.2609 287.658L10.8547 285.956L10.7324 286.122C10.3534 286.639 9.62978 286.729 9.14114 286.31C8.6831 285.916 8.62714 285.211 8.98672 284.722L9.9237 283.446C10.1415 283.15 10.472 282.994 10.807 282.994C11.039 282.994 11.2732 283.07 11.4732 283.225C11.9364 283.585 12.0453 284.247 11.7395 284.744L13.706 285.62C13.7925 285.658 13.8925 285.635 13.9566 285.564C14.8847 284.516 15.9716 283.62 17.1786 282.915C17.2577 282.868 17.3017 282.777 17.2883 282.684L16.8355 279.579L16.4058 279.749C15.791 279.993 15.098 279.66 14.8884 279.008C14.6914 278.398 15.0212 277.738 15.6038 277.507L17.7956 276.639C18.411 276.395 19.1033 276.727 19.3129 277.379C19.5099 277.99 19.1809 278.65 18.5975 278.881L18.5386 278.904L20.2634 281.466C20.3156 281.543 20.4081 281.579 20.4969 281.557C21.498 281.304 22.5432 281.17 23.6196 281.17H23.6211C23.7151 281.17 23.7994 281.111 23.8308 281.019L24.4022 279.373C23.7405 279.16 23.2996 278.487 23.3839 277.754C23.4801 276.924 24.2523 276.334 25.0587 276.438L25.8435 276.54C26.6432 276.643 27.243 277.381 27.1557 278.207C27.0871 278.85 26.638 279.351 26.068 279.505L26.2665 281.289C26.2769 281.385 26.3463 281.464 26.4388 281.484C27.7652 281.785 29.0163 282.293 30.1576 282.973C30.2375 283.02 30.3359 283.013 30.4068 282.953L32.7739 280.974L32.4143 280.68C31.8973 280.257 31.8242 279.474 32.2629 278.957C32.6732 278.472 33.3931 278.429 33.8817 278.829L35.7206 280.333C36.2376 280.755 36.3107 281.539 35.8721 282.056C35.4618 282.54 34.7419 282.583 34.2532 282.184L34.2032 282.143L32.9358 284.977C32.897 285.063 32.9149 285.163 32.979 285.231C33.8713 286.172 34.6307 287.248 35.226 288.425C35.2693 288.511 35.3596 288.559 35.4521 288.546L37.2492 288.287C36.9851 287.528 37.3768 286.686 38.1302 286.432C38.8486 286.189 39.623 286.6 39.8871 287.33L40.3011 288.474C40.5622 289.197 40.2489 290.024 39.5626 290.332C38.9046 290.626 38.1623 290.36 37.8087 289.759L36.3174 290.801C36.2391 290.856 36.204 290.956 36.2294 291.049C36.536 292.194 36.7001 293.399 36.7001 294.644C36.7001 294.852 36.6957 295.059 36.686 295.264C36.6822 295.359 36.7337 295.446 36.8172 295.483L39.6133 296.741L39.7013 296.276C39.8251 295.628 40.4346 295.207 41.0628 295.333Z" fill="#F79595"/>
<path d="M29.2997 289.601C30.3197 289.601 31.1465 288.889 31.1465 288.01C31.1465 287.132 30.3197 286.42 29.2997 286.42C28.2797 286.42 27.4529 287.132 27.4529 288.01C27.4529 288.889 28.2797 289.601 29.2997 289.601Z" fill="#EE6161"/>
<path d="M22.6352 299.995C23.7501 299.995 24.6538 299.064 24.6538 297.915C24.6538 296.767 23.7501 295.836 22.6352 295.836C21.5203 295.836 20.6166 296.767 20.6166 297.915C20.6166 299.064 21.5203 299.995 22.6352 299.995Z" fill="#EE6161"/>
<path d="M30.5023 298.321C31.3005 298.321 31.9476 297.654 31.9476 296.832C31.9476 296.01 31.3005 295.343 30.5023 295.343C29.7041 295.343 29.057 296.01 29.057 296.832C29.057 297.654 29.7041 298.321 30.5023 298.321Z" fill="#F9B1B1"/>
<path d="M25.1645 305.545C25.9405 305.545 26.5696 304.897 26.5696 304.097C26.5696 303.298 25.9405 302.65 25.1645 302.65C24.3884 302.65 23.7593 303.298 23.7593 304.097C23.7593 304.897 24.3884 305.545 25.1645 305.545Z" fill="#F9B1B1"/>
<path d="M15.6645 294C15.6645 288.82 18.0635 284.216 21.7778 281.303C21.3441 281.366 20.916 281.451 20.4969 281.557C20.4081 281.58 20.3156 281.544 20.2634 281.467L18.5386 278.905L18.5975 278.882C19.1809 278.65 19.5099 277.99 19.3129 277.38C19.1033 276.728 18.411 276.396 17.7956 276.639L15.6038 277.508C15.0212 277.738 14.6914 278.398 14.8884 279.009C15.098 279.661 15.791 279.994 16.4058 279.75L16.8355 279.579L17.2883 282.685C17.3017 282.778 17.2577 282.869 17.1786 282.916C15.9716 283.62 14.8846 284.516 13.9566 285.565C13.8925 285.636 13.7925 285.659 13.706 285.621L11.7395 284.745C12.0453 284.248 11.9364 283.586 11.4732 283.226C11.2732 283.07 11.039 282.995 10.807 282.995C10.472 282.995 10.1415 283.151 9.9237 283.447L8.98672 284.722C8.62714 285.212 8.68309 285.917 9.14114 286.311C9.62978 286.729 10.3534 286.64 10.7324 286.123L10.8547 285.957L12.2609 287.658C12.3214 287.732 12.3296 287.836 12.2833 287.919C11.453 289.4 10.8883 291.059 10.657 292.827C10.6451 292.921 10.5787 292.997 10.4892 293.018L7.54021 293.73C7.54394 293.023 6.99787 292.444 6.31378 292.426C5.6088 292.406 5.02542 293.019 5.01946 293.746L5.00006 295.969C4.99335 296.683 5.55509 297.267 6.24887 297.267C6.59801 297.267 6.91431 297.122 7.14408 296.887C7.3746 296.653 7.51783 296.328 7.52082 295.969L7.5238 295.61L10.4944 296.317C10.5832 296.338 10.6496 296.414 10.6623 296.507C10.8868 298.179 11.409 299.752 12.1722 301.169C12.2177 301.253 12.2072 301.358 12.1453 301.43L10.2863 303.594C9.87074 303.027 9.07922 302.911 8.5242 303.361C8.00348 303.784 7.91545 304.564 8.29368 305.124L8.96956 306.127C9.35748 306.702 10.1251 306.881 10.6936 306.496C11.2382 306.127 11.406 305.399 11.1076 304.824L13.747 303.709C13.832 303.673 13.9298 303.696 13.9924 303.766C15.0271 304.924 16.2558 305.894 17.6255 306.623C17.7068 306.667 17.7545 306.756 17.7441 306.849L17.386 310.182L17.336 310.164C16.593 309.885 15.7403 310.274 15.4837 311.044C15.2338 311.792 15.6113 312.61 16.3349 312.881L18.4976 313.694C19.2734 313.986 19.9083 313.528 19.9083 312.677C19.9664 312.513 19.994 312.344 19.994 312.178C19.994 311.585 19.6389 311.028 19.066 310.813L19.0041 310.79L20.7639 307.946C20.8132 307.867 20.9049 307.828 20.9944 307.846C21.8427 308.024 22.72 308.119 23.6196 308.119C23.7255 308.119 23.8331 308.118 23.9383 308.115C19.0201 305.444 15.6645 300.125 15.6645 294Z" fill="#F37C7C"/>
<path d="M16.3719 302.143C17.1803 302.143 17.8357 301.468 17.8357 300.635C17.8357 299.802 17.1803 299.127 16.3719 299.127C15.5635 299.127 14.9081 299.802 14.9081 300.635C14.9081 301.468 15.5635 302.143 16.3719 302.143Z" fill="#EE6161"/>
<path d="M27.2055 293.999H26.7109C26.4018 293.999 26.1514 293.741 26.1514 293.422C26.1514 293.104 26.4018 292.846 26.7109 292.846H27.2055C27.5145 292.846 27.765 293.104 27.765 293.422C27.765 293.741 27.5145 293.999 27.2055 293.999Z" fill="#F9B1B1"/>
<path d="M20.6165 304.073H20.1083C19.7993 304.073 19.5488 303.815 19.5488 303.496C19.5488 303.178 19.7993 302.92 20.1083 302.92H20.6165C20.9256 302.92 21.176 303.178 21.176 303.496C21.176 303.815 20.9256 304.073 20.6165 304.073Z" fill="#F9B1B1"/>
<path d="M15.3975 295.68H14.908C14.5989 295.68 14.3485 295.422 14.3485 295.104C14.3485 294.785 14.5989 294.527 14.908 294.527H15.3975C15.7066 294.527 15.957 294.785 15.957 295.104C15.957 295.422 15.7066 295.68 15.3975 295.68Z" fill="#EE6161"/>
<path d="M25.3349 285.597H24.6536C24.3446 285.597 24.0941 285.339 24.0941 285.021C24.0941 284.702 24.3446 284.444 24.6536 284.444H25.3349C25.644 284.444 25.8944 284.702 25.8944 285.021C25.8944 285.339 25.644 285.597 25.3349 285.597Z" fill="#F9B1B1"/>
<path d="M29.8093 302.197H29.0571C28.748 302.197 28.4976 301.939 28.4976 301.62C28.4976 301.302 28.748 301.044 29.0571 301.044H29.8093C30.1184 301.044 30.3688 301.302 30.3688 301.62C30.3688 301.939 30.1183 302.197 29.8093 302.197Z" fill="#EE6161"/>
<path d="M21.2753 292.199C22.9459 290.843 23.4084 288.578 22.3082 287.14C21.208 285.703 18.9618 285.638 17.2912 286.995C15.6205 288.352 15.1581 290.617 16.2583 292.054C17.3585 293.491 19.6047 293.556 21.2753 292.199Z" fill="#EE6161"/>
</g>
<path d="M389.834 129.015C391.958 129.446 393.342 131.567 392.926 133.752L391.376 141.883C390.948 144.134 388.78 145.577 386.593 145.024C384.544 144.508 383.301 142.35 383.707 140.219L383.75 140.001L373.532 140.481C373.225 140.494 372.958 140.704 372.862 141.008C371.864 144.113 370.551 147.072 368.961 149.84C368.799 150.12 368.825 150.476 369.029 150.725L373.548 156.254C374.445 155.374 375.617 154.917 376.801 154.917C377.799 154.917 378.807 155.242 379.662 155.917C381.731 157.547 382.124 160.597 380.541 162.731L379.231 164.494C377.693 166.566 374.828 167.121 372.741 165.639C370.944 164.364 370.294 162.072 370.944 160.081L364.434 157.134C364.139 157.002 363.799 157.08 363.585 157.324C360.571 160.732 357.062 163.666 353.176 166.007C352.909 166.168 352.765 166.48 352.816 166.794L354.482 177.261L355.923 176.667C357.992 175.815 360.346 176.905 361.085 179.099C361.775 181.152 360.692 183.398 358.733 184.203L351.366 187.24C349.3 188.091 346.946 187.001 346.207 184.808C345.517 182.754 346.601 180.509 348.559 179.701L348.758 179.621L342.815 171.044C342.636 170.784 342.321 170.67 342.021 170.75C338.47 171.698 334.745 172.207 330.904 172.207C327.865 172.207 324.901 171.887 322.035 171.285C321.733 171.223 321.423 171.355 321.257 171.623L315.311 181.23L315.52 181.308C317.456 182.035 318.656 183.917 318.656 185.921C318.656 186.482 318.562 187.05 318.366 187.606C318.366 190.48 316.221 192.027 313.6 191.04L306.294 188.297C303.849 187.38 302.574 184.615 303.418 182.09C304.285 179.486 307.166 178.172 309.676 179.115L309.845 179.177L311.054 167.918C311.09 167.601 310.928 167.3 310.654 167.152C306.026 164.691 301.875 161.413 298.38 157.5C298.168 157.264 297.838 157.186 297.551 157.308L288.634 161.075C289.642 163.017 289.075 165.478 287.235 166.724C285.315 168.025 282.721 167.42 281.411 165.478L279.127 162.09C277.85 160.198 278.147 157.56 279.906 156.132C281.781 154.611 284.455 155.006 285.859 156.919L292.14 149.609C292.349 149.365 292.384 149.012 292.23 148.729C289.652 143.942 287.888 138.625 287.129 132.979C287.086 132.662 286.862 132.405 286.562 132.335L276.526 129.947L276.516 131.159C276.506 132.371 276.022 133.469 275.244 134.261C274.467 135.056 273.399 135.544 272.219 135.544C269.875 135.544 267.978 133.573 268 131.159L268.066 123.649C268.086 121.193 270.057 119.124 272.438 119.189C274.75 119.251 276.594 121.209 276.582 123.597L286.545 121.191C286.847 121.118 287.071 120.861 287.112 120.544C287.893 114.573 289.801 108.969 292.606 103.964C292.762 103.683 292.734 103.333 292.53 103.084L287.779 97.3361L287.366 97.8968C286.086 99.6413 283.641 99.945 281.99 98.5302C280.443 97.2011 280.254 94.818 281.469 93.1643L284.634 88.855C285.37 87.8556 286.487 87.3286 287.618 87.3286C288.402 87.3286 289.193 87.583 289.869 88.1074C291.434 89.3249 291.802 91.5626 290.769 93.2396L297.412 96.199C297.704 96.3288 298.042 96.251 298.259 96.0095C301.394 92.4686 305.066 89.4417 309.144 87.0612C309.411 86.9028 309.56 86.5939 309.514 86.2798L307.985 75.7895L306.533 76.3658C304.456 77.1887 302.115 76.0646 301.407 73.8632C300.741 71.7994 301.855 69.5695 303.824 68.7907L311.228 65.8573C313.308 65.0343 315.646 66.1558 316.355 68.3598C317.02 70.421 315.908 72.6509 313.938 73.4323L313.738 73.5102L319.565 82.1652C319.742 82.4274 320.054 82.5468 320.354 82.4715C323.736 81.6174 327.267 81.1657 330.904 81.1657H330.909C331.227 81.1657 331.512 80.9658 331.617 80.6569L333.548 75.0963C331.312 74.3747 329.823 72.1032 330.108 69.6266C330.433 66.8204 333.041 64.8267 335.766 65.1797L338.417 65.5224C341.119 65.8728 343.145 68.365 342.85 71.1556C342.619 73.3285 341.101 75.0211 339.176 75.5403L339.846 81.5681C339.881 81.8926 340.116 82.1574 340.428 82.2275C344.909 83.2425 349.136 84.9585 352.992 87.2559C353.262 87.4143 353.594 87.3909 353.834 87.1884L361.831 80.5038L360.616 79.5095C358.869 78.0817 358.622 75.4364 360.104 73.6893C361.49 72.0513 363.923 71.9059 365.573 73.2584L371.786 78.3387C373.532 79.7639 373.779 82.4118 372.297 84.1589C370.911 85.7944 368.479 85.9397 366.828 84.5898L366.66 84.4522L362.378 94.0288C362.247 94.317 362.307 94.657 362.524 94.8855C365.538 98.0656 368.104 101.7 370.115 105.677C370.261 105.965 370.566 106.129 370.879 106.085L376.95 105.21C376.058 102.645 377.381 99.8023 379.926 98.943C382.353 98.1227 384.97 99.5115 385.862 101.978L387.26 105.841C388.143 108.283 387.084 111.079 384.765 112.118C382.542 113.112 380.035 112.214 378.84 110.184L373.802 113.704C373.537 113.888 373.419 114.226 373.505 114.542C374.541 118.41 375.095 122.481 375.095 126.686C375.095 127.39 375.08 128.088 375.047 128.781C375.035 129.1 375.208 129.394 375.491 129.521L384.937 133.771L385.234 132.2C385.653 130.012 387.712 128.586 389.834 129.015Z" fill="#F79595"/>
<path d="M350.094 109.648C353.539 109.648 356.333 107.243 356.333 104.275C356.333 101.307 353.539 98.9016 350.094 98.9016C346.648 98.9016 343.854 101.307 343.854 104.275C343.854 107.243 346.648 109.648 350.094 109.648Z" fill="#EE6161"/>
<path d="M327.578 144.762C331.345 144.762 334.398 141.617 334.398 137.738C334.398 133.858 331.345 130.713 327.578 130.713C323.812 130.713 320.759 133.858 320.759 137.738C320.759 141.617 323.812 144.762 327.578 144.762Z" fill="#EE6161"/>
<path d="M354.156 139.107C356.853 139.107 359.039 136.856 359.039 134.078C359.039 131.3 356.853 129.048 354.156 129.048C351.46 129.048 349.274 131.3 349.274 134.078C349.274 136.856 351.46 139.107 354.156 139.107Z" fill="#F9B1B1"/>
<path d="M336.123 163.512C338.745 163.512 340.871 161.323 340.871 158.622C340.871 155.922 338.745 153.733 336.123 153.733C333.502 153.733 331.376 155.922 331.376 158.622C331.376 161.323 333.502 163.512 336.123 163.512Z" fill="#F9B1B1"/>
<path d="M304.029 124.506C304.029 107.007 312.133 91.4544 324.682 81.6134C323.217 81.8262 321.77 82.1139 320.354 82.4716C320.054 82.5469 319.742 82.4275 319.565 82.1653L313.738 73.5103L313.938 73.4324C315.908 72.651 317.02 70.4211 316.355 68.3599C315.646 66.1559 313.308 65.0344 311.228 65.8573L303.824 68.7908C301.855 69.5696 300.741 71.7995 301.407 73.8633C302.115 76.0647 304.456 77.1888 306.533 76.3658L307.985 75.7895L309.514 86.2799C309.56 86.594 309.411 86.9029 309.144 87.0613C305.066 89.4418 301.394 92.4687 298.259 96.0096C298.042 96.251 297.704 96.3289 297.412 96.1991L290.769 93.2397C291.802 91.5627 291.434 89.325 289.869 88.1075C289.193 87.5831 288.402 87.3287 287.618 87.3287C286.487 87.3287 285.37 87.8556 284.634 88.8551L281.469 93.1644C280.254 94.8181 280.443 97.2012 281.99 98.5303C283.641 99.9451 286.086 99.6414 287.366 97.8969L287.779 97.3362L292.53 103.084C292.734 103.333 292.762 103.683 292.606 103.964C289.801 108.969 287.893 114.573 287.112 120.544C287.071 120.861 286.847 121.118 286.545 121.191L276.582 123.597C276.594 121.209 274.75 119.251 272.438 119.189C270.057 119.124 268.086 121.193 268.066 123.649L268 131.159C267.978 133.573 269.875 135.544 272.219 135.544C273.399 135.544 274.467 135.056 275.244 134.261C276.022 133.47 276.506 132.371 276.516 131.159L276.526 129.947L286.562 132.335C286.862 132.405 287.086 132.662 287.129 132.979C287.888 138.625 289.652 143.942 292.23 148.729C292.384 149.012 292.349 149.365 292.14 149.609L285.859 156.919C284.455 155.006 281.781 154.611 279.906 156.132C278.147 157.56 277.85 160.198 279.127 162.09L281.411 165.478C282.721 167.42 285.315 168.025 287.235 166.724C289.075 165.478 289.642 163.017 288.634 161.075L297.551 157.308C297.838 157.186 298.168 157.264 298.38 157.501C301.875 161.413 306.026 164.691 310.654 167.152C310.928 167.3 311.09 167.601 311.054 167.918L309.845 179.177L309.676 179.115C307.166 178.172 304.285 179.486 303.418 182.09C302.574 184.616 303.849 187.38 306.294 188.297L313.6 191.041C316.221 192.027 318.366 190.48 318.366 187.606C318.562 187.051 318.656 186.482 318.656 185.921C318.656 183.917 317.456 182.035 315.52 181.308L315.311 181.23L321.257 171.623C321.423 171.355 321.733 171.223 322.035 171.285C324.901 171.887 327.865 172.207 330.904 172.207C331.262 172.207 331.625 172.202 331.981 172.194C315.365 163.169 304.029 145.199 304.029 124.506Z" fill="#F37C7C"/>
<path d="M306.419 152.02C309.15 152.02 311.364 149.739 311.364 146.926C311.364 144.113 309.15 141.832 306.419 141.832C303.687 141.832 301.473 144.113 301.473 146.926C301.473 149.739 303.687 152.02 306.419 152.02Z" fill="#EE6161"/>
<path d="M343.019 124.506H341.348C340.304 124.506 339.458 123.634 339.458 122.559C339.458 121.484 340.304 120.612 341.348 120.612H343.019C344.063 120.612 344.909 121.484 344.909 122.559C344.909 123.634 344.063 124.506 343.019 124.506Z" fill="#F9B1B1"/>
<path d="M320.758 158.539H319.041C317.997 158.539 317.151 157.668 317.151 156.592C317.151 155.517 317.997 154.645 319.041 154.645H320.758C321.802 154.645 322.648 155.517 322.648 156.592C322.648 157.668 321.802 158.539 320.758 158.539Z" fill="#F9B1B1"/>
<path d="M303.127 130.186H301.473C300.429 130.186 299.583 129.314 299.583 128.239C299.583 127.163 300.429 126.292 301.473 126.292H303.127C304.171 126.292 305.017 127.163 305.017 128.239C305.017 129.314 304.171 130.186 303.127 130.186Z" fill="#EE6161"/>
<path d="M336.699 96.122H334.398C333.354 96.122 332.507 95.2502 332.507 94.175C332.507 93.0997 333.354 92.228 334.398 92.228H336.699C337.743 92.228 338.589 93.0997 338.589 94.175C338.589 95.2502 337.743 96.122 336.699 96.122Z" fill="#F9B1B1"/>
<path d="M351.815 152.201H349.274C348.229 152.201 347.383 151.33 347.383 150.254C347.383 149.179 348.229 148.307 349.274 148.307H351.815C352.859 148.307 353.705 149.179 353.705 150.254C353.705 151.33 352.859 152.201 351.815 152.201Z" fill="#EE6161"/>
<path d="M322.984 118.427C328.628 113.843 330.191 106.191 326.474 101.336C322.757 96.4809 315.168 96.2612 309.524 100.845C303.88 105.43 302.318 113.082 306.035 117.937C309.752 122.792 317.34 123.012 322.984 118.427Z" fill="#EE6161"/>
<defs>
<clipPath id="clip0">
<rect width="37" height="38.1111" fill="white" transform="translate(5 276.048)"/>
</clipPath>
</defs>
</svg>
