<svg width="120" height="120" viewBox="0 0 120 120" fill="none" xmlns="http://www.w3.org/2000/svg">
<g clip-path="url(#clip0)">
<path d="M96.3721 73.5415L94.063 65.4141C109.074 28.0585 95.3755 1.86357 81.4806 3.87403C77.1008 -0.703075 70.7741 -1.2187 62.1852 2.29341C59.8909 3.23091 61.3065 6.70435 63.6041 5.7645C77.7369 -0.013778 78.2057 8.4795 81.2333 7.73911C93.392 4.75857 103.631 30.804 90.8732 63.2921C80.6519 61.8739 79.9258 55.3233 77.29 57.9439C76.9374 58.2945 76.7385 58.7708 76.737 59.268C76.7356 59.7653 76.9317 60.2427 77.2823 60.5954C80.8546 64.1888 85.3396 66.3502 90.6259 67.0379L92.6261 74.0778C75.9105 89.7164 67.9363 87.6797 69.5193 91.4794C69.614 91.7067 69.7525 91.9131 69.927 92.0869C70.1015 92.2607 70.3085 92.3984 70.5362 92.4921C70.7639 92.5859 71.0078 92.6339 71.254 92.6334C71.5003 92.6328 71.744 92.5838 71.9713 92.4891C82.4744 88.1136 91.6612 80.1024 94.866 77.1228C124.129 100.153 112.057 120 118.125 120C118.622 120 119.099 119.802 119.451 119.451C119.803 119.099 120 118.622 120 118.125C120 98.4776 111.627 85.2971 96.3721 73.5415Z" fill="#EE6161"/>
<path d="M81.8153 42.8893C78.5697 31.4652 65.9481 35.0689 68.6776 44.6729C69.3552 47.0574 72.9632 46.0358 72.2849 43.6477C70.892 38.7453 76.3619 37.4152 78.2083 43.9142C79.3272 47.8531 78.7724 51.5506 74.8471 52.666C72.4604 53.3441 73.4854 56.9506 75.872 56.2731C81.8341 54.5792 83.5424 48.9676 81.8153 42.8893Z" fill="#EE6161"/>
<path d="M66.1468 76.9282C68.0708 82.3657 67.6869 86.236 70.5128 85.4337C70.7496 85.3664 70.9709 85.2531 71.164 85.1003C71.3571 84.9475 71.5181 84.7581 71.638 84.5431C71.7579 84.328 71.8343 84.0914 71.8628 83.8468C71.8912 83.6023 71.8712 83.3545 71.8039 83.1176L69.2415 74.0996C69.1742 73.8627 69.0609 73.6414 68.9081 73.4483C68.7553 73.2553 68.566 73.0942 68.3509 72.9743C68.1358 72.8544 67.8992 72.778 67.6547 72.7496C67.4101 72.7211 67.1623 72.7411 66.9254 72.8084C54.1023 76.0456 52.6989 77.8336 49.8348 76.2371C49.2962 75.9387 48.822 75.5366 48.4398 75.0538C48.0577 74.571 47.775 74.0173 47.6082 73.4246C45.2296 66.0418 45.745 64.5061 44.0075 64.0163L39.1344 62.6421C42.9997 51.8393 43.2299 58.6988 39.3219 44.2617C45.0214 44.7582 48.3294 42.7128 63.111 38.8074C65.4995 38.1289 64.4703 34.5225 62.086 35.2003L45.3071 39.9671C34.5339 42.8239 27.755 35.1014 24.0962 24.6795C30.6707 26.0276 38.5806 20.1945 50.6727 12.7207C52.7835 11.4162 50.8105 8.22706 48.7007 9.53112C36.9662 16.7841 26.8668 24.1845 22.4861 19.8788C21.2659 18.4655 18.8673 19.5853 19.2737 21.5349C21.0301 29.9607 26.5478 40.3116 35.1686 43.365L38.3518 54.5682C33.575 67.175 32.4456 64.3214 41.9804 67.3395C43.8603 72.4683 43.4265 76.9575 48.0078 79.5115C48.9745 80.054 50.0393 80.3993 51.1404 80.5275C52.2414 80.6556 53.357 80.564 54.4225 80.258L66.1468 76.9282Z" fill="#EE6161"/>
<path d="M93.6328 88.0781C91.909 88.0844 90.2034 88.4303 88.6134 89.0962C87.0234 89.762 85.5802 90.7347 84.3664 91.9586C83.1525 93.1826 82.1918 94.6337 81.5392 96.2292C80.8865 97.8246 80.5547 99.533 80.5626 101.257L80.625 118.132C80.6341 120.632 84.3841 120.609 84.375 118.118L84.3126 101.243C84.3022 98.7563 85.2799 96.3676 87.0307 94.6021C88.7814 92.8365 91.1619 91.8388 93.6483 91.8284C96.1347 91.8179 98.5234 92.7956 100.289 94.5464C102.054 96.2972 103.052 98.6776 103.063 101.164L103.125 118.039C103.127 118.535 103.325 119.01 103.677 119.36C104.028 119.711 104.504 119.907 105 119.907C105.023 119.897 106.882 119.824 106.875 118.025L106.813 101.15C106.794 97.6702 105.396 94.3396 102.926 91.8889C100.455 89.4383 97.1128 88.0678 93.6328 88.0781Z" fill="#EE6161"/>
<path d="M64.0293 99.672L63.8446 99.2278C65.0952 92.2491 67.8857 88.683 64.9398 84.9101C63.2383 82.7304 59.1274 81.3602 58.2445 83.7166C52.372 99.6605 52.349 98.8043 52.5365 99.7427C56.5284 116.908 55.349 120.001 58.1233 120C58.4009 120.001 58.6751 119.939 58.9261 119.821C59.1771 119.702 59.3987 119.529 59.5748 119.315C59.7509 119.1 59.8771 118.849 59.9444 118.58C60.0117 118.31 60.0183 118.029 59.9638 117.757L56.3186 99.532L61.1884 86.5462C63.7666 87.9291 61.9232 90.3237 60.0562 98.9212C59.792 99.9759 60.1734 99.847 63.8941 109.111C64.0606 109.511 64.3607 109.841 64.7433 110.045C65.1259 110.249 65.5673 110.314 65.9924 110.229C68.4679 109.735 67.1315 106.589 67.5002 101.72C67.5002 98.5704 71.2502 98.569 71.2502 101.72C71.2502 112.977 71.7039 113.145 68.0493 116.8C66.2964 118.553 68.9456 121.206 70.701 119.452C75.6266 114.525 75.0002 112.672 75.0002 101.719C75.0002 94.4166 65.7998 93.6237 64.0293 99.672Z" fill="#EE6161"/>
<path d="M48.7501 61.875C51.2291 61.875 51.2326 58.125 48.7501 58.125C46.2711 58.125 46.2676 61.875 48.7501 61.875Z" fill="#EE6161"/>
<path d="M1.87521 75C-0.603779 75 -0.607295 78.75 1.87521 78.75C4.35771 78.75 4.35771 75 1.87521 75Z" fill="#EE6161"/>
<path d="M9.37518 78.75C11.8542 78.75 11.8577 75 9.37518 75C6.89268 75 6.89268 78.75 9.37518 78.75Z" fill="#EE6161"/>
<path d="M16.8751 78.75C19.3541 78.75 19.3576 75 16.8751 75C14.3961 75 14.3926 78.75 16.8751 78.75Z" fill="#EE6161"/>
<path d="M37.5 84.3751C37.5 86.8541 41.25 86.8576 41.25 84.3751C41.25 81.8926 37.5 81.8926 37.5 84.3751Z" fill="#EE6161"/>
<path d="M56.2501 61.875C58.7291 61.875 58.7326 58.125 56.2501 58.125C53.7711 58.125 53.7676 61.875 56.2501 61.875Z" fill="#EE6161"/>
<path d="M80.625 76.875C80.625 74.396 76.875 74.3925 76.875 76.875C76.875 79.3575 80.625 79.3575 80.625 76.875Z" fill="#EE6161"/>
<path d="M73.125 71.2501C73.125 73.729 76.875 73.7326 76.875 71.2501C76.875 68.7676 73.125 68.7676 73.125 71.2501Z" fill="#EE6161"/>
<path d="M67.5 65.6251C67.5 68.1041 71.25 68.1076 71.25 65.6251C71.25 63.1426 67.5 63.1426 67.5 65.6251Z" fill="#EE6161"/>
<path d="M63.7502 63.75C66.2292 63.75 66.2327 60 63.7502 60C61.2677 60 61.2677 63.75 63.7502 63.75Z" fill="#EE6161"/>
<path d="M56.2501 9.375C58.7291 9.375 58.7326 5.625 56.2501 5.625C53.7711 5.625 53.7676 9.375 56.2501 9.375Z" fill="#EE6161"/>
<path d="M15 71.25H31.875C34.3538 71.25 34.3575 67.5 31.875 67.5H15C14.0058 67.4988 13.0527 67.1034 12.3497 66.4004C11.6466 65.6973 11.2512 64.7442 11.25 63.75C11.25 58.7866 18.75 58.793 18.75 63.75C18.75 64.2473 18.9475 64.7242 19.2992 65.0758C19.6508 65.4275 20.1277 65.625 20.625 65.625C24.5641 65.625 22.1484 56.25 15 56.25C13.0109 56.25 11.1032 57.0402 9.6967 58.4467C8.29018 59.8532 7.5 61.7609 7.5 63.75C7.5 65.7391 8.29018 67.6468 9.6967 69.0533C11.1032 70.4598 13.0109 71.25 15 71.25Z" fill="#EE6161"/>
<path d="M31.875 82.5H15C13.5166 82.5 12.0666 82.9399 10.8332 83.764C9.59986 84.5881 8.63856 85.7594 8.07091 87.1299C7.50325 88.5003 7.35472 90.0083 7.64411 91.4632C7.9335 92.918 8.64781 94.2544 9.6967 95.3033C10.7456 96.3522 12.082 97.0665 13.5368 97.3559C14.9917 97.6453 16.4997 97.4968 17.8701 96.9291C19.2406 96.3614 20.4119 95.4002 21.236 94.1668C22.0601 92.9334 22.5 91.4834 22.5 90C22.5 87.5213 18.75 87.5175 18.75 90C18.75 94.9634 11.25 94.957 11.25 90C11.2512 89.0058 11.6466 88.0527 12.3497 87.3496C13.0527 86.6466 14.0058 86.2512 15 86.25H31.875C34.3538 86.25 34.3575 82.5 31.875 82.5Z" fill="#EE6161"/>
<path d="M39.375 75H24.375C21.8962 75 21.8925 78.75 24.375 78.75H39.375C41.8537 78.75 41.8575 75 39.375 75Z" fill="#EE6161"/>
</g>
<defs>
<clipPath id="clip0">
<rect width="120" height="120" fill="white"/>
</clipPath>
</defs>
</svg>
