<svg width="193" height="41" viewBox="0 0 193 41" fill="none" xmlns="http://www.w3.org/2000/svg">
<path d="M59.32 31.36C58.08 31.36 56.92 31.14 55.84 30.7C54.76 30.26 53.82 29.61 53.02 28.75C52.24 27.89 51.62 26.83 51.16 25.57C50.7 24.31 50.47 22.87 50.47 21.25C50.47 19.65 50.7 18.22 51.16 16.96C51.64 15.68 52.28 14.6 53.08 13.72C53.9 12.84 54.85 12.17 55.93 11.71C57.03 11.25 58.2 11.02 59.44 11.02C60.68 11.02 61.78 11.27 62.74 11.77C63.7 12.27 64.49 12.85 65.11 13.51L63.25 15.76C62.73 15.24 62.17 14.83 61.57 14.53C60.97 14.21 60.29 14.05 59.53 14.05C58.73 14.05 57.99 14.22 57.31 14.56C56.65 14.88 56.07 15.35 55.57 15.97C55.09 16.57 54.71 17.31 54.43 18.19C54.17 19.07 54.04 20.06 54.04 21.16C54.04 23.4 54.52 25.16 55.48 26.44C56.46 27.7 57.78 28.33 59.44 28.33C60.32 28.33 61.1 28.15 61.78 27.79C62.46 27.41 63.08 26.92 63.64 26.32L65.5 28.51C64.7 29.43 63.78 30.14 62.74 30.64C61.72 31.12 60.58 31.36 59.32 31.36ZM74.5052 31.36C73.5852 31.36 72.7052 31.19 71.8652 30.85C71.0252 30.51 70.2752 30.01 69.6152 29.35C68.9752 28.69 68.4652 27.88 68.0852 26.92C67.7052 25.96 67.5152 24.87 67.5152 23.65C67.5152 22.43 67.7052 21.34 68.0852 20.38C68.4652 19.42 68.9752 18.61 69.6152 17.95C70.2752 17.29 71.0252 16.79 71.8652 16.45C72.7052 16.09 73.5852 15.91 74.5052 15.91C75.4252 15.91 76.3052 16.09 77.1452 16.45C78.0052 16.79 78.7552 17.29 79.3952 17.95C80.0352 18.61 80.5452 19.42 80.9252 20.38C81.3252 21.34 81.5252 22.43 81.5252 23.65C81.5252 24.87 81.3252 25.96 80.9252 26.92C80.5452 27.88 80.0352 28.69 79.3952 29.35C78.7552 30.01 78.0052 30.51 77.1452 30.85C76.3052 31.19 75.4252 31.36 74.5052 31.36ZM74.5052 28.54C75.5852 28.54 76.4352 28.1 77.0552 27.22C77.6752 26.32 77.9852 25.13 77.9852 23.65C77.9852 22.15 77.6752 20.96 77.0552 20.08C76.4352 19.18 75.5852 18.73 74.5052 18.73C73.4252 18.73 72.5752 19.18 71.9552 20.08C71.3552 20.96 71.0552 22.15 71.0552 23.65C71.0552 25.13 71.3552 26.32 71.9552 27.22C72.5752 28.1 73.4252 28.54 74.5052 28.54ZM84.94 31V16.27H87.79L88.03 18.88H88.15C88.67 17.92 89.3 17.19 90.04 16.69C90.78 16.17 91.54 15.91 92.32 15.91C93.02 15.91 93.58 16.01 94 16.21L93.4 19.21C93.14 19.13 92.9 19.07 92.68 19.03C92.46 18.99 92.19 18.97 91.87 18.97C91.29 18.97 90.68 19.2 90.04 19.66C89.4 20.1 88.85 20.88 88.39 22V31H84.94ZM101.868 31.36C100.948 31.36 100.068 31.19 99.2284 30.85C98.3884 30.51 97.6384 30.01 96.9784 29.35C96.3384 28.69 95.8284 27.88 95.4484 26.92C95.0684 25.96 94.8784 24.87 94.8784 23.65C94.8784 22.43 95.0684 21.34 95.4484 20.38C95.8284 19.42 96.3384 18.61 96.9784 17.95C97.6384 17.29 98.3884 16.79 99.2284 16.45C100.068 16.09 100.948 15.91 101.868 15.91C102.788 15.91 103.668 16.09 104.508 16.45C105.368 16.79 106.118 17.29 106.758 17.95C107.398 18.61 107.908 19.42 108.288 20.38C108.688 21.34 108.888 22.43 108.888 23.65C108.888 24.87 108.688 25.96 108.288 26.92C107.908 27.88 107.398 28.69 106.758 29.35C106.118 30.01 105.368 30.51 104.508 30.85C103.668 31.19 102.788 31.36 101.868 31.36ZM101.868 28.54C102.948 28.54 103.798 28.1 104.418 27.22C105.038 26.32 105.348 25.13 105.348 23.65C105.348 22.15 105.038 20.96 104.418 20.08C103.798 19.18 102.948 18.73 101.868 18.73C100.788 18.73 99.9384 19.18 99.3184 20.08C98.7184 20.96 98.4184 22.15 98.4184 23.65C98.4184 25.13 98.7184 26.32 99.3184 27.22C99.9384 28.1 100.788 28.54 101.868 28.54ZM112.303 31V16.27H115.153L115.393 18.25H115.513C116.173 17.61 116.883 17.06 117.643 16.6C118.423 16.14 119.323 15.91 120.343 15.91C121.923 15.91 123.073 16.42 123.793 17.44C124.513 18.44 124.873 19.88 124.873 21.76V31H121.423V22.21C121.423 20.99 121.243 20.13 120.883 19.63C120.523 19.13 119.933 18.88 119.113 18.88C118.473 18.88 117.903 19.04 117.403 19.36C116.923 19.66 116.373 20.11 115.753 20.71V31H112.303ZM132.66 31.36C131.36 31.36 130.31 30.97 129.51 30.19C128.71 29.39 128.31 28.34 128.31 27.04C128.31 26.26 128.47 25.57 128.79 24.97C129.13 24.35 129.65 23.82 130.35 23.38C131.07 22.94 131.97 22.57 133.05 22.27C134.15 21.97 135.46 21.74 136.98 21.58C136.96 21.2 136.9 20.84 136.8 20.5C136.72 20.14 136.57 19.83 136.35 19.57C136.15 19.29 135.88 19.08 135.54 18.94C135.2 18.78 134.78 18.7 134.28 18.7C133.56 18.7 132.85 18.84 132.15 19.12C131.47 19.4 130.8 19.74 130.14 20.14L128.88 17.83C129.7 17.31 130.62 16.86 131.64 16.48C132.66 16.1 133.76 15.91 134.94 15.91C136.78 15.91 138.15 16.46 139.05 17.56C139.97 18.64 140.43 20.21 140.43 22.27V31H137.58L137.34 29.38H137.22C136.56 29.94 135.85 30.41 135.09 30.79C134.35 31.17 133.54 31.36 132.66 31.36ZM133.77 28.66C134.37 28.66 134.91 28.52 135.39 28.24C135.89 27.96 136.42 27.56 136.98 27.04V23.74C135.98 23.86 135.14 24.02 134.46 24.22C133.78 24.42 133.23 24.65 132.81 24.91C132.39 25.15 132.09 25.43 131.91 25.75C131.73 26.07 131.64 26.41 131.64 26.77C131.64 27.43 131.84 27.91 132.24 28.21C132.64 28.51 133.15 28.66 133.77 28.66ZM152.479 31.36C151.199 31.36 150.029 31.13 148.969 30.67C147.909 30.19 146.999 29.51 146.239 28.63C145.479 27.73 144.889 26.65 144.469 25.39C144.049 24.13 143.839 22.7 143.839 21.1C143.839 19.52 144.049 18.11 144.469 16.87C144.889 15.61 145.479 14.55 146.239 13.69C146.999 12.83 147.909 12.17 148.969 11.71C150.029 11.25 151.199 11.02 152.479 11.02C153.759 11.02 154.929 11.25 155.989 11.71C157.049 12.17 157.959 12.83 158.719 13.69C159.499 14.55 160.099 15.61 160.519 16.87C160.939 18.11 161.149 19.52 161.149 21.1C161.149 22.7 160.939 24.13 160.519 25.39C160.099 26.65 159.499 27.73 158.719 28.63C157.959 29.51 157.049 30.19 155.989 30.67C154.929 31.13 153.759 31.36 152.479 31.36ZM152.479 28.33C153.259 28.33 153.959 28.16 154.579 27.82C155.199 27.48 155.729 27 156.169 26.38C156.609 25.74 156.949 24.98 157.189 24.1C157.429 23.2 157.549 22.2 157.549 21.1C157.549 18.9 157.089 17.18 156.169 15.94C155.269 14.68 154.039 14.05 152.479 14.05C150.919 14.05 149.679 14.68 148.759 15.94C147.859 17.18 147.409 18.9 147.409 21.1C147.409 22.2 147.529 23.2 147.769 24.1C148.009 24.98 148.349 25.74 148.789 26.38C149.229 27 149.759 27.48 150.379 27.82C150.999 28.16 151.699 28.33 152.479 28.33ZM165.764 37.06C165.364 37.06 165.014 37.03 164.714 36.97C164.414 36.93 164.124 36.86 163.844 36.76L164.474 34.06C164.614 34.1 164.774 34.14 164.954 34.18C165.154 34.24 165.344 34.27 165.524 34.27C166.304 34.27 166.924 34.03 167.384 33.55C167.864 33.09 168.224 32.49 168.464 31.75L168.734 30.82L162.944 16.27H166.454L169.004 23.5C169.224 24.14 169.434 24.82 169.634 25.54C169.854 26.24 170.074 26.94 170.294 27.64H170.414C170.594 26.96 170.774 26.27 170.954 25.57C171.154 24.85 171.344 24.16 171.524 23.5L173.744 16.27H177.074L171.734 31.66C171.434 32.5 171.104 33.25 170.744 33.91C170.384 34.57 169.964 35.13 169.484 35.59C169.024 36.07 168.484 36.43 167.864 36.67C167.264 36.93 166.564 37.06 165.764 37.06ZM180.618 37.06C180.218 37.06 179.868 37.03 179.568 36.97C179.268 36.93 178.978 36.86 178.698 36.76L179.328 34.06C179.468 34.1 179.628 34.14 179.808 34.18C180.008 34.24 180.198 34.27 180.378 34.27C181.158 34.27 181.778 34.03 182.238 33.55C182.718 33.09 183.078 32.49 183.318 31.75L183.588 30.82L177.798 16.27H181.308L183.858 23.5C184.078 24.14 184.288 24.82 184.488 25.54C184.708 26.24 184.928 26.94 185.147 27.64H185.268C185.448 26.96 185.628 26.27 185.808 25.57C186.008 24.85 186.198 24.16 186.378 23.5L188.598 16.27H191.928L186.588 31.66C186.288 32.5 185.958 33.25 185.598 33.91C185.238 34.57 184.818 35.13 184.338 35.59C183.878 36.07 183.338 36.43 182.718 36.67C182.118 36.93 181.418 37.06 180.618 37.06Z" fill="black"/>
<path d="M39.9615 20.7472C40.6583 20.8844 41.1122 21.5598 40.9758 22.2558L40.4674 24.8449C40.3268 25.5616 39.6159 26.0212 38.8984 25.8452C38.2263 25.6807 37.8188 24.9937 37.9519 24.315L37.9659 24.2456L34.6146 24.3985C34.5138 24.4027 34.4262 24.4696 34.3948 24.5663C34.0674 25.555 33.6367 26.4974 33.1151 27.3786C33.0622 27.4679 33.0704 27.5811 33.1374 27.6605L34.6196 29.4213C34.9139 29.141 35.2983 28.9956 35.6868 28.9956C36.0142 28.9956 36.3448 29.0989 36.6251 29.3138C37.3038 29.833 37.4327 30.8043 36.9136 31.4838L36.4837 32.0451C35.9795 32.7048 35.0395 32.8817 34.3551 32.4096C33.7657 32.0038 33.5524 31.2738 33.7657 30.6398L31.6304 29.7015C31.5337 29.6594 31.4221 29.6842 31.3518 29.7619C30.3631 30.8473 29.2124 31.7814 27.9377 32.527C27.8501 32.5783 27.803 32.6775 27.8195 32.7775L28.3659 36.1106L28.8388 35.9213C29.5175 35.6501 30.2896 35.9973 30.5318 36.6959C30.7583 37.3497 30.4028 38.0648 29.7605 38.3211L27.3442 39.2882C26.6663 39.5594 25.8942 39.2122 25.652 38.5137C25.4255 37.8598 25.781 37.1447 26.4233 36.8876L26.4886 36.862L24.5394 34.1307C24.4807 34.0481 24.3773 34.0117 24.279 34.0373C23.1142 34.3391 21.8924 34.5011 20.6326 34.5011C19.6356 34.5011 18.6635 34.3994 17.7236 34.2076C17.6244 34.1878 17.5227 34.2299 17.4681 34.3151L15.5181 37.3745L15.5867 37.3993C16.2215 37.6308 16.615 38.2301 16.615 38.8683C16.615 39.0469 16.5844 39.2279 16.52 39.4048C16.52 40.3199 15.8165 40.8126 14.9568 40.4985L12.5603 39.6247C11.7584 39.3329 11.3401 38.4525 11.6171 37.6482C11.9014 36.819 12.8463 36.4007 13.6697 36.7008L13.725 36.7207L14.1218 33.1354C14.1334 33.0346 14.0805 32.9387 13.9904 32.8916C12.4727 32.1079 11.1112 31.0638 9.96458 29.8181C9.89514 29.7429 9.78685 29.7181 9.69261 29.7569L6.7679 30.9564C7.09856 31.5747 6.91257 32.3584 6.30911 32.7552C5.67919 33.1693 4.82856 32.9767 4.3987 32.3584L3.64975 31.2796C3.23064 30.677 3.32818 29.8371 3.90519 29.3824C4.52022 28.898 5.3973 29.0237 5.85775 29.6329L7.91778 27.305C7.98639 27.2273 7.99797 27.1149 7.94754 27.0248C7.10187 25.5005 6.52321 23.8075 6.27439 22.0095C6.26033 21.9086 6.18676 21.8268 6.08839 21.8045L2.79664 21.0439L2.79334 21.43C2.79003 21.816 2.63131 22.1657 2.37588 22.4179C2.12127 22.6708 1.77076 22.8262 1.38389 22.8262C0.615098 22.8262 -0.0073739 22.1988 6.60046e-05 21.43L0.0215591 19.0385C0.0281723 18.2565 0.674617 17.5976 1.45581 17.6183C2.21385 17.6381 2.81896 18.2614 2.81483 19.0219L6.0826 18.2556C6.1818 18.2325 6.25537 18.1507 6.2686 18.0498C6.52486 16.1485 7.15064 14.3637 8.07071 12.7699C8.12196 12.6807 8.11287 12.5691 8.04591 12.4897L6.48766 10.6595L6.35209 10.838C5.93215 11.3936 5.13029 11.4903 4.58883 11.0398C4.08127 10.6165 4.01927 9.85763 4.41772 9.33105L5.456 7.95881C5.69738 7.64054 6.06359 7.47273 6.43476 7.47273C6.69185 7.47273 6.95142 7.55374 7.17296 7.72073C7.68632 8.10843 7.80701 8.82101 7.46808 9.35503L9.64714 10.2974C9.74304 10.3387 9.85381 10.3139 9.9249 10.2371C10.9533 9.10951 12.1577 8.14563 13.4952 7.38759C13.5829 7.33716 13.6316 7.23879 13.6167 7.13876L13.115 3.79824L12.6388 3.98176C11.9576 4.24381 11.1897 3.88587 10.9574 3.18487C10.7392 2.52767 11.1045 1.81758 11.7502 1.56958L14.1789 0.635458C14.8609 0.373408 15.628 0.730523 15.8603 1.43235C16.0785 2.08872 15.714 2.79882 15.0675 3.04764L15.0022 3.07244L16.9135 5.82851C16.9713 5.912 17.0738 5.95003 17.1722 5.92606C18.2816 5.65409 19.4397 5.51025 20.6326 5.51025H20.6342C20.7384 5.51025 20.8318 5.4466 20.8665 5.34822L21.4997 3.57753C20.7665 3.34772 20.2779 2.62439 20.3714 1.83576C20.478 0.942147 21.3336 0.307275 22.2272 0.4197L23.0968 0.528819C23.983 0.640418 24.6476 1.43401 24.5509 2.32266C24.4749 3.01457 23.9772 3.55355 23.3457 3.71889L23.5656 5.63838C23.5771 5.74171 23.654 5.82603 23.7565 5.84835C25.2263 6.17157 26.6126 6.71799 27.8774 7.44958C27.9658 7.50001 28.075 7.49257 28.1535 7.42809L30.7765 5.29945L30.378 4.98284C29.8052 4.52818 29.7241 3.68582 30.2102 3.12948C30.6649 2.60786 31.4626 2.56157 32.0041 2.99225L34.0418 4.61002C34.6146 5.06385 34.6957 5.90704 34.2096 6.46338C33.7549 6.98418 32.9572 7.03047 32.4157 6.60061L32.3603 6.5568L30.9559 9.60633C30.9129 9.69809 30.9327 9.80638 31.0038 9.87913C31.9925 10.8918 32.834 12.0491 33.4937 13.3155C33.5416 13.4073 33.6417 13.4594 33.7442 13.4453L35.7356 13.1667C35.443 12.35 35.8769 11.4448 36.7119 11.1712C37.5079 10.91 38.366 11.3522 38.6586 12.1376L39.1174 13.3676C39.4068 14.1455 39.0596 15.0358 38.299 15.3665C37.5699 15.6831 36.7474 15.3971 36.3556 14.7506L34.7031 15.8716C34.6163 15.9303 34.5774 16.0377 34.6055 16.1386C34.9453 17.3703 35.1272 18.6665 35.1272 20.0057C35.1272 20.2297 35.1222 20.4521 35.1115 20.6728C35.1073 20.7745 35.1644 20.8679 35.257 20.9084L38.3553 22.2616L38.4528 21.7615C38.59 21.0646 39.2654 20.6108 39.9615 20.7472Z" fill="#F79595"/>
<path d="M26.9267 14.5802C28.0569 14.5802 28.9732 13.8141 28.9732 12.8691C28.9732 11.9241 28.0569 11.158 26.9267 11.158C25.7965 11.158 24.8802 11.9241 24.8802 12.8691C24.8802 13.8141 25.7965 14.5802 26.9267 14.5802Z" fill="#EE6161"/>
<path d="M19.5417 25.7617C20.777 25.7617 21.7785 24.7602 21.7785 23.5248C21.7785 22.2894 20.777 21.288 19.5417 21.288C18.3063 21.288 17.3048 22.2894 17.3048 23.5248C17.3048 24.7602 18.3063 25.7617 19.5417 25.7617Z" fill="#EE6161"/>
<path d="M28.2593 23.9611C29.1438 23.9611 29.8608 23.244 29.8608 22.3595C29.8608 21.475 29.1438 20.7579 28.2593 20.7579C27.3748 20.7579 26.6577 21.475 26.6577 22.3595C26.6577 23.244 27.3748 23.9611 28.2593 23.9611Z" fill="#F9B1B1"/>
<path d="M22.3444 31.7325C23.2043 31.7325 23.9015 31.0353 23.9015 30.1754C23.9015 29.3154 23.2043 28.6183 22.3444 28.6183C21.4844 28.6183 20.7873 29.3154 20.7873 30.1754C20.7873 31.0353 21.4844 31.7325 22.3444 31.7325Z" fill="#F9B1B1"/>
<path d="M11.8174 19.3115C11.8174 13.7391 14.4757 8.78656 18.5916 5.65279C18.111 5.72058 17.6366 5.81217 17.1722 5.92608C17.0738 5.95006 16.9713 5.91203 16.9135 5.82854L15.0022 3.07247L15.0675 3.04767C15.714 2.79884 16.0785 2.08874 15.8603 1.43238C15.628 0.730549 14.8609 0.373433 14.1789 0.635483L11.7502 1.5696C11.1045 1.8176 10.7392 2.5277 10.9574 3.18489C11.1897 3.8859 11.9576 4.24384 12.6388 3.98179L13.115 3.79827L13.6167 7.13879C13.6316 7.23881 13.5829 7.33718 13.4952 7.38761C12.1577 8.14565 10.9533 9.10954 9.9249 10.2371C9.85381 10.314 9.74304 10.3388 9.64714 10.2974L7.46808 9.35505C7.80701 8.82103 7.68632 8.10846 7.17296 7.72075C6.95142 7.55377 6.69185 7.47276 6.43476 7.47276C6.06359 7.47276 5.69738 7.64057 5.456 7.95883L4.41772 9.33108C4.01927 9.85766 4.08127 10.6165 4.58883 11.0398C5.13029 11.4903 5.93215 11.3936 6.35209 10.8381L6.48766 10.6595L8.04591 12.4897C8.11287 12.5691 8.12196 12.6807 8.07071 12.77C7.15064 14.3638 6.52486 16.1485 6.2686 18.0498C6.25537 18.1507 6.1818 18.2325 6.0826 18.2557L2.81483 19.022C2.81896 18.2614 2.21385 17.6381 1.45581 17.6183C0.674617 17.5976 0.0281723 18.2565 0.0215591 19.0385L6.60046e-05 21.43C-0.0073739 22.1988 0.615098 22.8262 1.38389 22.8262C1.77076 22.8262 2.12127 22.6708 2.37588 22.4179C2.63131 22.1657 2.79003 21.8161 2.79334 21.43L2.79664 21.044L6.08839 21.8045C6.18676 21.8268 6.26033 21.9087 6.27439 22.0095C6.52321 23.8075 7.10187 25.5005 7.94754 27.0248C7.99796 27.1149 7.98639 27.2274 7.91778 27.3051L5.85775 29.6329C5.3973 29.0237 4.52022 28.898 3.90519 29.3825C3.32818 29.8371 3.23064 30.677 3.64975 31.2796L4.3987 32.3584C4.82856 32.9768 5.67919 33.1694 6.30911 32.7552C6.91256 32.3584 7.09856 31.5747 6.7679 30.9564L9.69261 29.7569C9.78685 29.7181 9.89514 29.7429 9.96458 29.8181C11.1112 31.0639 12.4727 32.1079 13.9904 32.8916C14.0805 32.9387 14.1334 33.0346 14.1218 33.1355L13.725 36.7207L13.6697 36.7008C12.8463 36.4008 11.9014 36.819 11.6171 37.6482C11.3401 38.4525 11.7584 39.3329 12.5603 39.6247L14.9568 40.4985C15.8165 40.8126 16.52 40.3199 16.52 39.4048C16.5844 39.2279 16.615 39.0469 16.615 38.8683C16.615 38.2302 16.2215 37.6308 15.5867 37.3994L15.5181 37.3746L17.4681 34.3151C17.5227 34.23 17.6244 34.1878 17.7236 34.2076C18.6635 34.3994 19.6356 34.5011 20.6326 34.5011C20.7499 34.5011 20.8691 34.4996 20.9857 34.4969C15.5358 31.623 11.8174 25.9009 11.8174 19.3115Z" fill="#F37C7C"/>
<path d="M12.6014 28.0727C13.4972 28.0727 14.2234 27.3465 14.2234 26.4507C14.2234 25.5548 13.4972 24.8286 12.6014 24.8286C11.7055 24.8286 10.9793 25.5548 10.9793 26.4507C10.9793 27.3465 11.7055 28.0727 12.6014 28.0727Z" fill="#EE6161"/>
<path d="M24.6062 19.3114H24.0582C23.7157 19.3114 23.4382 19.0339 23.4382 18.6915C23.4382 18.3491 23.7157 18.0715 24.0582 18.0715H24.6062C24.9487 18.0715 25.2262 18.3491 25.2262 18.6915C25.2262 19.0339 24.9487 19.3114 24.6062 19.3114Z" fill="#F9B1B1"/>
<path d="M17.3047 30.1489H16.7416C16.3991 30.1489 16.1216 29.8713 16.1216 29.5289C16.1216 29.1865 16.3991 28.9089 16.7416 28.9089H17.3047C17.6472 28.9089 17.9247 29.1865 17.9247 29.5289C17.9247 29.8713 17.6472 30.1489 17.3047 30.1489Z" fill="#F9B1B1"/>
<path d="M11.5216 21.12H10.9792C10.6367 21.12 10.3592 20.8424 10.3592 20.5C10.3592 20.1576 10.6367 19.88 10.9792 19.88H11.5216C11.8641 19.88 12.1416 20.1576 12.1416 20.5C12.1416 20.8424 11.8641 21.12 11.5216 21.12Z" fill="#EE6161"/>
<path d="M22.5333 10.2728H21.7784C21.4359 10.2728 21.1584 9.99523 21.1584 9.65283C21.1584 9.31043 21.4359 9.03284 21.7784 9.03284H22.5333C22.8758 9.03284 23.1533 9.31043 23.1533 9.65283C23.1533 9.99523 22.8758 10.2728 22.5333 10.2728Z" fill="#F9B1B1"/>
<path d="M27.4914 28.1306H26.6578C26.3153 28.1306 26.0378 27.853 26.0378 27.5106C26.0378 27.1682 26.3153 26.8906 26.6578 26.8906H27.4914C27.8339 26.8906 28.1114 27.1682 28.1114 27.5106C28.1114 27.853 27.8338 28.1306 27.4914 28.1306Z" fill="#EE6161"/>
<path d="M18.0349 17.3758C19.8862 15.916 20.3986 13.4793 19.1795 11.9332C17.9603 10.3872 15.4713 10.3172 13.6201 11.777C11.7689 13.2367 11.2564 15.6734 12.4756 17.2195C13.6947 18.7656 16.1837 18.8355 18.0349 17.3758Z" fill="#EE6161"/>
</svg>
