<svg width="120" height="120" viewBox="0 0 120 120" fill="none" xmlns="http://www.w3.org/2000/svg">
<path d="M76.8722 52.1641C74.393 52.1641 74.3899 55.9141 76.8722 55.9141C83.0702 55.9141 86.2472 50.9831 86.2472 44.6641C86.2472 32.7797 73.1222 32.8066 73.1222 42.7891C73.1222 45.2679 76.8722 45.2718 76.8722 42.7891C76.8722 37.6563 82.4972 37.9469 82.4972 44.6641C82.4972 46.9193 81.949 52.1641 76.8722 52.1641Z" fill="#EE6161"/>
<path d="M80.6222 90C77.1424 90.0039 73.8063 91.388 71.3457 93.8485C68.8852 96.3091 67.5011 99.6452 67.4972 103.125V118.125C67.4972 120.604 71.2472 120.608 71.2472 118.125V103.125C71.2472 100.639 72.2349 98.254 73.9931 96.4959C75.7512 94.7377 78.1358 93.75 80.6222 93.75C83.1086 93.75 85.4932 94.7377 87.2513 96.4959C89.0095 98.254 89.9972 100.639 89.9972 103.125V118.125C89.9972 120.604 93.7472 120.608 93.7472 118.125V103.125C93.7433 99.6452 92.3592 96.3091 89.8987 93.8485C87.4381 91.388 84.102 90.0039 80.6222 90Z" fill="#EE6161"/>
<path d="M31.875 63.75H35.6222C38.1014 63.75 38.1045 60 35.6222 60H31.875C31.3777 60 30.9008 60.1975 30.5492 60.5492C30.1975 60.9008 30 61.3777 30 61.875C30 62.3723 30.1975 62.8492 30.5492 63.2008C30.9008 63.5525 31.3777 63.75 31.875 63.75Z" fill="#EE6161"/>
<path d="M41.2472 75V78.75C41.2472 81.2287 44.9972 81.2325 44.9972 78.75V75C44.9972 72.5212 41.2472 72.5175 41.2472 75Z" fill="#EE6161"/>
<path d="M32.4214 71.7991C32.1602 72.0617 31.9825 72.3958 31.9107 72.7591C31.8389 73.1225 31.8763 73.499 32.018 73.8412C32.1598 74.1834 32.3996 74.4761 32.7073 74.6823C33.015 74.8885 33.3768 74.999 33.7472 75C35.0773 75 35.3904 73.912 38.8233 70.7008C40.576 68.9479 37.9273 66.2945 36.1714 68.0491L32.4214 71.7991Z" fill="#EE6161"/>
<path d="M33.75 80.625C32.2587 80.6267 30.829 81.2199 29.7745 82.2744C28.7199 83.329 28.1268 84.7587 28.125 86.25V90.4812C28.125 92.0534 25.9057 92.4124 25.4088 90.9218L22.5764 82.425L24.8297 73.4116C25.0608 72.4877 25.0783 71.5233 24.8808 70.5916C24.6833 69.6599 24.276 68.7855 23.6899 68.0348C23.1038 67.2841 22.3542 66.6769 21.4983 66.2594C20.6423 65.8418 19.7024 65.6249 18.75 65.625C16.4349 65.625 17.0942 67.7735 11.3695 81.8416C10.9945 82.8398 11.209 82.0502 16.875 107.089V118.125C16.875 118.622 17.0726 119.099 17.4242 119.451C17.7758 119.802 18.2527 120 18.75 120C19.2473 120 19.7242 119.802 20.0758 119.451C20.4275 119.099 20.625 118.622 20.625 118.125V106.875C20.625 106.471 20.9044 107.947 15.0792 82.6291L19.9383 69.6713C20.4328 69.936 20.8247 70.3584 21.0518 70.8712C21.2789 71.3841 21.3283 71.9582 21.192 72.5023C18.8248 82.3765 18.5435 82.182 18.8461 83.093L21.851 92.1075C23.6888 97.6207 31.875 96.2934 31.875 90.4812V86.25C31.875 83.7684 35.625 83.7715 35.625 86.25C35.4003 88.057 36.9731 96.9523 30.375 105.75C29.6297 106.744 30.1444 106.785 30.871 118.269C31.0615 120.744 34.8 120.453 34.6099 117.981L33.7969 107.422C40.7501 97.6641 39.1538 88.0547 39.375 86.25C39.3733 84.7587 38.7801 83.329 37.7256 82.2744C36.6711 81.2199 35.2413 80.6267 33.75 80.625Z" fill="#EE6161"/>
<path d="M107.325 38.7954C109.518 29.4726 109.189 21.0283 106.399 15.0173C104.255 10.4001 100.8 7.6064 96.5888 7.04319C92.4565 -0.726572 83.2266 -0.751884 74.5849 0.829913C72.1423 1.27687 72.8229 4.9664 75.2602 4.51851C94.4222 1.01015 91.9667 10.5722 95.2969 10.6933C99.4669 10.8448 101.786 13.987 102.997 16.5963C105.4 21.7727 105.647 29.5509 103.674 37.9366C101.427 47.493 96.4967 57.4343 89.3876 66.7669C86.1572 65.3456 83.6304 63.3708 81.69 60.7572C80.2135 58.7669 77.1994 60.9994 78.6792 62.9927C81.0335 66.1638 84.2079 68.6161 88.1224 70.3008V77.6205C84.7709 79.3465 73.2197 84.9248 61.9556 86.0498C67.485 78.1312 64.9585 85.0748 65.6224 71.25C65.6225 70.965 65.5575 70.6838 65.4325 70.4277C65.3076 70.1716 65.1259 69.9474 64.9013 69.772C63.6483 68.7937 62.9091 69.7568 54.8991 71.5298C53.8468 71.7944 52.7383 71.7266 51.7261 71.3357C50.7139 70.9448 49.8476 70.25 49.2462 69.3469C51.4416 67.9251 55.1381 67.4461 54.2667 64.9969C52.9142 61.193 51.5642 58.5222 45.8628 58.8579C44.9253 56.1347 45.0935 55.2619 44.1049 54.6537L39.7924 52.0001C44.4835 45.7645 44.9967 45.7891 44.9967 44.6641V34.3664C50.854 36.6012 55.9186 35.1368 69.3717 35.625C71.851 35.625 71.854 31.875 69.3717 31.875H51.9975C51.646 31.6268 37.0285 33.4167 35.7028 11.3723C41.4286 14.3489 50.9304 11.0892 60.9989 8.1614C63.3802 7.46272 62.3229 3.86741 59.9442 4.5628C48.9722 8.00108 38.2071 11.1321 35.4706 6.31757C34.6835 4.62374 32.0696 5.04562 31.9278 7.03241C31.3151 15.5538 33.8353 27.1073 41.2481 32.3655V44.0226L35.5495 51.3499C35.3878 51.5579 35.2716 51.7977 35.2087 52.0535C35.1459 52.3094 35.1376 52.5757 35.1845 52.835C35.2315 53.0943 35.3325 53.3408 35.4811 53.5584C35.6297 53.776 35.8225 53.9599 36.0469 54.0979L41.5324 57.473C42.4385 59.5732 42.292 63.0958 44.7806 62.7372C48.896 62.144 49.5188 63.1615 50.1579 64.6997C47.6991 66.2604 44.28 66.6328 44.9953 69.0164C45.6585 71.2373 47.1531 73.1165 49.1678 74.2625C51.1824 75.4084 53.5616 75.7326 55.8094 75.1676L61.8731 73.6516V79.9343C53.6988 89.7483 46.8731 104.39 46.8731 118.125C46.8731 120.604 50.6231 120.608 50.6231 118.125C50.6231 106.875 55.3411 96.6733 59.4 89.9782C71.9281 89.573 85.1016 83.3824 89.4469 81.1617C107.25 105.727 97.6139 120 103.122 120C103.619 120 104.096 119.802 104.448 119.451C104.8 119.099 104.997 118.622 104.997 118.125C104.997 104.391 102.789 92.8746 91.8722 78.1282V69.6848C99.5651 59.7511 104.905 49.083 107.325 38.7954Z" fill="#EE6161"/>
<path d="M69.375 3.74996C69.375 1.27098 65.625 1.26746 65.625 3.74996C65.625 6.23246 69.375 6.23246 69.375 3.74996Z" fill="#EE6161"/>
</svg>
