<svg width="120" height="120" viewBox="0 0 120 120" fill="none" xmlns="http://www.w3.org/2000/svg">
<g clip-path="url(#clip0)">
<path d="M36.5413 108.24C36.2673 107.309 35.2897 106.776 34.3588 107.05C33.4274 107.324 32.8946 108.301 33.1686 109.233C34.813 114.821 36.3533 118.726 36.4182 118.889C36.6917 119.579 37.3531 120 38.0527 120C38.2681 120 38.4873 119.96 38.6996 119.876C39.6022 119.519 40.044 118.497 39.6868 117.595C39.6716 117.556 38.1374 113.665 36.5413 108.24Z" fill="#EE6161"/>
<path d="M56.2227 62.2491C54.696 62.3088 53.163 61.8652 51.906 60.9966C51.1073 60.4448 50.0123 60.6448 49.4605 61.4433C48.9086 62.242 49.1087 63.3368 49.9073 63.8888C51.6733 65.1094 53.8035 65.7701 55.9483 65.7701C56.0861 65.7701 56.2246 65.7673 56.3627 65.7619C57.3327 65.7232 58.0877 64.9055 58.049 63.9354C58.0103 62.9653 57.1912 62.2123 56.2227 62.2491Z" fill="#EE6161"/>
<path d="M70.1586 58.3033L65.1195 53.9214C64.3871 53.2847 63.2766 53.3618 62.6396 54.0944C62.0026 54.8268 62.0801 55.9373 62.8126 56.5743L67.8516 60.9562C68.1844 61.2457 68.5953 61.3875 69.0043 61.3875C69.4953 61.3875 69.984 61.1829 70.3316 60.783C70.9686 60.0508 70.891 58.9406 70.1586 58.3033Z" fill="#EE6161"/>
<path d="M50.6256 50.6083C50.4798 49.6485 49.5838 48.9892 48.6236 49.1348L42.022 50.139C41.0622 50.2851 40.4024 51.1813 40.5484 52.1411C40.6806 53.0113 41.4299 53.6347 42.284 53.6347C42.3719 53.6347 42.4609 53.6282 42.5505 53.6146L49.1521 52.6103C50.1121 52.4645 50.7716 51.5683 50.6256 50.6083Z" fill="#EE6161"/>
<path d="M51.494 70.4805C49.3098 69.847 47.0739 70.0704 45.513 71.0779C44.6976 71.6046 44.4632 72.6926 44.9901 73.5082C45.5167 74.3236 46.6049 74.5579 47.4203 74.0311C47.9488 73.6901 49.0764 73.4395 50.5143 73.8567C51.9524 74.2741 52.7706 75.089 53.0341 75.66C53.331 76.3029 53.9666 76.6814 54.6311 76.6814C54.8777 76.6814 55.1282 76.6291 55.3668 76.5192C56.2483 76.1123 56.6329 75.0679 56.226 74.1865C55.4472 72.4999 53.6784 71.1148 51.494 70.4805Z" fill="#EE6161"/>
<path d="M118.51 32.2274C118.521 29.5494 116.068 27.3381 111.013 25.4673C106.955 23.9658 101.31 22.6969 94.2313 21.6912C92.5334 18.5187 90.1779 15.6187 87.0537 13.2581C86.2791 12.6728 85.1768 12.8266 84.5916 13.6007C84.0063 14.3753 84.1598 15.4776 84.9342 16.0629C92.1509 21.5154 94.8085 30.8734 94.1581 39.1221C90.2438 39.6745 85.8499 40.1314 81.03 40.4553C78.3236 38.1462 75.2277 37.1334 71.9834 36.0736C66.019 34.1247 59.8549 32.1044 53.8405 21.6073L55.4368 12.8399C62.088 9.23005 70.1452 9.0538 78.2221 12.3637C79.1205 12.7319 80.1471 12.3018 80.5153 11.4037C80.8835 10.5053 80.4536 9.47872 79.5553 9.11052C70.7274 5.4929 61.5096 5.68345 54.0524 9.59404C52.7867 8.64036 51.38 7.93886 49.7844 7.46261C47.4242 6.7583 44.9916 6.56541 42.6105 6.86096C36.0986 3.8478 29.6867 1.5291 25.3174 0.600731C19.8921 -0.568814 16.5625 -0.0351363 15.1386 2.232C14.1364 3.82811 14.3343 5.95861 15.7267 8.56465C16.1842 9.42083 17.2492 9.74428 18.1054 9.28654C18.9616 8.82903 19.2848 7.76402 18.8273 6.90784C17.988 5.33704 17.9193 4.41453 18.1157 4.10187C18.6508 3.25037 23.3421 2.42185 37.3501 8.37363C36.9937 8.53911 36.6395 8.71208 36.291 8.90216C33.7147 10.3068 30.5073 12.857 27.9589 17.4394C26.314 15.9176 24.8313 14.452 23.5401 13.0638C22.879 12.3529 21.7666 12.3126 21.0557 12.9738C20.3449 13.6349 20.3046 14.7473 20.9657 15.4582C22.5398 17.1506 24.3579 18.9314 26.3841 20.7753C26.2071 21.2201 26.0367 21.6802 25.8729 22.1546C13.0787 24.4789 6.58362 27.7119 6.56792 31.7695C6.55386 35.4548 11.4838 38.3686 21.6178 40.6538C20.5961 41.6054 19.8269 42.8321 19.4055 44.2838C17.7599 49.9553 20.8476 55.894 26.3299 57.8498C26.5751 59.801 27.1006 61.8209 27.9413 64.1811C30.5839 71.6001 34.2158 77.5512 38.4203 81.5464L37.8229 86.6649L32.3706 88.3079C32.037 87.7318 31.5765 87.2291 31.01 86.8386C29.863 86.0485 28.4407 85.8256 27.1071 86.2274L18.7504 88.7443C15.505 89.6176 11.2508 92.2844 8.78021 95.1126C6.13385 98.1059 4.37039 101.793 3.68132 105.766L1.51755 117.934C1.34762 118.89 1.98466 119.803 2.94045 119.973C3.04452 119.991 3.14811 120 3.2503 120C4.08609 120 4.82743 119.401 4.97884 118.55L7.14402 106.374C7.72199 103.04 9.19482 99.9558 11.4041 97.4527C13.6363 95.1129 16.2278 93.1877 19.7646 92.1105L28.1211 89.5935C28.5392 89.4676 28.8608 89.6275 29.0152 89.7337C29.1697 89.8398 29.4333 90.0836 29.4645 90.5198C29.6954 93.7343 30.2455 97.3357 31.0998 101.224C31.3081 102.172 32.2463 102.773 33.1939 102.564C34.142 102.355 34.7418 101.418 34.5336 100.47C33.8462 97.3406 33.3681 94.4205 33.1025 91.7591L37.6157 90.399C37.7997 92.568 38.609 94.6479 39.9562 96.3229C42.0302 98.9011 46.0388 101.975 53.3586 101.975C60.6792 101.975 64.688 98.9006 66.7617 96.322C68.1221 94.6307 68.9344 92.5267 69.1079 90.3355L73.6306 91.7097C73.3613 94.8098 72.8483 99.0249 71.8693 103.531L69.6994 111.354C68.9272 113.573 68.055 115.616 67.1072 117.427C66.657 118.287 66.9893 119.349 67.8493 119.799C68.1094 119.936 68.3883 120 68.663 120C69.2963 120 69.9078 119.657 70.2219 119.057C71.2573 117.079 72.2052 114.857 73.0391 112.454C73.0513 112.419 73.0623 112.383 73.0721 112.348L75.2704 104.423C75.2793 104.391 75.287 104.359 75.294 104.327C76.4858 98.8566 77.0169 93.7992 77.2525 90.5195C77.2837 90.0833 77.5476 89.8398 77.7018 89.7334C77.856 89.627 78.1776 89.4672 78.5959 89.5933L86.952 92.1102C93.5567 94.1015 98.3927 99.5672 99.5742 106.382L101.738 118.55C101.908 119.506 102.822 120.142 103.777 119.973C104.732 119.802 105.369 118.89 105.199 117.934L103.037 105.774C101.628 97.6474 95.8534 91.1221 87.9661 88.7441L79.6096 86.2271C78.2763 85.8256 76.8538 86.0483 75.707 86.8384C75.1557 87.2181 74.7057 87.7046 74.3746 88.2613L68.8868 86.5942L68.3637 82.0993C70.471 80.8615 72.5966 79.4119 74.7165 77.7537C76.6916 76.2086 78.2179 74.7843 79.4692 73.2698C80.2811 73.4535 81.1017 73.5464 81.9189 73.5464C83.768 73.5464 85.5977 73.0792 87.263 72.1612C89.862 70.7282 91.7492 68.3682 92.5768 65.5156C92.9945 64.0763 92.9999 62.6466 92.6408 61.3111C94.3893 61.928 96.0336 62.4476 97.5522 62.8571C100.359 63.6141 102.7 63.9934 104.592 63.9934C107.238 63.9934 109.005 63.2515 109.939 61.7642C111.256 59.6672 110.535 56.7619 107.734 52.8822C105.524 49.8203 102.08 46.2132 97.4985 42.1568C107.168 40.5816 114.184 38.3011 116.934 35.579C117.975 34.5494 118.505 33.4218 118.51 32.2274ZM86.8512 53.8889C86.9974 50.4426 85.9374 46.7591 83.9405 43.756C87.361 43.4818 90.6111 43.137 93.6488 42.7283C93.489 43.5024 93.3017 44.2601 93.0817 44.9928C91.7511 49.4193 89.4704 52.6138 86.8512 53.8889ZM70.8915 39.4156C72.2553 39.8611 73.5489 40.2842 74.7618 40.7892C70.1673 40.9737 64.9952 41.041 59.9301 40.9615C59.2054 40.5157 58.4809 40.0671 57.7572 39.6127C53.4517 36.9091 49.2877 34.1224 45.3736 31.3398C47.9963 29.7979 50.0663 27.5729 51.8701 25.156C58.2763 35.2936 65.2289 37.5654 70.8915 39.4156ZM30.3697 38.3468C28.9318 37.3134 28.3151 35.3299 28.0536 33.6932C27.634 31.0696 27.8888 27.6639 28.7185 24.8049C28.8706 24.2804 29.0377 23.7727 29.2116 23.2728C31.9449 25.6199 34.9794 28.0475 38.2551 30.5094C34.8072 32.429 31.812 36.2805 30.3697 38.3468ZM41.3981 32.9812C41.4492 32.9681 41.4977 32.9517 41.5483 32.9383C45.1523 35.5455 49.0015 38.1736 53.026 40.7689C46.2708 40.4939 39.8606 39.9724 34.0815 39.2297C35.9521 36.7767 38.834 33.6358 41.3981 32.9812ZM37.9738 11.9889C41.3229 10.1626 45.1599 9.75154 48.7789 10.8318C49.9662 11.1859 51.0073 11.7079 51.9416 12.411L50.3335 21.2414C47.855 24.8966 45.4338 27.6543 42.1694 29.0218C37.9173 25.8899 34.0262 22.7947 30.6589 19.8612C32.4739 16.3195 34.9501 13.6375 37.9738 11.9889ZM10.0836 31.7828C10.0862 31.1249 12.68 28.3375 24.8348 25.9295C24.2812 28.7488 24.1802 31.7355 24.582 34.2482C24.8013 35.6203 25.1702 36.8433 25.672 37.9048C13.9822 35.7761 9.89327 32.6901 10.0836 31.7828ZM22.7817 45.2633C23.516 42.6521 26.3077 41.6185 28.7532 42.0136C27.2989 47.0978 26.4019 50.668 26.2076 53.9294C23.2957 52.2079 21.7947 48.665 22.7817 45.2633ZM65.5763 88.559C65.8106 90.573 65.2441 92.5994 64.0221 94.1191C61.706 96.9989 58.1181 98.4593 53.3584 98.4593C48.5991 98.4593 45.0115 96.9994 42.6954 94.1198C41.4729 92.5999 40.9066 90.5727 41.1414 88.5578L41.6554 84.1543C43.3104 85.2634 45.0293 86.0895 46.7925 86.6012C48.394 87.0657 50.1019 87.2945 51.894 87.2945C55.9375 87.2945 60.4068 86.1301 65.0325 83.8878L65.5763 88.559ZM72.5509 74.9845C63.4066 82.137 54.3758 85.141 47.7722 83.2245C41.1696 81.3087 35.1486 73.9375 31.253 63.0012C28.7691 56.0278 29.3982 52.4934 32.2613 42.5342C40.1685 43.6158 49.2997 44.2791 58.9091 44.4598C62.2533 46.5008 65.599 48.4461 68.8915 50.2612C69.1606 50.4095 69.4517 50.4801 69.7386 50.4801C70.3583 50.4801 70.9592 50.1517 71.2796 49.5707C71.7484 48.7206 71.4392 47.6514 70.5889 47.1826C69.0221 46.3187 67.4426 45.4248 65.857 44.5051C70.6599 44.4762 75.3036 44.3213 79.7102 44.0534C79.8318 44.1828 79.953 44.3124 80.0714 44.45C82.2297 46.9599 83.4483 50.4969 83.336 53.6709C81.5193 52.8297 79.6408 51.921 77.7072 50.9448C76.8409 50.5073 75.7834 50.8553 75.3458 51.7216C74.9082 52.5883 75.2561 53.6453 76.1226 54.0829C78.3686 55.2171 80.545 56.2626 82.6418 57.2198C79.6867 67.3175 78.4103 70.4015 72.5509 74.9845ZM89.2008 64.5359C88.6343 66.4876 87.3436 68.1022 85.5659 69.0822C84.356 69.7492 83.0189 70.067 81.6745 70.0241C83.2509 67.1776 84.3987 63.7018 85.8823 58.6624C87.9992 59.6735 90.0125 61.7384 89.2008 64.5359ZM106.962 59.8943C106.616 60.4442 104.397 61.0615 98.4679 59.4626C95.8668 58.7611 92.8731 57.7223 89.5777 56.3878C92.5632 54.4422 94.9965 50.8356 96.4485 46.0046C96.4536 45.987 96.4586 45.9692 96.464 45.9519C106.401 55.0066 107.437 59.1377 106.962 59.8943ZM114.461 33.0801C112.466 35.0547 106.611 37.0673 97.7338 38.569C97.9813 34.3014 97.4512 29.7611 95.9183 25.4966C111.484 27.9383 114.998 31.1305 114.994 32.2129C114.993 32.4299 114.799 32.7461 114.461 33.0801Z" fill="#EE6161"/>
</g>
<defs>
<clipPath id="clip0">
<rect width="120" height="120" fill="white"/>
</clipPath>
</defs>
</svg>
