<svg width="120" height="120" viewBox="0 0 120 120" fill="none" xmlns="http://www.w3.org/2000/svg">
<g clip-path="url(#clip0)">
<path d="M118.575 38.7953C120.768 29.4726 120.439 21.0283 117.649 15.0173C115.505 10.4001 112.05 7.60637 107.839 7.04316C103.708 -0.724259 94.4794 -0.752618 85.8349 0.829881C83.3974 1.27519 84.0689 4.9673 86.5102 4.51848C105.653 1.0148 103.25 10.5733 106.547 10.6933C110.717 10.8447 113.036 13.987 114.247 16.5963C116.65 21.7727 116.897 29.5509 114.924 37.9366C112.676 47.493 107.747 57.4343 100.638 66.7668C97.4072 65.3456 94.8804 63.3707 92.94 60.7572C91.4634 58.7669 88.4494 60.9993 89.9292 62.9927C92.284 66.1645 95.4593 68.6177 99.3745 70.3019C99.4957 78.8156 99.0933 79 99.7495 79.875C118.812 105.291 108.788 120 114.375 120C114.872 120 115.349 119.802 115.701 119.451C116.052 119.099 116.25 118.622 116.25 118.125C116.25 104.391 114.042 92.8746 103.125 78.1282V69.6813C110.816 59.7485 116.155 49.0818 118.575 38.7953Z" fill="#EE6161"/>
<path d="M88.125 52.1641C85.6458 52.1641 85.6428 55.9141 88.125 55.9141C100.492 55.9141 100.011 35.504 90.5461 35.504C84.4231 35.504 82.4951 44.6641 86.25 44.6641C86.7473 44.6641 87.2242 44.4666 87.5759 44.1149C87.9275 43.7633 88.125 43.2864 88.125 42.7891C88.125 37.6488 93.75 37.9598 93.75 44.6641C93.75 46.9193 93.2018 52.1641 88.125 52.1641Z" fill="#EE6161"/>
<path d="M91.875 90C88.3952 90.0039 85.0591 91.388 82.5985 93.8485C80.138 96.3091 78.7539 99.6452 78.75 103.125V118.125C78.75 120.604 82.5 120.608 82.5 118.125V103.125C82.5 100.639 83.4877 98.254 85.2459 96.4959C87.004 94.7377 89.3886 93.75 91.875 93.75C94.3614 93.75 96.746 94.7377 98.5041 96.4959C100.262 98.254 101.25 100.639 101.25 103.125V118.125C101.25 120.604 105 120.608 105 118.125V103.125C104.996 99.6452 103.612 96.3091 101.151 93.8485C98.6909 91.388 95.3548 90.0039 91.875 90Z" fill="#EE6161"/>
<path d="M93.0234 80.5765C87.7999 82.7749 80.452 85.3305 73.2082 86.051C78.1183 79.0174 76.6582 84.4821 76.875 71.25C76.875 70.7527 76.6774 70.2758 76.3258 69.9241C75.9742 69.5725 75.4972 69.375 75 69.375H60.9375C59.6947 69.3735 58.5033 68.8792 57.6245 68.0005C56.7457 67.1217 56.2514 65.9302 56.25 64.6875V56.25C56.25 54.5212 54.5095 54.3951 51.0457 51.9996C55.7374 45.7626 56.25 45.7886 56.25 44.6636V34.3675C57.3598 34.7888 58.5073 35.1027 59.677 35.305C62.1225 35.7323 62.7654 32.0381 60.3229 31.6113C51.0075 29.9826 47.5204 20.8143 46.9528 11.3735C52.2438 14.1241 59.9943 11.7632 72.2489 8.16254C74.628 7.46457 73.5761 3.86715 71.1942 4.56395C60.8545 7.60075 49.5914 11.3648 46.7196 6.31637C45.9326 4.62254 43.3188 5.04418 43.1768 7.03121C42.5641 15.5529 45.0846 27.1082 52.5 32.3672V44.0217L46.8011 51.3497C46.6394 51.5577 46.5233 51.7974 46.4605 52.0533C46.3976 52.3092 46.3894 52.5754 46.4364 52.8347C46.4833 53.0939 46.5844 53.3404 46.733 53.558C46.8815 53.7756 47.0743 53.9594 47.2987 54.0975L52.5 57.2976V64.6875C52.5025 66.9245 53.3922 69.0691 54.974 70.6509C56.5558 72.2327 58.7005 73.1225 60.9375 73.125H73.125V79.934C71.3944 82.0437 69.7953 84.2579 68.3367 86.564C68.1147 86.712 67.9269 86.9056 67.7858 87.1319C67.6447 87.3583 67.5536 87.6121 67.5185 87.8765C62.0142 96.8993 58.125 107.515 58.125 118.125C58.125 118.622 58.3225 119.099 58.6741 119.451C59.0258 119.802 59.5027 120 60 120C60.4973 120 60.9742 119.802 61.3258 119.451C61.6774 119.099 61.875 118.622 61.875 118.125C61.875 106.874 66.5936 96.6717 70.6525 89.9765C79.2998 89.6936 88.3129 86.6271 94.4775 84.033C96.7652 83.07 95.3081 79.6146 93.0234 80.5765Z" fill="#EE6161"/>
<path d="M69.615 25.3319C68.6358 27.0764 63.75 35.9515 63.75 39.375C63.75 41.3641 64.5402 43.2718 65.9467 44.6783C67.3532 46.0848 69.2609 46.875 71.25 46.875C73.2391 46.875 75.1468 46.0848 76.5533 44.6783C77.9598 43.2718 78.75 41.3641 78.75 39.375C78.75 35.9515 73.8642 27.0764 72.885 25.3319C72.722 25.0416 72.4846 24.7999 72.1973 24.6316C71.9099 24.4634 71.583 24.3748 71.25 24.3748C70.917 24.3748 70.5901 24.4634 70.3027 24.6316C70.0154 24.7999 69.778 25.0416 69.615 25.3319ZM71.25 43.125C70.2558 43.1238 69.3027 42.7283 68.5996 42.0253C67.8966 41.3223 67.5012 40.3692 67.5 39.375C67.5 38.1005 69.2423 34.1055 71.25 30.2095C73.2574 34.1044 75 38.0993 75 39.375C74.9988 40.3692 74.6034 41.3223 73.9004 42.0253C73.1973 42.7283 72.2442 43.1238 71.25 43.125Z" fill="#EE6161"/>
<path d="M33.75 68.4647V16.875C33.7483 15.3837 33.1552 13.9539 32.1006 12.8994C31.0461 11.8448 29.6163 11.2517 28.125 11.25H13.125C11.6337 11.2517 10.2039 11.8448 9.14939 12.8994C8.09486 13.9539 7.50169 15.3837 7.50002 16.875V68.4661C-7.38561 80.7743 1.37908 105 20.6302 105C39.6994 105 48.7695 80.8324 33.75 68.4647ZM20.2174 101.245C4.54525 100.877 -2.44522 80.5987 10.5012 70.875C11.9227 69.807 10.9784 69.8468 11.2512 37.5H16.875C19.3542 37.5 19.3573 33.75 16.875 33.75H11.25V30H20.625C23.1042 30 23.1073 26.25 20.625 26.25H11.25V22.5H16.875C19.3542 22.5 19.3573 18.75 16.875 18.75H11.25C11.3637 18.2428 10.6172 15 13.125 15H28.125C28.6221 15.0006 29.0987 15.1983 29.4502 15.5498C29.8017 15.9013 29.9995 16.3779 30 16.875C30.2813 71.3761 29.3229 69.8027 30.7488 70.875C43.9847 80.8165 36.3809 101.633 20.2174 101.245Z" fill="#EE6161"/>
<path d="M26.2501 72.5194V43.125C26.2501 42.6277 26.0525 42.1508 25.7009 41.7992C25.3492 41.4475 24.8723 41.25 24.3751 41.25H16.8751C16.3778 41.25 15.9009 41.4475 15.5492 41.7992C15.1976 42.1508 15.0001 42.6277 15.0001 43.125V72.5194C2.35553 78.5309 6.75404 97.5 20.6251 97.5C34.4766 97.5 38.9101 78.5391 26.2501 72.5194ZM20.6251 93.75C10.1569 93.75 7.59381 79.0514 17.5018 75.5372C19.8699 74.6972 18.2853 73.1283 18.7501 45H22.5001C22.9754 73.7761 21.4578 74.7248 23.7483 75.5372C33.6523 79.0495 31.0967 93.75 20.6251 93.75Z" fill="#EE6161"/>
<path d="M1.875 105C1.875 107.479 5.625 107.482 5.625 105C5.625 102.517 1.875 102.517 1.875 105Z" fill="#EE6161"/>
<path d="M11.25 106.875C8.77098 106.875 8.76746 110.625 11.25 110.625C13.7289 110.625 13.7325 106.875 11.25 106.875Z" fill="#EE6161"/>
<path d="M28.125 108.75C28.125 111.229 31.875 111.232 31.875 108.75C31.875 106.267 28.125 106.267 28.125 108.75Z" fill="#EE6161"/>
<path d="M18.75 110.625C18.75 113.104 22.5 113.107 22.5 110.625C22.5 108.142 18.75 108.142 18.75 110.625Z" fill="#EE6161"/>
<path d="M37.5 103.125C35.021 103.125 35.0175 106.875 37.5 106.875C39.9789 106.875 39.9825 103.125 37.5 103.125Z" fill="#EE6161"/>
<path d="M78.7501 5.625C81.2291 5.625 81.2326 1.875 78.7501 1.875C76.2676 1.875 76.2676 5.625 78.7501 5.625Z" fill="#EE6161"/>
</g>
<defs>
<clipPath id="clip0">
<rect width="120" height="120" fill="white"/>
</clipPath>
</defs>
</svg>
