<svg width="58" height="58" viewBox="0 0 58 58" fill="none" xmlns="http://www.w3.org/2000/svg">
<g clip-path="url(#clip0)">
<path d="M42.9173 42.5695C43.3279 43.1491 43.1915 43.9513 42.6131 44.3618L40.4608 45.8881C39.8652 46.3107 39.0332 46.154 38.6345 45.5321C38.2607 44.9498 38.4386 44.1711 39.0027 43.7709L39.0607 43.7303L36.5263 41.5322C36.4504 41.4657 36.3407 41.4539 36.2513 41.5023C35.3329 41.9934 34.3715 42.3797 33.3863 42.659C33.2864 42.6873 33.2144 42.7751 33.2082 42.8787L33.0694 45.1761C33.4758 45.1757 33.8546 45.3351 34.1362 45.6028C34.3735 45.8283 34.542 46.131 34.597 46.4799C34.7313 47.3238 34.1555 48.1166 33.3111 48.2515L32.6128 48.3621C31.7928 48.4928 30.9897 47.9735 30.8188 47.1598C30.6713 46.4595 31.0196 45.7835 31.611 45.4709L30.7098 43.3198C30.6687 43.2226 30.5708 43.1637 30.4663 43.1716C29.0019 43.2771 27.5243 43.1613 26.0867 42.8236C25.9879 42.8003 25.8854 42.8398 25.8284 42.9237L23.9281 45.7159L24.4013 45.9045C25.08 46.1756 25.4004 46.9591 25.0947 47.6323C24.8083 48.2623 24.058 48.5357 23.4159 48.2789L20.9983 47.3151C20.3201 47.0446 19.9997 46.261 20.3054 45.5879C20.5918 44.9579 21.3421 44.6845 21.9847 44.9407L22.0497 44.9671L22.5187 41.6446C22.5331 41.5442 22.4832 41.4466 22.3943 41.3974C21.3422 40.8137 20.345 40.0893 19.4319 39.2213C18.7093 38.5345 18.0748 37.791 17.5257 37.0044C17.4674 36.9217 17.3647 36.8822 17.2665 36.9063L13.7452 37.7803L13.7779 37.8455C14.0785 38.4507 13.9508 39.1562 13.5111 39.6187C13.3881 39.7481 13.2412 39.8583 13.0726 39.9421C12.4421 40.6054 11.5928 40.4778 11.1861 39.6578L10.0511 37.3734C9.67101 36.6094 9.9744 35.6831 10.7293 35.291C11.5066 34.8859 12.4796 35.2337 12.8697 36.0185L12.8961 36.071L15.6538 33.7459C15.7317 33.6807 15.7594 33.5748 15.7266 33.4786C15.1664 31.8649 14.899 30.1701 14.9262 28.4772C14.9277 28.3749 14.8663 28.2823 14.7712 28.2455L11.825 27.0999C11.6387 27.7759 10.9639 28.2157 10.2532 28.0875C9.51129 27.9537 9.02746 27.2281 9.14191 26.4838L9.34232 25.1859C9.45374 24.4603 10.1031 23.9188 10.8346 23.9868C11.6141 24.0594 12.1632 24.7548 12.0772 25.5136L15.1741 25.2456C15.2774 25.2366 15.3632 25.1631 15.3887 25.063C15.826 23.3755 16.573 21.7498 17.6314 20.2752C17.6907 20.1924 17.6938 20.0824 17.6379 19.9985L15.776 17.1793L15.5076 17.4569C15.2393 17.7344 14.8833 17.8785 14.5245 17.8852C14.1656 17.8932 13.8045 17.7643 13.5241 17.4978C12.9669 16.9681 12.948 16.0845 13.4831 15.5324L15.1463 13.8139C15.6899 13.2516 16.6124 13.2195 17.1643 13.7727C17.7001 14.3093 17.7092 15.178 17.1823 15.7263L20.0787 17.4223C20.1665 17.4739 20.2763 17.4652 20.3553 17.4013C21.851 16.1998 23.5342 15.3373 25.2991 14.816C25.3978 14.7866 25.4681 14.6995 25.4742 14.5958L25.6058 12.1957L25.3845 12.2317C24.6974 12.3451 24.0496 11.8627 23.9675 11.1631C23.8912 10.5067 24.3691 9.91391 25.0207 9.80677L26.7187 9.52751C27.1129 9.46314 27.494 9.59381 27.763 9.84953C27.9493 10.0267 28.0816 10.2642 28.1272 10.5379C28.2321 11.1726 27.8287 11.7722 27.2151 11.9257L28.1452 14.1101C28.1862 14.2061 28.2836 14.2644 28.3881 14.2577C29.9103 14.149 31.4473 14.2802 32.939 14.6522C33.0373 14.6761 33.1404 14.6384 33.1985 14.5556L35.1364 11.7887L34.6648 11.5937C33.9906 11.3143 33.6806 10.5258 33.9952 9.85765C34.2898 9.23096 35.0438 8.96802 35.6826 9.23309L38.0865 10.2293C38.7614 10.5093 39.0713 11.2966 38.7562 11.9654C38.4621 12.5915 37.7087 12.855 37.0687 12.5899L37.0043 12.5629L36.4907 15.8773C36.4751 15.9776 36.5232 16.0758 36.611 16.1262C37.6025 16.6934 38.541 17.3871 39.4056 18.2089L39.4068 18.2101C39.4823 18.2818 39.5938 18.3001 39.6868 18.2527L41.3657 17.4056C40.9925 16.7338 41.1368 15.873 41.7478 15.3657C42.4408 14.7915 43.4983 14.9208 44.0686 15.618L44.6237 16.2962C45.1891 16.9876 45.1241 18.0207 44.4417 18.5982C43.9099 19.0473 43.1778 19.0951 42.6062 18.7798L41.4431 20.3225C41.3803 20.4054 41.3779 20.5195 41.4368 20.6063C42.2794 21.8532 42.9078 23.2043 43.3204 24.606C43.3498 24.7035 43.434 24.7733 43.5354 24.7806L46.903 25.0449L46.8324 24.541C46.7304 23.8167 47.2521 23.1504 47.9877 23.082C48.6766 23.0172 49.2866 23.5333 49.3824 24.2185L49.7447 26.7949C49.8472 27.5185 49.325 28.1855 48.5894 28.2538C47.9011 28.3181 47.291 27.802 47.1947 27.1174L47.1848 27.0475L44.0658 28.2901C43.9714 28.327 43.9112 28.4192 43.9126 28.5209C43.9315 29.936 43.7441 31.3546 43.3497 32.727C43.3212 32.8266 43.3578 32.9332 43.4418 32.9937L45.0771 34.1638C45.4277 33.3702 46.3659 33.0131 47.1596 33.39C47.9165 33.7492 48.2337 34.6609 47.9048 35.4317L47.3898 36.6393C47.0636 37.4025 46.1986 37.8086 45.4195 37.5243C44.6729 37.2514 44.2738 36.4774 44.4352 35.7389L42.4652 35.4129C42.3619 35.3956 42.2597 35.4467 42.2106 35.5392C41.6082 36.666 40.847 37.7308 39.9243 38.7014C39.77 38.8638 39.6132 39.0215 39.4533 39.1741C39.3803 39.2449 39.3573 39.352 39.3965 39.4451L40.7098 42.5605L41.125 42.2653C41.7046 41.8547 42.5068 41.9911 42.9173 42.5695Z" fill="#F79595"/>
<path d="M37.7185 29.1193C38.5377 29.898 39.7296 29.974 40.3807 29.289C41.0317 28.6041 40.8955 27.4176 40.0763 26.6389C39.2571 25.8602 38.0652 25.7842 37.4141 26.4691C36.7631 27.1541 36.8993 28.3406 37.7185 29.1193Z" fill="#EE6161"/>
<path d="M24.6623 32.1354C25.5577 32.9866 26.9736 32.9507 27.8247 32.0553C28.6758 31.1599 28.6399 29.744 27.7445 28.8929C26.8492 28.0418 25.4333 28.0777 24.5822 28.9731C23.731 29.8685 23.7669 31.2843 24.6623 32.1354Z" fill="#EE6161"/>
<path d="M32.2215 36.8365C32.8626 37.4459 33.8764 37.4202 34.4858 36.7791C35.0952 36.138 35.0695 35.1243 34.4284 34.5149C33.7873 33.9055 32.7736 33.9312 32.1642 34.5723C31.5548 35.2134 31.5804 36.2271 32.2215 36.8365Z" fill="#F9B1B1"/>
<path d="M22.5802 38.394C23.2035 38.9865 24.189 38.9615 24.7815 38.3382C25.374 37.7149 25.349 36.7293 24.7257 36.1369C24.1024 35.5444 23.1169 35.5694 22.5244 36.1927C21.9319 36.816 21.9569 37.8015 22.5802 38.394Z" fill="#F9B1B1"/>
<path d="M23.5079 22.1386C27.347 18.0998 32.6859 16.3417 37.8281 16.906C37.4331 16.6241 37.0261 16.3636 36.6111 16.1262C36.5232 16.0758 36.4751 15.9776 36.4907 15.8772L37.0043 12.5629L37.0687 12.5899C37.7087 12.8549 38.4622 12.5914 38.7562 11.9653C39.0714 11.2966 38.7614 10.5093 38.0865 10.2293L35.6827 9.23307C35.0439 8.96801 34.2898 9.23095 33.9952 9.85763C33.6806 10.5258 33.9906 11.3143 34.6648 11.5937L35.1364 11.7887L33.1986 14.5556C33.1404 14.6383 33.0373 14.676 32.9391 14.6522C31.4474 14.2801 29.9103 14.1489 28.3881 14.2577C28.2836 14.2644 28.1863 14.2061 28.1452 14.1101L27.2151 11.9257C27.8287 11.7722 28.2322 11.1725 28.1272 10.5379C28.0817 10.2642 27.9494 10.0266 27.763 9.84952C27.494 9.5938 27.113 9.46312 26.7187 9.52749L25.0208 9.80675C24.3692 9.91389 23.8913 10.5066 23.9675 11.1631C24.0496 11.8627 24.6974 12.345 25.3845 12.2317L25.6058 12.1957L25.4742 14.5958C25.4681 14.6995 25.3978 14.7866 25.2991 14.816C23.5342 15.3373 21.851 16.1997 20.3554 17.4012C20.2763 17.4652 20.1666 17.4739 20.0787 17.4223L17.1823 15.7263C17.7093 15.1779 17.7001 14.3093 17.1644 13.7726C16.6124 13.2194 15.6899 13.2516 15.1464 13.8138L13.4831 15.5324C12.9481 16.0845 12.9669 16.9681 13.5242 17.4978C13.8046 17.7643 14.1657 17.8932 14.5245 17.8852C14.8833 17.8785 15.2393 17.7344 15.5077 17.4569L15.776 17.1793L17.6379 19.9984C17.6938 20.0824 17.6908 20.1924 17.6315 20.2752C16.5731 21.7498 15.8261 23.3755 15.3888 25.063C15.3632 25.1631 15.2774 25.2366 15.1741 25.2456L12.0772 25.5136C12.1632 24.7547 11.6141 24.0594 10.8346 23.9868C10.1031 23.9188 9.45378 24.4603 9.34236 25.1858L9.14194 26.4837C9.02749 27.2281 9.51132 27.9537 10.2532 28.0875C10.964 28.2157 11.6387 27.7758 11.8251 27.0999L14.7713 28.2455C14.8663 28.2823 14.9277 28.3749 14.9263 28.4772C14.899 30.1701 15.1665 31.8649 15.7266 33.4785C15.7594 33.5748 15.7317 33.6807 15.6539 33.7458L12.8962 36.071L12.8697 36.0185C12.4797 35.2337 11.5067 34.8859 10.7293 35.2909C9.97443 35.6831 9.67105 36.6094 10.0512 37.3734L11.1861 39.6578C11.5928 40.4778 12.4422 40.6053 13.0726 39.9421C13.2412 39.8583 13.3881 39.7481 13.5112 39.6187C13.9509 39.1562 14.0786 38.4507 13.7779 37.8455L13.7452 37.7803L17.2665 36.9063C17.3647 36.8822 17.4675 36.9217 17.5257 37.0044C18.0748 37.791 18.7093 38.5345 19.4319 39.2213C19.517 39.3021 19.6044 39.3832 19.6908 39.4616C17.7207 33.6238 18.968 26.9146 23.5079 22.1386Z" fill="#F37C7C"/>
<path d="M18.0398 29.0289C18.6891 29.6461 19.7158 29.6201 20.333 28.9708C20.9502 28.3215 20.9242 27.2948 20.2749 26.6776C19.6256 26.0604 18.5989 26.0864 17.9817 26.7357C17.3645 27.385 17.3905 28.4117 18.0398 29.0289Z" fill="#EE6161"/>
<path d="M32.7772 30.9497L32.38 30.5721C32.1317 30.3361 32.1219 29.9437 32.3578 29.6956C32.5937 29.4474 32.986 29.4374 33.2343 29.6734L33.6315 30.051C33.8797 30.2869 33.8896 30.6793 33.6537 30.9275C33.4178 31.1757 33.0254 31.1857 32.7772 30.9497Z" fill="#F9B1B1"/>
<path d="M20.0183 33.7741L19.6102 33.3861C19.362 33.1502 19.3521 32.7578 19.588 32.5096C19.8239 32.2614 20.2163 32.2514 20.4645 32.4874L20.8726 32.8754C21.1209 33.1113 21.1308 33.5037 20.8949 33.7519C20.659 34.0001 20.2666 34.0101 20.0183 33.7741Z" fill="#F9B1B1"/>
<path d="M22.0474 23.2457L21.6543 22.872C21.406 22.636 21.3961 22.2436 21.6321 21.9954C21.868 21.7473 22.2603 21.7373 22.5086 21.9732L22.9017 22.347C23.15 22.5829 23.1599 22.9753 22.924 23.2235C22.688 23.4717 22.2957 23.4817 22.0474 23.2457Z" fill="#EE6161"/>
<path d="M37.5018 22.9704L36.9547 22.4503C36.7064 22.2143 36.6966 21.8219 36.9325 21.5738C37.1684 21.3256 37.5608 21.3156 37.809 21.5515L38.3561 22.0716C38.6044 22.3076 38.6143 22.7 38.3784 22.9482C38.1424 23.1963 37.7501 23.2063 37.5018 22.9704Z" fill="#F9B1B1"/>
<path d="M28.7921 39.3295L28.188 38.7552C27.9397 38.5192 27.9298 38.1269 28.1657 37.8787C28.4016 37.6305 28.794 37.6205 29.0423 37.8565L29.6465 38.4308C29.8947 38.6668 29.9046 39.0591 29.6687 39.3073C29.4328 39.5555 29.0403 39.5654 28.7921 39.3295Z" fill="#EE6161"/>
<path d="M29.3479 25.0193C31.6954 25.2367 33.7456 23.8236 33.9271 21.8631C34.1087 19.9026 32.3529 18.1371 30.0054 17.9197C27.6579 17.7022 25.6077 19.1153 25.4261 21.0758C25.2446 23.0363 27.0004 24.8019 29.3479 25.0193Z" fill="#EE6161"/>
</g>
<defs>
<clipPath id="clip0">
<rect width="41" height="41" fill="white" transform="translate(28.2476) rotate(43.5482)"/>
</clipPath>
</defs>
</svg>
