<svg width="266" height="276" viewBox="0 0 266 276" fill="none" xmlns="http://www.w3.org/2000/svg">
<g clip-path="url(#clip0)">
<path d="M78.7137 66.2296C77.0643 63.2701 78.123 59.5358 81.077 57.8859L92.0679 51.7528C95.1098 50.0543 98.9748 51.2245 100.547 54.379C102.02 57.3324 100.777 60.9339 97.896 62.5422L97.5999 62.7052L108.49 74.431C108.816 74.7853 109.33 74.8978 109.779 74.7138C114.387 72.8567 119.145 71.5183 123.961 70.6996C124.449 70.6169 124.835 70.2376 124.918 69.7491L126.756 58.9251C124.829 58.7181 123.114 57.7677 121.916 56.3536C120.906 55.1621 120.263 53.64 120.181 51.9573C119.978 47.8864 123.115 44.4219 127.189 44.2161L130.558 44.0498C134.513 43.8511 138.056 46.7265 138.448 50.6732C138.788 54.07 136.789 57.097 133.824 58.2759L136.993 68.9405C137.138 69.4225 137.572 69.7522 138.072 69.7684C145.071 70.02 152.019 71.3277 158.663 73.6679C159.12 73.8288 159.627 73.6944 159.94 73.3258L170.386 61.0594L168.239 59.9222C165.159 58.2881 164.042 54.4073 165.838 51.3719C167.519 48.5312 171.218 47.6201 174.131 49.1676L185.102 54.9798C188.179 56.6109 189.296 60.4916 187.501 63.5271C185.819 66.3677 182.121 67.2789 179.204 65.7338L178.91 65.5752L174.979 81.0917C174.859 81.5602 175.046 82.0485 175.442 82.3275C180.132 85.6364 184.489 89.5837 188.374 94.1689C191.448 97.7975 194.076 101.649 196.276 105.662C196.509 106.084 196.976 106.324 197.455 106.26L214.603 103.924L214.482 103.597C213.366 100.573 214.334 97.2927 216.657 95.3249C217.307 94.7743 218.06 94.3274 218.903 94.0166C222.234 91.1948 226.196 92.236 227.704 96.3337L231.913 107.75C233.324 111.569 231.409 115.806 227.628 117.278C223.733 118.8 219.297 116.65 217.851 112.728L217.752 112.466L203.48 122.077C203.077 122.345 202.891 122.834 202.997 123.307C204.825 131.247 205.223 139.422 204.225 147.437C204.165 147.921 204.409 148.392 204.841 148.615L218.225 155.561C219.456 152.451 222.881 150.712 226.186 151.685C229.636 152.7 231.558 156.39 230.633 159.861L229.016 165.914C228.115 169.297 224.757 171.532 221.323 170.834C217.664 170.089 215.417 166.509 216.214 162.955L201.389 162.635C200.895 162.625 200.45 162.93 200.278 163.391C197.337 171.169 192.96 178.496 187.183 184.946C186.859 185.308 186.788 185.828 187.01 186.255L194.393 200.581L195.808 199.402C197.223 198.224 198.985 197.723 200.69 197.876C202.396 198.022 204.043 198.819 205.236 200.227C207.606 203.025 207.242 207.225 204.421 209.569L195.65 216.865C192.784 219.252 188.393 218.931 186.059 216.024C183.794 213.204 184.196 209.079 186.977 206.749L174.112 197.219C173.722 196.929 173.197 196.914 172.789 197.176C165.079 202.107 156.653 205.332 148.016 206.898C147.533 206.987 147.154 207.364 147.072 207.852L145.216 219.167L146.284 219.11C149.6 218.926 152.425 221.546 152.455 224.906C152.479 228.058 149.909 230.624 146.763 230.797L138.567 231.25C136.665 231.353 134.925 230.537 133.78 229.186C132.987 228.251 132.482 227.056 132.406 225.735C132.235 222.671 134.456 220.034 137.445 219.621L134.155 208.785C134.01 208.308 133.578 207.981 133.079 207.96C125.804 207.694 118.582 206.282 111.699 203.751C111.245 203.588 110.737 203.714 110.419 204.076L99.8078 216.203L101.944 217.37C104.998 219.042 106.063 222.94 104.228 225.947C102.509 228.768 98.7981 229.628 95.9047 228.043L85.0158 222.084C81.9591 220.409 80.8934 216.516 82.7315 213.507C84.4475 210.688 88.1561 209.826 91.0551 211.411L91.3467 211.572L95.4845 196.118C95.6099 195.65 95.4322 195.159 95.0416 194.875C90.631 191.676 86.5363 187.905 82.8581 183.563L82.853 183.557C82.5318 183.178 82.0121 183.034 81.547 183.211L73.1498 186.366C74.5743 189.744 73.4482 193.752 70.2898 195.844C66.7085 198.211 61.7596 197.055 59.4133 193.456L57.1289 189.954C54.8025 186.385 55.6415 181.519 59.1741 179.131C61.9269 177.274 65.4231 177.423 67.9723 179.212L74.2805 172.493C74.6209 172.132 74.6907 171.592 74.4559 171.15C71.1002 164.804 68.8142 158.074 67.5769 151.215C67.4877 150.737 67.1242 150.363 66.6473 150.276L50.8119 147.293L50.8881 149.719C50.9998 153.206 48.1837 156.099 44.66 156.045C41.3596 155.999 38.7313 153.238 38.6292 149.939L38.234 137.534C38.1193 134.05 40.9384 131.155 44.4621 131.209C47.7595 131.258 50.3878 134.018 50.4929 137.315L50.5042 137.651L65.9342 133.36C66.4007 133.233 66.7336 132.827 66.7792 132.344C67.4163 125.623 69.0336 118.992 71.6088 112.685C71.7949 112.228 71.676 111.703 71.3088 111.374L64.1543 104.985C62.084 108.568 57.4512 109.78 53.8808 107.585C50.4754 105.493 49.4392 101.006 51.3951 97.5194L54.4574 92.0566C56.3964 88.6049 60.7074 87.1233 64.256 88.8717C67.6566 90.5491 69.1518 94.4247 68.0072 97.8442L77.1826 100.402C77.6638 100.537 78.1748 100.347 78.4552 99.9339C81.8905 94.8992 86.0474 90.2405 90.9215 86.1111C91.7369 85.4203 92.5615 84.7526 93.398 84.1112C93.7808 83.8127 93.9449 83.317 93.8069 82.8552L89.1784 67.4057L87.0573 68.5928C84.0979 70.2422 80.3635 69.1835 78.7137 66.2296Z" fill="#F79595"/>
<path d="M96.4618 132.687C92.9767 128.574 87.3632 127.601 83.9237 130.515C80.4843 133.429 80.5212 139.126 84.0063 143.24C87.4914 147.353 93.1049 148.326 96.5444 145.412C99.9839 142.498 99.9469 136.801 96.4618 132.687Z" fill="#EE6161"/>
<path d="M159.93 125.088C156.121 120.592 149.388 120.035 144.891 123.844C140.395 127.654 139.838 134.387 143.648 138.883C147.457 143.379 154.19 143.936 158.686 140.127C163.183 136.318 163.739 129.585 159.93 125.088Z" fill="#EE6161"/>
<path d="M126.495 98.9113C123.767 95.692 118.947 95.2932 115.727 98.0207C112.508 100.748 112.109 105.569 114.837 108.788C117.564 112.008 122.385 112.406 125.604 109.679C128.824 106.951 129.222 102.131 126.495 98.9113Z" fill="#F9B1B1"/>
<path d="M173.019 96.4762C170.367 93.3463 165.68 92.9586 162.55 95.6103C159.42 98.262 159.033 102.949 161.684 106.079C164.336 109.209 169.023 109.596 172.153 106.945C175.283 104.293 175.67 99.6061 173.019 96.4762Z" fill="#F9B1B1"/>
<path d="M160.271 173.091C139.99 190.273 113.768 195.87 89.6708 190.553C91.3993 192.093 93.1955 193.537 95.0421 194.876C95.4327 195.16 95.6104 195.65 95.485 196.118L91.3472 211.573L91.0556 211.412C88.1566 209.826 84.448 210.689 82.732 213.507C80.8939 216.517 81.9596 220.41 85.0163 222.084L95.9052 228.043C98.7986 229.628 102.51 228.769 104.229 225.948C106.064 222.941 104.999 219.042 101.944 217.371L99.8083 216.204L110.419 204.077C110.737 203.714 111.246 203.589 111.7 203.752C118.583 206.283 125.805 207.694 133.08 207.96C133.579 207.982 134.011 208.309 134.156 208.785L137.445 219.622C134.456 220.035 132.235 222.671 132.407 225.735C132.482 227.057 132.988 228.251 133.781 229.187C134.925 230.538 136.665 231.353 138.568 231.25L146.764 230.798C149.909 230.624 152.48 228.059 152.455 224.906C152.425 221.546 149.601 218.926 146.284 219.111L145.216 219.168L147.073 207.853C147.155 207.365 147.533 206.987 148.016 206.899C156.654 205.333 165.079 202.107 172.79 197.177C173.197 196.914 173.722 196.93 174.112 197.219L186.978 206.75C184.197 209.08 183.794 213.204 186.059 216.024C188.393 218.931 192.784 219.253 195.651 216.865L204.421 209.569C207.242 207.226 207.607 203.025 205.236 200.227C204.043 198.819 202.397 198.023 200.691 197.876C198.986 197.724 197.224 198.224 195.808 199.403L194.393 200.581L187.011 186.255C186.789 185.828 186.86 185.308 187.184 184.946C192.96 178.496 197.338 171.17 200.278 163.392C200.451 162.93 200.896 162.626 201.39 162.636L216.215 162.955C215.417 166.51 217.664 170.09 221.324 170.834C224.758 171.533 228.115 169.298 229.016 165.914L230.633 159.862C231.558 156.391 229.637 152.701 226.187 151.685C222.882 150.712 219.456 152.452 218.225 155.562L204.841 148.616C204.409 148.392 204.165 147.922 204.225 147.437C205.224 139.423 204.826 131.248 202.998 123.307C202.891 122.834 203.077 122.346 203.48 122.077L217.752 112.466L217.851 112.729C219.298 116.651 223.734 118.8 227.628 117.278C231.41 115.806 233.324 111.569 231.914 107.751L227.704 96.3342C226.197 92.2365 222.234 91.1953 218.904 94.0171C218.061 94.3279 217.308 94.7748 216.658 95.3254C214.335 97.2932 213.367 100.573 214.482 103.598L214.603 103.924L197.455 106.26C196.977 106.324 196.51 106.084 196.276 105.662C194.076 101.65 191.449 97.798 188.374 94.1695C188.013 93.7425 187.64 93.3132 187.27 92.8971C193.615 121.594 184.255 152.772 160.271 173.091Z" fill="#F37C7C"/>
<path d="M189.742 143.222C186.98 139.961 182.097 139.558 178.837 142.32C175.576 145.082 175.172 149.965 177.935 153.225C180.697 156.486 185.58 156.89 188.84 154.127C192.101 151.365 192.505 146.482 189.742 143.222Z" fill="#EE6161"/>
<path d="M120.836 126.544L122.526 128.539C123.582 129.786 123.428 131.652 122.182 132.708C120.935 133.763 119.069 133.609 118.013 132.363L116.323 130.368C115.267 129.121 115.422 127.255 116.668 126.2C117.914 125.144 119.78 125.298 120.836 126.544Z" fill="#F9B1B1"/>
<path d="M182.796 119.702L184.532 121.751C185.588 122.998 185.433 124.864 184.187 125.92C182.941 126.975 181.075 126.821 180.019 125.575L178.283 123.525C177.226 122.279 177.381 120.413 178.627 119.357C179.873 118.301 181.74 118.455 182.796 119.702Z" fill="#F9B1B1"/>
<path d="M167.766 168.591L169.438 170.565C170.495 171.811 170.34 173.677 169.094 174.733C167.847 175.789 165.981 175.635 164.925 174.388L163.253 172.414C162.197 171.168 162.351 169.302 163.598 168.246C164.844 167.19 166.71 167.344 167.766 168.591Z" fill="#EE6161"/>
<path d="M94.3316 161.96L96.6594 164.708C97.7155 165.954 97.5609 167.82 96.3146 168.876C95.0684 169.932 93.2024 169.778 92.1463 168.531L89.8186 165.783C88.7625 164.537 88.9171 162.671 90.1633 161.615C91.4096 160.559 93.2756 160.713 94.3316 161.96Z" fill="#F9B1B1"/>
<path d="M144.039 88.8496L146.61 91.8836C147.666 93.1301 147.511 94.9961 146.265 96.0519C145.019 97.1077 143.153 96.9536 142.097 95.7071L139.526 92.6731C138.47 91.4266 138.625 89.5606 139.871 88.5048C141.117 87.449 142.983 87.6033 144.039 88.8496Z" fill="#EE6161"/>
<path d="M134.054 156.43C123.033 154.194 112.584 159.842 110.716 169.047C108.849 178.251 116.269 187.526 127.29 189.763C138.312 191.999 148.76 186.351 150.628 177.146C152.496 167.942 145.076 158.667 134.054 156.43Z" fill="#EE6161"/>
</g>
<defs>
<clipPath id="clip0">
<rect width="195.579" height="195.579" fill="white" transform="translate(126.425 275.649) rotate(-130.272)"/>
</clipPath>
</defs>
</svg>
