<svg width="244" height="252" viewBox="0 0 244 252" fill="none" xmlns="http://www.w3.org/2000/svg">
<path d="M237.819 127.851C241.967 128.692 244.667 132.832 243.856 137.099L240.83 152.97C239.994 157.363 235.763 160.181 231.493 159.102C227.493 158.093 225.068 153.882 225.86 149.722L225.943 149.296L205.999 150.234C205.399 150.259 204.878 150.669 204.691 151.262C202.743 157.323 200.179 163.1 197.075 168.501C196.76 169.049 196.809 169.743 197.208 170.229L206.029 181.023C207.78 179.305 210.068 178.413 212.38 178.413C214.328 178.413 216.296 179.047 217.964 180.364C222.003 183.546 222.77 189.501 219.681 193.666L217.123 197.107C214.122 201.15 208.528 202.235 204.455 199.341C200.947 196.853 199.678 192.379 200.947 188.492L188.24 182.741C187.664 182.482 187 182.634 186.582 183.111C180.698 189.764 173.85 195.49 166.264 200.061C165.742 200.375 165.462 200.983 165.56 201.596L168.812 222.028L171.626 220.867C175.665 219.205 180.26 221.334 181.701 225.616C183.049 229.624 180.934 234.007 177.111 235.578L162.731 241.507C158.697 243.169 154.102 241.041 152.661 236.759C151.313 232.75 153.428 228.367 157.251 226.791L157.64 226.634L146.039 209.892C145.69 209.385 145.075 209.162 144.489 209.319C137.558 211.169 130.286 212.162 122.789 212.162C116.856 212.162 111.07 211.538 105.477 210.363C104.887 210.241 104.281 210.5 103.957 211.022L92.3514 229.776L92.7597 229.928C96.5379 231.347 98.8797 235.021 98.8797 238.933C98.8797 240.027 98.6977 241.137 98.3139 242.221C98.3139 247.831 94.1273 250.851 89.0109 248.925L74.749 243.569C69.977 241.78 67.4876 236.384 69.1357 231.453C70.8281 226.371 76.4512 223.807 81.3511 225.646L81.6807 225.768L84.0421 203.79C84.111 203.172 83.7962 202.584 83.2599 202.296C74.2275 197.492 66.1249 191.092 59.3014 183.455C58.8882 182.994 58.2437 182.842 57.6829 183.08L40.2773 190.433C42.2451 194.223 41.1382 199.027 37.5469 201.46C33.7981 203.998 28.7358 202.818 26.1777 199.027L21.7205 192.414C19.2262 188.72 19.8068 183.572 23.2406 180.785C26.9008 177.815 32.1205 178.585 34.8608 182.32L47.1204 168.05C47.5288 167.574 47.5976 166.885 47.2976 166.333C42.2648 156.988 38.8211 146.611 37.3403 135.589C37.2566 134.971 36.8188 134.469 36.2333 134.332L16.6434 129.67L16.6238 132.037C16.6041 134.403 15.6595 136.547 14.1394 138.092C12.6241 139.643 10.5382 140.596 8.23582 140.596C3.66058 140.596 -0.0438837 136.749 0.000392808 132.037L0.128303 117.377C0.16766 112.583 4.0148 108.545 8.66383 108.671C13.1751 108.793 16.7763 112.614 16.7517 117.276L36.1989 112.578C36.7893 112.436 37.2271 111.935 37.3058 111.316C38.8309 99.6615 42.555 88.7211 48.0306 78.9513C48.3356 78.404 48.2815 77.7199 47.883 77.2335L38.6095 66.0143L37.8027 67.1089C35.3035 70.5141 30.5315 71.107 27.3092 68.3453C24.2885 65.7508 23.9195 61.099 26.2908 57.8711L32.4698 49.4593C33.9064 47.5084 36.0858 46.4797 38.2947 46.4797C39.8247 46.4797 41.3694 46.9763 42.6879 47.9999C45.743 50.3765 46.4612 54.7446 44.4442 58.0181L57.4123 63.7948C57.9829 64.0482 58.6422 63.8962 59.0653 63.4249C65.1853 56.5131 72.3531 50.6045 80.3131 45.9578C80.8346 45.6487 81.1248 45.0457 81.0363 44.4325L78.05 23.9554L75.2164 25.0803C71.1626 26.6867 66.5923 24.4925 65.2099 20.1954C63.9111 16.1668 66.0856 11.814 69.9278 10.2938L84.3816 4.56768C88.4403 2.96133 93.0057 5.15042 94.3881 9.4526C95.6869 13.4761 93.5173 17.8289 89.6702 19.3542L89.2815 19.5062L100.656 36.4008C101 36.9126 101.61 37.1457 102.196 36.9987C108.798 35.3315 115.69 34.4498 122.789 34.4498H122.799C123.419 34.4498 123.975 34.0596 124.181 33.4566L127.95 22.6024C123.586 21.1936 120.678 16.7597 121.234 11.9255C121.869 6.44766 126.961 2.55594 132.279 3.2451L137.454 3.91399C142.728 4.59808 146.684 9.46274 146.108 14.9101C145.655 19.1515 142.694 22.4554 138.935 23.4689L140.244 35.2353C140.313 35.8687 140.77 36.3856 141.38 36.5224C150.127 38.5037 158.377 41.8532 165.904 46.3378C166.431 46.6469 167.08 46.6013 167.548 46.2061L183.158 33.1577L180.786 31.2169C177.377 28.4298 176.895 23.2662 179.788 19.8559C182.493 16.6584 187.241 16.3746 190.463 19.0147L202.59 28.9315C205.999 31.7135 206.481 36.8822 203.589 40.2925C200.883 43.4849 196.136 43.7687 192.913 41.1337L192.584 40.8651L184.225 59.5585C183.969 60.121 184.087 60.7848 184.51 61.2308C190.394 67.4383 195.402 74.5326 199.328 82.2957C199.614 82.8582 200.209 83.1775 200.819 83.0913L212.67 81.3836C210.929 76.3771 213.512 70.8283 218.48 69.151C223.218 67.5498 228.325 70.2608 230.066 75.0748L232.796 82.615C234.518 87.3834 232.452 92.8409 227.926 94.8678C223.587 96.8086 218.692 95.0553 216.36 91.0927L206.526 97.964C206.009 98.3238 205.778 98.9825 205.945 99.6007C207.967 107.151 209.049 115.097 209.049 123.306C209.049 124.679 209.02 126.042 208.956 127.395C208.931 128.018 209.271 128.591 209.822 128.839L228.261 137.135L228.841 134.069C229.658 129.797 233.677 127.015 237.819 127.851Z" fill="#F79595"/>
<path d="M160.247 90.0481C166.973 90.0481 172.426 85.3521 172.426 79.5592C172.426 73.7664 166.973 69.0703 160.247 69.0703C153.521 69.0703 148.068 73.7664 148.068 79.5592C148.068 85.3521 153.521 90.0481 160.247 90.0481Z" fill="#EE6161"/>
<path d="M116.297 158.59C123.649 158.59 129.609 152.451 129.609 144.878C129.609 137.305 123.649 131.167 116.297 131.167C108.945 131.167 102.985 137.305 102.985 144.878C102.985 152.451 108.945 158.59 116.297 158.59Z" fill="#EE6161"/>
<path d="M168.177 147.552C173.441 147.552 177.708 143.156 177.708 137.734C177.708 132.312 173.441 127.917 168.177 127.917C162.913 127.917 158.646 132.312 158.646 137.734C158.646 143.156 162.913 147.552 168.177 147.552Z" fill="#F9B1B1"/>
<path d="M132.977 195.19C138.094 195.19 142.243 190.917 142.243 185.645C142.243 180.374 138.094 176.1 132.977 176.1C127.859 176.1 123.71 180.374 123.71 185.645C123.71 190.917 127.859 195.19 132.977 195.19Z" fill="#F9B1B1"/>
<path d="M70.3282 119.05C70.3282 84.8924 86.1482 54.5334 110.642 35.3236C107.783 35.7391 104.959 36.3006 102.195 36.9988C101.61 37.1458 101 36.9127 100.656 36.4009L89.2815 19.5064L89.6702 19.3543C93.5173 17.8291 95.6868 13.4762 94.3881 9.45274C93.0057 5.15056 88.4403 2.96147 84.3816 4.56782L69.9278 10.2939C66.0855 11.8141 63.9111 16.167 65.2099 20.1955C66.5923 24.4926 71.1626 26.6868 75.2163 25.0804L78.05 23.9555L81.0362 44.4327C81.1248 45.0458 80.8345 45.6488 80.3131 45.9579C72.3531 50.6047 65.1853 56.5132 59.0653 63.4251C58.6422 63.8963 57.9829 64.0484 57.4123 63.795L44.4442 58.0182C46.4612 54.7447 45.743 50.3767 42.6879 48.0001C41.3694 46.9765 39.8247 46.4799 38.2947 46.4799C36.0858 46.4799 33.9064 47.5085 32.4698 49.4595L26.2908 57.8713C23.9195 61.0992 24.2885 65.751 27.3092 68.3455C30.5315 71.1072 35.3035 70.5143 37.8027 67.109L38.6095 66.0145L47.883 77.2336C48.2815 77.7201 48.3356 78.4042 48.0306 78.9514C42.555 88.7213 38.8309 99.6617 37.3058 111.317C37.2271 111.935 36.7893 112.436 36.1989 112.578L16.7517 117.276C16.7763 112.614 13.1751 108.793 8.66383 108.671C4.0148 108.545 0.16766 112.583 0.128303 117.377L0.000392808 132.037C-0.0438837 136.75 3.66058 140.596 8.23582 140.596C10.5382 140.596 12.6241 139.643 14.1394 138.092C15.6595 136.547 16.6041 134.403 16.6238 132.037L16.6434 129.671L36.2333 134.332C36.8188 134.469 37.2566 134.971 37.3403 135.589C38.8211 146.611 42.2648 156.989 47.2975 166.333C47.5976 166.885 47.5288 167.574 47.1204 168.051L34.8608 182.32C32.1205 178.586 26.9008 177.815 23.2406 180.785C19.8068 183.572 19.2262 188.72 21.7205 192.414L26.1776 199.027C28.7358 202.818 33.7981 203.998 37.5469 201.46C41.1382 199.027 42.2451 194.223 40.2773 190.433L57.6828 183.08C58.2437 182.842 58.8882 182.994 59.3014 183.455C66.1249 191.092 74.2275 197.492 83.2599 202.296C83.7961 202.585 84.111 203.172 84.0421 203.791L81.6807 225.768L81.3511 225.646C76.4512 223.807 70.8281 226.371 69.1357 231.453C67.4876 236.384 69.977 241.781 74.749 243.569L89.0109 248.926C94.1273 250.851 98.3139 247.831 98.3139 242.221C98.6977 241.137 98.8797 240.027 98.8797 238.933C98.8797 235.021 96.5379 231.347 92.7597 229.928L92.3513 229.776L103.957 211.022C104.281 210.5 104.887 210.241 105.477 210.363C111.07 211.539 116.856 212.162 122.789 212.162C123.487 212.162 124.196 212.153 124.891 212.136C92.4571 194.519 70.3282 159.443 70.3282 119.05Z" fill="#F37C7C"/>
<path d="M74.9932 172.757C80.3246 172.757 84.6465 168.305 84.6465 162.814C84.6465 157.322 80.3246 152.87 74.9932 152.87C69.6619 152.87 65.34 157.322 65.34 162.814C65.34 168.305 69.6619 172.757 74.9932 172.757Z" fill="#EE6161"/>
<path d="M146.437 119.05H143.175C141.137 119.05 139.485 117.349 139.485 115.25C139.485 113.151 141.137 111.449 143.175 111.449H146.437C148.475 111.449 150.127 113.151 150.127 115.25C150.127 117.349 148.475 119.05 146.437 119.05Z" fill="#F9B1B1"/>
<path d="M102.984 185.483H99.6328C97.5946 185.483 95.9431 183.781 95.9431 181.682C95.9431 179.583 97.5946 177.882 99.6328 177.882H102.984C105.022 177.882 106.674 179.583 106.674 181.682C106.674 183.781 105.022 185.483 102.984 185.483Z" fill="#F9B1B1"/>
<path d="M68.5681 130.137H65.3399C63.3017 130.137 61.6501 128.435 61.6501 126.336C61.6501 124.237 63.3017 122.536 65.3399 122.536H68.5681C70.6063 122.536 72.2578 124.237 72.2578 126.336C72.2578 128.435 70.6063 130.137 68.5681 130.137Z" fill="#EE6161"/>
<path d="M134.101 63.6444H129.608C127.57 63.6444 125.919 61.9428 125.919 59.8439C125.919 57.745 127.57 56.0434 129.608 56.0434H134.101C136.139 56.0434 137.791 57.745 137.791 59.8439C137.791 61.9428 136.139 63.6444 134.101 63.6444Z" fill="#F9B1B1"/>
<path d="M163.607 173.111H158.646C156.608 173.111 154.956 171.41 154.956 169.311C154.956 167.212 156.608 165.51 158.646 165.51H163.607C165.645 165.51 167.297 167.212 167.297 169.311C167.297 171.41 165.645 173.111 163.607 173.111Z" fill="#EE6161"/>
<path d="M107.33 107.185C118.347 98.2364 121.396 83.2995 114.141 73.8223C106.886 64.345 92.0729 63.9161 81.0558 72.8644C70.0387 81.8127 66.9891 96.7495 74.2444 106.227C81.4997 115.704 96.3124 116.133 107.33 107.185Z" fill="#EE6161"/>
</svg>
