<svg width="133" height="133" viewBox="0 0 133 133" fill="none" xmlns="http://www.w3.org/2000/svg">
<g clip-path="url(#clip0)">
<path d="M37.9467 31.9283C37.1516 30.5016 37.662 28.7014 39.086 27.906L44.3846 24.9493C45.851 24.1305 47.7142 24.6947 48.4719 26.2154C49.1823 27.6391 48.5828 29.3754 47.1942 30.1507L47.0514 30.2293L52.3015 35.8821C52.4586 36.0529 52.7064 36.1071 52.9228 36.0185C55.1441 35.1231 57.4379 34.478 59.7595 34.0833C59.9948 34.0434 60.1812 33.8605 60.2209 33.6251L61.107 28.407C60.1779 28.3072 59.3512 27.849 58.7736 27.1673C58.287 26.5929 57.9768 25.8591 57.9373 25.0479C57.8393 23.0854 59.3519 21.4153 61.3159 21.316L62.9397 21.2359C64.8468 21.1401 66.5544 22.5262 66.7437 24.4289C66.9076 26.0664 65.9439 27.5257 64.5144 28.094L66.0422 33.2352C66.112 33.4676 66.3214 33.6266 66.5622 33.6343C69.9364 33.7556 73.2859 34.3861 76.4891 35.5142C76.7093 35.5918 76.9534 35.527 77.1043 35.3493L82.1402 29.4359L81.1052 28.8876C79.6206 28.0999 79.082 26.2291 79.9476 24.7657C80.7582 23.3963 82.5413 22.957 83.9457 23.7031L89.2346 26.505C90.718 27.2913 91.2566 29.1622 90.391 30.6255C89.5804 31.9949 87.7973 32.4342 86.3914 31.6894L86.2494 31.6129L84.3547 39.0931C84.2969 39.319 84.3867 39.5543 84.5779 39.6889C86.8387 41.284 88.9392 43.1869 90.812 45.3974C92.294 47.1467 93.5607 49.0035 94.6214 50.9378C94.734 51.1413 94.9591 51.2571 95.1896 51.2262L103.457 50.0999L103.398 49.9427C102.86 48.4847 103.327 46.9033 104.447 45.9547C104.76 45.6892 105.123 45.4738 105.53 45.324C107.135 43.9636 109.045 44.4656 109.772 46.441L111.801 51.9448C112.481 53.7855 111.558 55.8281 109.736 56.5379C107.858 57.2714 105.72 56.2354 105.022 54.3446L104.975 54.218L98.0942 58.8512C97.9 58.9808 97.8104 59.2162 97.8617 59.4443C98.7428 63.2723 98.9347 67.2132 98.4533 71.0769C98.4245 71.3105 98.542 71.5374 98.7503 71.645L105.202 74.9936C105.796 73.4943 107.447 72.6557 109.041 73.1247C110.704 73.6143 111.63 75.3931 111.184 77.0665L110.405 79.9843C109.97 81.6155 108.352 82.6928 106.696 82.3563C104.932 81.9972 103.849 80.2715 104.233 78.558L97.0865 78.4038C96.8482 78.399 96.6337 78.5458 96.5506 78.7682C95.1331 82.518 93.0227 86.05 90.2379 89.1593C90.0818 89.3338 90.0476 89.5846 90.1547 89.7904L93.7135 96.6966L94.3957 96.1285C95.078 95.5605 95.9275 95.3192 96.7496 95.3925C97.5719 95.4633 98.3656 95.8472 98.9407 96.526C100.084 97.875 99.908 99.8998 98.548 101.03L94.3199 104.547C92.9379 105.698 90.821 105.543 89.696 104.142C88.6039 102.782 88.7981 100.794 90.1386 99.6704L83.9365 95.0759C83.7484 94.9363 83.4954 94.9288 83.2988 95.0555C79.5818 97.4322 75.5201 98.9873 71.3559 99.7421C71.1231 99.7849 70.9408 99.9668 70.9011 100.202L70.0061 105.657L70.521 105.629C72.1199 105.54 73.4816 106.804 73.496 108.423C73.5079 109.943 72.2685 111.18 70.7523 111.264L66.8011 111.482C65.8839 111.531 65.045 111.138 64.4933 110.487C64.1111 110.036 63.8674 109.46 63.8311 108.823C63.7482 107.346 64.8191 106.075 66.2599 105.876L64.6742 100.652C64.6042 100.422 64.396 100.264 64.1555 100.254C60.6484 100.126 57.1667 99.4452 53.8484 98.2252C53.6297 98.1464 53.3846 98.2071 53.2312 98.3819L48.1158 104.228L49.1456 104.791C50.618 105.596 51.1315 107.476 50.2468 108.926C49.4181 110.285 47.6291 110.7 46.2342 109.936L40.9849 107.063C39.5113 106.256 38.9975 104.379 39.8836 102.928C40.7109 101.569 42.4987 101.153 43.8963 101.918L44.0369 101.996L46.0316 94.5452C46.0921 94.3196 46.0064 94.0832 45.8181 93.9462C43.6918 92.404 41.7179 90.5857 39.9446 88.4927L39.9422 88.4898C39.7874 88.3071 39.5368 88.2378 39.3126 88.3231L35.2644 89.8442C35.9512 91.4724 35.4083 93.4048 33.8857 94.4132C32.1592 95.5545 29.7735 94.997 28.6423 93.262L27.5411 91.5739C26.4196 89.8531 26.824 87.5073 28.527 86.356C29.8541 85.4609 31.5396 85.5328 32.7685 86.3952L35.8096 83.156C35.9737 82.9821 36.0073 82.7219 35.8941 82.5089C34.2764 79.4495 33.1744 76.2048 32.5779 72.8981C32.5349 72.668 32.3596 72.4875 32.1297 72.4456L24.4957 71.0076L24.5325 72.1773C24.5863 73.8584 23.2288 75.2527 21.5301 75.2268C19.939 75.2045 18.6719 73.8736 18.6227 72.2833L18.4322 66.3031C18.3769 64.6234 19.7359 63.2278 21.4346 63.2537C23.0243 63.2772 24.2913 64.6081 24.342 66.1971L24.3474 66.3595L31.7859 64.2906C32.0108 64.2296 32.1713 64.0338 32.1933 63.8009C32.5004 60.5609 33.2801 57.364 34.5216 54.3239C34.6113 54.1034 34.554 53.8505 34.377 53.6915L30.9279 50.6115C29.9299 52.339 27.6965 52.9231 25.9752 51.8649C24.3335 50.8564 23.834 48.6934 24.7769 47.0126L26.2532 44.3791C27.188 42.7151 29.2662 42.0008 30.9769 42.8437C32.6163 43.6524 33.3371 45.5207 32.7853 47.1692L37.2086 48.4023C37.4406 48.4674 37.6869 48.3758 37.8221 48.1766C39.4782 45.7495 41.4822 43.5036 43.8319 41.5129C44.225 41.1798 44.6225 40.858 45.0258 40.5487C45.2103 40.4048 45.2894 40.1659 45.2229 39.9432L42.9916 32.4953L41.969 33.0676C40.5423 33.8628 38.7421 33.3524 37.9467 31.9283Z" fill="#F79595"/>
<path d="M46.5026 63.9663C44.8225 61.9832 42.1164 61.5144 40.4583 62.9191C38.8001 64.3239 38.818 67.0703 40.4981 69.0534C42.1782 71.0365 44.8843 71.5054 46.5425 70.1006C48.2006 68.6958 48.1827 65.9494 46.5026 63.9663Z" fill="#EE6161"/>
<path d="M77.0995 60.3028C75.2631 58.1352 72.0172 57.8667 69.8496 59.7031C67.682 61.5395 67.4136 64.7854 69.25 66.953C71.0864 69.1206 74.3323 69.3891 76.4998 67.5527C78.6674 65.7163 78.9359 62.4704 77.0995 60.3028Z" fill="#EE6161"/>
<path d="M60.9812 47.6834C59.6663 46.1314 57.3423 45.9392 55.7903 47.2541C54.2383 48.5689 54.0461 50.8929 55.361 52.4449C56.6758 53.9969 58.9998 54.1891 60.5518 52.8743C62.1038 51.5594 62.296 49.2354 60.9812 47.6834Z" fill="#F9B1B1"/>
<path d="M83.4094 46.5095C82.1311 45.0006 79.8716 44.8137 78.3627 46.0921C76.8538 47.3704 76.6669 49.6299 77.9453 51.1388C79.2236 52.6477 81.4831 52.8345 82.992 51.5562C84.5008 50.2779 84.6877 48.0184 83.4094 46.5095Z" fill="#F9B1B1"/>
<path d="M77.2642 83.4441C67.487 91.7275 54.8456 94.4253 43.2289 91.8621C44.0621 92.6045 44.9281 93.3007 45.8183 93.9463C46.0066 94.0832 46.0922 94.3196 46.0318 94.5453L44.037 101.996L43.8964 101.918C42.4989 101.154 40.711 101.569 39.8838 102.928C38.9977 104.379 39.5114 106.256 40.985 107.063L46.2344 109.936C47.6292 110.7 49.4183 110.285 50.247 108.926C51.1317 107.476 50.6181 105.596 49.1458 104.791L48.116 104.228L53.2313 98.3819C53.3847 98.2071 53.6298 98.1465 53.8486 98.2253C57.1669 99.4453 60.6485 100.126 64.1556 100.254C64.3962 100.264 64.6044 100.422 64.6744 100.652L66.2601 105.876C64.8193 106.075 63.7484 107.346 63.8312 108.823C63.8676 109.46 64.1113 110.036 64.4934 110.487C65.0452 111.138 65.884 111.531 66.8013 111.482L70.7524 111.264C72.2687 111.18 73.508 109.943 73.4961 108.423C73.4817 106.804 72.1201 105.541 70.5211 105.629L70.0063 105.657L70.9012 100.202C70.9409 99.9668 71.1232 99.785 71.3561 99.7422C75.5202 98.9873 79.582 97.4323 83.299 95.0556C83.4956 94.9289 83.7485 94.9363 83.9366 95.076L90.1388 99.6705C88.7982 100.794 88.6041 102.782 89.6961 104.142C90.8211 105.543 92.9381 105.698 94.32 104.547L98.5481 101.03C99.9081 99.8999 100.084 97.875 98.9409 96.5261C98.3658 95.8473 97.5721 95.4633 96.7497 95.3926C95.9276 95.3192 95.0782 95.5605 94.3959 96.1286L93.7136 96.6966L90.1548 89.7904C90.0477 89.5846 90.082 89.3339 90.238 89.1593C93.0229 86.05 95.1332 82.518 96.5508 78.7683C96.6339 78.5458 96.8484 78.399 97.0867 78.4039L104.233 78.558C103.849 80.2716 104.932 81.9973 106.696 82.3563C108.352 82.6929 109.971 81.6155 110.405 79.9843L111.184 77.0666C111.63 75.3932 110.704 73.6143 109.041 73.1248C107.448 72.6558 105.796 73.4943 105.203 74.9937L98.7504 71.645C98.5422 71.5374 98.4247 71.3106 98.4535 71.0769C98.9349 67.2133 98.7429 63.2724 97.8618 59.4444C97.8105 59.2163 97.9001 58.9809 98.0943 58.8513L104.975 54.218L105.022 54.3447C105.72 56.2354 107.858 57.2715 109.736 56.5379C111.559 55.8282 112.482 53.7855 111.802 51.9448L109.772 46.4411C109.046 44.4656 107.135 43.9637 105.53 45.324C105.123 45.4739 104.76 45.6893 104.447 45.9547C103.327 46.9034 102.861 48.4847 103.398 49.9427L103.457 50.1L95.1898 51.2263C94.9593 51.2571 94.7342 51.1414 94.6215 50.9379C93.5608 49.0036 92.2941 47.1467 90.8121 45.3975C90.6378 45.1917 90.458 44.9847 90.2798 44.7841C93.3386 58.6186 88.826 73.6488 77.2642 83.4441Z" fill="#F37C7C"/>
<path d="M91.4716 69.0449C90.1399 67.473 87.7861 67.2783 86.2143 68.61C84.6424 69.9417 84.4478 72.2955 85.7794 73.8673C87.1111 75.4391 89.4649 75.6338 91.0367 74.3022C92.6086 72.9705 92.8033 70.6167 91.4716 69.0449Z" fill="#EE6161"/>
<path d="M58.2533 61.0048L59.068 61.9665C59.5771 62.5674 59.5026 63.467 58.9018 63.976C58.301 64.4849 57.4014 64.4107 56.8923 63.8097L56.0776 62.8481C55.5685 62.2472 55.643 61.3476 56.2438 60.8386C56.8446 60.3296 57.7442 60.4039 58.2533 61.0048Z" fill="#F9B1B1"/>
<path d="M88.1225 57.7061L88.9596 58.6941C89.4687 59.2951 89.3942 60.1946 88.7934 60.7036C88.1926 61.2126 87.293 61.1383 86.7839 60.5374L85.9469 59.5494C85.4377 58.9484 85.5123 58.0489 86.1131 57.5399C86.7138 57.0309 87.6134 57.1052 88.1225 57.7061Z" fill="#F9B1B1"/>
<path d="M80.877 81.2746L81.6834 82.2264C82.1925 82.8273 82.1179 83.7269 81.5172 84.2358C80.9164 84.7448 80.0168 84.6706 79.5077 84.0696L78.7013 83.1178C78.1922 82.5169 78.2668 81.6174 78.8675 81.1084C79.4683 80.5994 80.3679 80.6737 80.877 81.2746Z" fill="#EE6161"/>
<path d="M45.4757 78.0781L46.5979 79.4026C47.107 80.0036 47.0325 80.9031 46.4317 81.4121C45.8309 81.9211 44.9314 81.8468 44.4222 81.2459L43.3001 79.9213C42.791 79.3204 42.8655 78.4209 43.4663 77.9119C44.0671 77.4029 44.9666 77.4772 45.4757 78.0781Z" fill="#F9B1B1"/>
<path d="M69.4388 42.8328L70.678 44.2955C71.1871 44.8964 71.1126 45.796 70.5118 46.3049C69.911 46.8139 69.0114 46.7396 68.5023 46.1387L67.2632 44.6761C66.7541 44.0752 66.8286 43.1756 67.4294 42.6666C68.0302 42.1576 68.9299 42.2321 69.4388 42.8328Z" fill="#EE6161"/>
<path d="M64.6254 75.4123C59.3122 74.3341 54.275 77.0572 53.3745 81.4945C52.4741 85.9319 56.0513 90.4031 61.3645 91.4813C66.6777 92.5595 71.7148 89.8364 72.6153 85.3991C73.5158 80.9618 69.9386 76.4905 64.6254 75.4123Z" fill="#EE6161"/>
</g>
<defs>
<clipPath id="clip0">
<rect width="94.2853" height="94.2853" fill="white" transform="translate(60.947 132.886) rotate(-130.272)"/>
</clipPath>
</defs>
</svg>
