<svg width="75" height="75" viewBox="0 0 75 75" fill="none" xmlns="http://www.w3.org/2000/svg">
<g clip-path="url(#clip0)">
<path d="M54.8688 54.4261C55.3912 55.1637 55.2177 56.1845 54.4816 56.7069L51.7427 58.6492C50.9847 59.1871 49.926 58.9877 49.4185 58.1962C48.9429 57.4552 49.1693 56.4643 49.8871 55.955L49.9609 55.9033L46.7358 53.1061C46.6391 53.0215 46.4996 53.0064 46.3858 53.0681C45.2171 53.693 43.9936 54.1846 42.7398 54.54C42.6128 54.576 42.5211 54.6877 42.5133 54.8196L42.3366 57.7432C42.8537 57.7427 43.3358 57.9456 43.6942 58.2862C43.9961 58.5732 44.2105 58.9584 44.2806 59.4024C44.4514 60.4763 43.7187 61.4852 42.6441 61.6568L41.7555 61.7976C40.712 61.964 39.69 61.3031 39.4725 60.2676C39.2848 59.3764 39.728 58.5162 40.4806 58.1184L39.3338 55.3809C39.2816 55.2572 39.1569 55.1822 39.0239 55.1923C37.1604 55.3266 35.28 55.1793 33.4506 54.7494C33.3248 54.7199 33.1944 54.77 33.1219 54.8768L30.7036 58.4301L31.3057 58.6701C32.1694 59.0151 32.5772 60.0123 32.1881 60.8689C31.8237 61.6706 30.869 62.0185 30.0518 61.6917L26.9751 60.4653C26.1122 60.121 25.7045 59.1239 26.0935 58.2672C26.4579 57.4655 27.4127 57.1176 28.2305 57.4436L28.3132 57.4773L28.91 53.249C28.9283 53.1213 28.8649 52.9972 28.7517 52.9346C27.4128 52.1917 26.1438 51.2699 24.9818 50.1653C24.0623 49.2912 23.2548 48.3451 22.556 47.3442C22.4819 47.2389 22.3512 47.1886 22.2262 47.2193L17.7451 48.3315L17.7866 48.4145C18.1693 49.1846 18.0068 50.0824 17.4472 50.671C17.2907 50.8357 17.1037 50.9759 16.8892 51.0825C16.0868 51.9266 15.006 51.7642 14.4884 50.7207L13.0441 47.8137C12.5604 46.8415 12.9465 45.6627 13.9071 45.1636C14.8963 44.6482 16.1346 45.0908 16.6309 46.0894L16.6646 46.1563L20.174 43.1974C20.2731 43.1145 20.3083 42.9797 20.2665 42.8572C19.5537 40.8037 19.2133 38.647 19.248 36.4927C19.2499 36.3624 19.1718 36.2446 19.0508 36.1978L15.3015 34.7399C15.0644 35.6001 14.2057 36.1599 13.3012 35.9967C12.3571 35.8265 11.7414 34.903 11.8871 33.9558L12.1421 32.3041C12.2839 31.3808 13.1102 30.6917 14.0411 30.7782C15.0331 30.8706 15.7319 31.7555 15.6224 32.7212L19.5635 32.3802C19.6949 32.3687 19.8041 32.2751 19.8366 32.1478C20.3931 30.0004 21.3437 27.9315 22.6906 26.055C22.7661 25.9496 22.77 25.8096 22.6988 25.7028L20.3294 22.1152L19.9879 22.4684C19.6464 22.8216 19.1934 23.005 18.7368 23.0136C18.2801 23.0236 17.8206 22.8597 17.4638 22.5205C16.7547 21.8464 16.7306 20.722 17.4115 20.0194L19.5281 17.8324C20.2199 17.1169 21.3938 17.076 22.0962 17.78C22.778 18.4629 22.7896 19.5683 22.119 20.2662L25.8049 22.4244C25.9167 22.4901 26.0563 22.4791 26.157 22.3977C28.0603 20.8687 30.2023 19.7711 32.4483 19.1078C32.5739 19.0704 32.6633 18.9595 32.6711 18.8275L32.8385 15.7732L32.5569 15.8191C31.6826 15.9633 30.8582 15.3494 30.7537 14.4592C30.6567 13.6238 31.2648 12.8694 32.094 12.7331L34.2548 12.3777C34.7565 12.2958 35.2414 12.4621 35.5838 12.7875C35.8209 13.0129 35.9893 13.3152 36.0472 13.6635C36.1808 14.4712 35.6673 15.2342 34.8865 15.4296L36.0702 18.2094C36.1224 18.3316 36.2463 18.4058 36.3793 18.3972C38.3164 18.2589 40.2724 18.4258 42.1707 18.8993C42.2957 18.9296 42.4269 18.8817 42.5009 18.7764L44.9669 15.2553L44.3668 15.0071C43.5088 14.6516 43.1143 13.6481 43.5147 12.7979C43.8896 12.0003 44.8492 11.6657 45.6621 12.003L48.7212 13.2709C49.58 13.6271 49.9745 14.6291 49.5734 15.4801C49.1992 16.2768 48.2404 16.6122 47.426 16.2749L47.344 16.2405L46.6904 20.4583C46.6706 20.586 46.7318 20.7109 46.8435 20.7751C48.1052 21.4969 49.2996 22.3796 50.3998 23.4255L50.4013 23.4269C50.4974 23.5183 50.6394 23.5414 50.7576 23.4812L52.8942 22.4031C52.4194 21.5483 52.6029 20.4528 53.3805 19.8073C54.2624 19.0765 55.6081 19.2411 56.3338 20.1283L57.0402 20.9914C57.7598 21.8713 57.677 23.186 56.8087 23.9208C56.1319 24.4924 55.2003 24.5532 54.4728 24.1519L52.9927 26.1152C52.9128 26.2206 52.9098 26.3658 52.9848 26.4763C54.057 28.0631 54.8566 29.7825 55.3818 31.5662C55.4191 31.6903 55.5263 31.7791 55.6553 31.7884L59.9409 32.1248L59.851 31.4834C59.7212 30.5618 60.385 29.7138 61.3212 29.6268C62.1978 29.5444 62.9742 30.2011 63.096 31.073L63.5571 34.3518C63.6876 35.2726 63.0231 36.1214 62.087 36.2084C61.211 36.2901 60.4346 35.6334 60.3121 34.7622L60.2994 34.6732L56.3303 36.2546C56.2102 36.3015 56.1335 36.4188 56.1353 36.5482C56.1594 38.3491 55.9209 40.1544 55.419 41.9008C55.3827 42.0275 55.4293 42.1632 55.5362 42.2401L57.6172 43.7292C58.0634 42.7193 59.2573 42.2649 60.2673 42.7445C61.2306 43.2016 61.6343 44.3618 61.2157 45.3427L60.5604 46.8795C60.1452 47.8507 59.0444 48.3675 58.053 48.0057C57.1029 47.6584 56.5951 46.6735 56.8004 45.7337L54.2934 45.3187C54.1619 45.2968 54.0319 45.3618 53.9694 45.4795C53.2028 46.9135 52.2341 48.2685 51.06 49.5037C50.8636 49.7103 50.664 49.911 50.4606 50.1052C50.3676 50.1954 50.3383 50.3315 50.3882 50.4501L52.0595 54.4147L52.588 54.0389C53.3255 53.5165 54.3464 53.69 54.8688 54.4261Z" fill="#F79595"/>
<path d="M48.253 37.3097C49.2954 38.3006 50.8122 38.3973 51.6408 37.5257C52.4693 36.6541 52.2959 35.1441 51.2534 34.1532C50.2109 33.1623 48.6942 33.0655 47.8656 33.9372C47.0371 34.8088 47.2105 36.3187 48.253 37.3097Z" fill="#EE6161"/>
<path d="M31.638 41.148C32.7775 42.2311 34.5792 42.1855 35.6624 41.046C36.7455 39.9065 36.6998 38.1048 35.5604 37.0216C34.4209 35.9385 32.6191 35.9842 31.536 37.1236C30.4529 38.2631 30.4985 40.0649 31.638 41.148Z" fill="#EE6161"/>
<path d="M41.2575 47.1305C42.0733 47.906 43.3633 47.8733 44.1389 47.0574C44.9144 46.2416 44.8817 44.9516 44.0658 44.1761C43.25 43.4005 41.9599 43.4332 41.1844 44.2491C40.4089 45.0649 40.4416 46.355 41.2575 47.1305Z" fill="#F9B1B1"/>
<path d="M28.9881 49.1125C29.7813 49.8665 31.0356 49.8347 31.7895 49.0415C32.5435 48.2483 32.5117 46.9941 31.7185 46.2401C30.9254 45.4862 29.6711 45.5179 28.9172 46.3111C28.1632 47.1043 28.195 48.3585 28.9881 49.1125Z" fill="#F9B1B1"/>
<path d="M30.1688 28.4263C35.0544 23.2867 41.8485 21.0493 48.3923 21.7675C47.8896 21.4087 47.3717 21.0772 46.8435 20.7751C46.7318 20.711 46.6706 20.586 46.6904 20.4583L47.344 16.2405L47.4259 16.2749C48.2404 16.6122 49.1992 16.2768 49.5734 15.4801C49.9745 14.6291 49.58 13.6271 48.7212 13.2709L45.6621 12.0031C44.8491 11.6657 43.8895 12.0004 43.5146 12.7979C43.1143 13.6481 43.5088 14.6516 44.3668 15.0071L44.9669 15.2553L42.5009 18.7764C42.4269 18.8817 42.2957 18.9296 42.1706 18.8993C40.2723 18.4258 38.3163 18.2589 36.3792 18.3972C36.2462 18.4058 36.1223 18.3316 36.0701 18.2094L34.8865 15.4296C35.6673 15.2343 36.1808 14.4712 36.0472 13.6635C35.9892 13.3152 35.8209 13.0129 35.5837 12.7875C35.2414 12.4621 34.7565 12.2958 34.2548 12.3777L32.094 12.7331C31.2648 12.8695 30.6566 13.6238 30.7537 14.4592C30.8581 15.3494 31.6825 15.9633 32.5569 15.8191L32.8385 15.7732L32.6711 18.8276C32.6633 18.9595 32.5738 19.0704 32.4483 19.1078C30.2023 19.7711 28.0603 20.8687 26.1569 22.3977C26.0563 22.4791 25.9167 22.4901 25.8049 22.4244L22.119 20.2662C22.7896 19.5683 22.778 18.4629 22.0962 17.78C21.3938 17.076 20.2199 17.1169 19.5281 17.8324L17.4115 20.0194C16.7306 20.722 16.7546 21.8465 17.4637 22.5205C17.8206 22.8597 18.2801 23.0237 18.7367 23.0136C19.1934 23.005 19.6464 22.8216 19.9879 22.4684L20.3294 22.1153L22.6988 25.7028C22.7699 25.8096 22.766 25.9496 22.6906 26.055C21.3437 27.9315 20.3931 30.0004 19.8366 32.1478C19.8041 32.2751 19.6949 32.3687 19.5634 32.3802L15.6224 32.7212C15.7319 31.7555 15.033 30.8706 14.041 30.7782C13.1102 30.6917 12.2839 31.3808 12.1421 32.3041L11.887 33.9558C11.7414 34.903 12.3571 35.8265 13.3012 35.9968C14.2057 36.1599 15.0644 35.6001 15.3015 34.7399L19.0508 36.1978C19.1718 36.2446 19.2499 36.3624 19.248 36.4927C19.2133 38.647 19.5537 40.8037 20.2665 42.8572C20.3083 42.9797 20.273 43.1145 20.1739 43.1974L16.6646 46.1563L16.6309 46.0894C16.1346 45.0908 14.8963 44.6482 13.9071 45.1636C12.9464 45.6627 12.5604 46.8415 13.0441 47.8137L14.4884 50.7207C15.006 51.7642 16.0868 51.9266 16.8891 51.0825C17.1037 50.9759 17.2906 50.8357 17.4472 50.671C18.0067 50.0824 18.1693 49.1846 17.7866 48.4145L17.7451 48.3315L22.2261 47.2193C22.3511 47.1886 22.4819 47.2389 22.556 47.3442C23.2548 48.3451 24.0623 49.2912 24.9818 50.1653C25.09 50.2682 25.2013 50.3713 25.3112 50.4711C22.8042 43.0421 24.3914 34.5041 30.1688 28.4263Z" fill="#F37C7C"/>
<path d="M23.2103 37.1947C24.0366 37.9801 25.3431 37.947 26.1286 37.1207C26.914 36.2944 26.8809 34.9879 26.0546 34.2025C25.2283 33.417 23.9218 33.4501 23.1363 34.2764C22.3509 35.1027 22.384 36.4092 23.2103 37.1947Z" fill="#EE6161"/>
<path d="M41.9647 39.639L41.4592 39.1585C41.1433 38.8582 41.1307 38.3589 41.4309 38.043C41.7311 37.7272 42.2304 37.7145 42.5463 38.0148L43.0519 38.4953C43.3677 38.7956 43.3803 39.2949 43.0801 39.6107C42.7799 39.9265 42.2806 39.9393 41.9647 39.639Z" fill="#F9B1B1"/>
<path d="M25.7282 43.2333L25.2088 42.7396C24.8929 42.4393 24.8803 41.94 25.1805 41.6241C25.4807 41.3083 25.9801 41.2956 26.296 41.5959L26.8154 42.0896C27.1313 42.3899 27.1438 42.8892 26.8436 43.205C26.5434 43.5209 26.0441 43.5336 25.7282 43.2333Z" fill="#F9B1B1"/>
<path d="M28.3103 29.8352L27.81 29.3596C27.4941 29.0593 27.4815 28.5599 27.7817 28.2441C28.0819 27.9283 28.5813 27.9156 28.8972 28.2159L29.3975 28.6915C29.7134 28.9917 29.726 29.4911 29.4258 29.8069C29.1256 30.1227 28.6262 30.1354 28.3103 29.8352Z" fill="#EE6161"/>
<path d="M47.9772 29.4848L47.2809 28.8229C46.9651 28.5226 46.9525 28.0233 47.2527 27.7075C47.5529 27.3916 48.0522 27.3789 48.3681 27.6792L49.0644 28.3411C49.3803 28.6413 49.3929 29.1407 49.0927 29.4565C48.7925 29.7723 48.2931 29.785 47.9772 29.4848Z" fill="#F9B1B1"/>
<path d="M36.8933 50.303L36.1245 49.5721C35.8086 49.2719 35.796 48.7725 36.0962 48.4567C36.3964 48.1409 36.8957 48.1281 37.2116 48.4284L37.9805 49.1593C38.2964 49.4596 38.309 49.9589 38.0088 50.2747C37.7086 50.5905 37.2091 50.6032 36.8933 50.303Z" fill="#EE6161"/>
<path d="M37.6007 32.0922C40.588 32.3688 43.1971 30.5706 43.4281 28.0757C43.6592 25.5808 41.4248 23.334 38.4374 23.0573C35.4501 22.7807 32.841 24.5789 32.61 27.0738C32.3789 29.5687 34.6133 31.8155 37.6007 32.0922Z" fill="#EE6161"/>
</g>
<defs>
<clipPath id="clip0">
<rect width="52.1755" height="52.1755" fill="white" transform="translate(36.2004 0.253296) rotate(43.5482)"/>
</clipPath>
</defs>
</svg>
