<svg width="197" height="197" viewBox="0 0 197 197" fill="none" xmlns="http://www.w3.org/2000/svg">
<g clip-path="url(#clip0)">
<path d="M145.654 144.474C147.048 146.441 146.585 149.163 144.622 150.556L137.317 155.736C135.296 157.171 132.472 156.639 131.119 154.528C129.85 152.552 130.454 149.909 132.369 148.551L132.565 148.413L123.964 140.953C123.707 140.728 123.334 140.687 123.031 140.852C119.914 142.518 116.651 143.829 113.308 144.777C112.969 144.873 112.724 145.171 112.703 145.523L112.232 153.32C113.611 153.319 114.897 153.86 115.853 154.768C116.658 155.534 117.23 156.561 117.417 157.745C117.872 160.609 115.918 163.3 113.052 163.757L110.682 164.133C107.9 164.576 105.174 162.814 104.594 160.052C104.093 157.676 105.275 155.382 107.282 154.321L104.224 147.02C104.085 146.69 103.752 146.49 103.398 146.517C98.4277 146.875 93.413 146.482 88.5339 145.336C88.1985 145.257 87.8507 145.391 87.6575 145.676L81.2081 155.152L82.8138 155.792C85.1173 156.712 86.2047 159.371 85.1672 161.656C84.1954 163.794 81.649 164.722 79.4698 163.85L71.2646 160.579C68.9632 159.661 67.8758 157.002 68.9133 154.717C69.8851 152.579 72.4314 151.652 74.6125 152.521L74.8331 152.611L76.4246 141.335C76.4735 140.994 76.3044 140.663 76.0025 140.496C72.4319 138.515 69.0476 136.056 65.9487 133.111C63.4963 130.779 61.3428 128.256 59.4792 125.587C59.2816 125.306 58.9329 125.172 58.5996 125.254L46.649 128.22L46.7598 128.441C47.7802 130.495 47.3468 132.889 45.8546 134.459C45.4371 134.898 44.9385 135.272 44.3663 135.557C42.2266 137.808 39.3441 137.375 37.9638 134.592L34.112 126.839C32.8219 124.246 33.8515 121.102 36.4134 119.771C39.0516 118.397 42.3539 119.577 43.6776 122.241L43.7674 122.419L53.1265 114.528C53.3908 114.307 53.4849 113.947 53.3734 113.62C51.4724 108.144 50.5646 102.392 50.6571 96.6469C50.6622 96.2995 50.4538 95.9853 50.1312 95.8605L40.1322 91.9723C39.4998 94.2665 37.2099 95.7593 34.7977 95.3243C32.2798 94.8702 30.6377 92.4074 31.0262 89.8813L31.7063 85.4765C32.0845 83.0141 34.2883 81.1762 36.7707 81.407C39.4163 81.6535 41.2799 84.0134 40.988 86.5887L51.4984 85.6793C51.8489 85.6486 52.1402 85.3991 52.2269 85.0596C53.711 79.3326 56.2462 73.8151 59.8382 68.8105C60.0394 68.5296 60.0498 68.1562 59.86 67.8713L53.5412 58.3037L52.6304 59.2456C51.7196 60.1875 50.5115 60.6765 49.2936 60.6994C48.0759 60.7263 46.8503 60.289 45.8987 59.3844C44.0076 57.5868 43.9435 54.588 45.7594 52.7143L51.4042 46.8818C53.249 44.9736 56.3797 44.8645 58.2529 46.742C60.0712 48.5632 60.1023 51.5114 58.3138 53.3724L68.1438 59.1283C68.4419 59.3033 68.8143 59.274 69.0826 59.0568C74.1587 54.9791 79.8711 52.0522 85.861 50.283C86.1958 50.1833 86.4344 49.8875 86.4553 49.5357L86.9017 41.3902L86.1507 41.5124C83.8188 41.8969 81.6202 40.2599 81.3418 37.8856C81.0829 35.6577 82.7048 33.646 84.9162 33.2824L90.6788 32.3347C92.0168 32.1162 93.3099 32.5597 94.223 33.4276C94.8554 34.0287 95.3044 34.8349 95.4589 35.7637C95.8152 37.9177 94.4459 39.9527 92.3635 40.4738L95.5201 47.8871C95.6594 48.213 95.9898 48.411 96.3445 48.3881C101.511 48.0191 106.727 48.4643 111.79 49.7271C112.123 49.808 112.473 49.68 112.67 49.3992L119.247 40.0088L117.647 39.3469C115.358 38.3988 114.306 35.7226 115.374 33.4551C116.374 31.3282 118.933 30.4359 121.101 31.3354L129.259 34.7166C131.55 35.6666 132.602 38.3388 131.532 40.6083C130.534 42.7332 127.977 43.6275 125.805 42.728L125.586 42.6363L123.843 53.8847C123.79 54.2254 123.954 54.5586 124.252 54.7296C127.617 56.6546 130.802 59.0088 133.736 61.798L133.74 61.8018C133.996 62.0454 134.375 62.1072 134.69 61.9464L140.388 59.0714C139.122 56.7916 139.611 53.87 141.685 52.1486C144.037 50.1998 147.626 50.6387 149.561 53.0047L151.445 55.3065C153.364 57.6531 153.144 61.1593 150.828 63.1191C149.023 64.6432 146.538 64.8054 144.598 63.7353L140.651 68.9711C140.438 69.2524 140.43 69.6396 140.63 69.9341C143.489 74.1659 145.622 78.7515 147.022 83.5085C147.122 83.8393 147.408 84.0762 147.752 84.1012L159.181 84.9982L158.941 83.2878C158.595 80.8299 160.366 78.5684 162.862 78.3364C165.2 78.1164 167.271 79.8678 167.596 82.1933L168.825 90.9374C169.173 93.3932 167.401 95.6567 164.904 95.8887C162.568 96.1067 160.498 94.3553 160.171 92.0318L160.137 91.7945L149.552 96.0119C149.232 96.1371 149.027 96.4498 149.032 96.795C149.096 101.598 148.46 106.412 147.122 111.07C147.025 111.408 147.149 111.77 147.434 111.975L152.984 115.946C154.174 113.253 157.358 112.041 160.052 113.32C162.621 114.539 163.697 117.633 162.581 120.249L160.833 124.348C159.726 126.938 156.79 128.316 154.146 127.351C151.613 126.425 150.258 123.798 150.806 121.292L144.12 120.185C143.769 120.127 143.422 120.3 143.256 120.614C141.211 124.438 138.628 128.052 135.497 131.346C134.973 131.897 134.441 132.432 133.898 132.95C133.65 133.191 133.572 133.554 133.705 133.87L138.162 144.443L139.572 143.441C141.539 142.048 144.261 142.511 145.654 144.474Z" fill="#F79595"/>
<path d="M128.011 98.8258C130.791 101.469 134.836 101.726 137.045 99.4019C139.255 97.0773 138.793 93.0505 136.012 90.4078C133.232 87.765 129.187 87.5071 126.978 89.8317C124.768 92.1563 125.23 96.1831 128.011 98.8258Z" fill="#EE6161"/>
<path d="M83.6999 109.062C86.7387 111.951 91.5438 111.829 94.4324 108.79C97.321 105.751 97.1992 100.946 94.1604 98.0575C91.1216 95.1689 86.3165 95.2907 83.4279 98.3295C80.5393 101.368 80.6611 106.173 83.6999 109.062Z" fill="#EE6161"/>
<path d="M109.354 125.017C111.53 127.085 114.97 126.998 117.039 124.822C119.107 122.646 119.02 119.206 116.844 117.138C114.668 115.069 111.228 115.157 109.16 117.332C107.091 119.508 107.179 122.949 109.354 125.017Z" fill="#F9B1B1"/>
<path d="M76.6333 130.303C78.7486 132.314 82.0935 132.229 84.1043 130.113C86.1151 127.998 86.0303 124.653 83.915 122.642C81.7996 120.632 78.4547 120.716 76.4439 122.832C74.4332 124.947 74.5179 128.292 76.6333 130.303Z" fill="#F9B1B1"/>
<path d="M79.7816 75.1347C92.811 61.4278 110.93 55.4609 128.382 57.3762C127.041 56.4193 125.66 55.5353 124.252 54.7296C123.953 54.5586 123.79 54.2253 123.843 53.8847L125.586 42.6363L125.805 42.728C127.977 43.6275 130.534 42.7332 131.532 40.6083C132.601 38.3388 131.549 35.6666 129.259 34.7165L121.101 31.3354C118.933 30.4359 116.374 31.3282 115.374 33.4551C114.306 35.7226 115.358 38.3988 117.646 39.3469L119.247 40.0088L112.67 49.3992C112.473 49.68 112.123 49.808 111.789 49.7271C106.727 48.4643 101.51 48.0191 96.3443 48.3881C95.9896 48.411 95.6592 48.213 95.5199 47.8871L92.3633 40.4738C94.4457 39.9527 95.815 37.9177 95.4587 35.7637C95.3042 34.8349 94.8552 34.0287 94.2228 33.4276C93.3097 32.5597 92.0166 32.1162 90.6786 32.3346L84.916 33.2824C82.7046 33.646 81.0827 35.6577 81.3416 37.8856C81.62 40.2599 83.8186 41.8969 86.1505 41.5124L86.9015 41.3902L86.4551 49.5357C86.4342 49.8875 86.1956 50.1833 85.8608 50.283C79.8709 52.0522 74.1585 54.9791 69.0824 59.0568C68.8141 59.274 68.4417 59.3033 68.1436 59.1282L58.3136 53.3724C60.1021 51.5113 60.071 48.5632 58.2527 46.742C56.3795 44.8645 53.2488 44.9736 51.404 46.8818L45.7592 52.7143C43.9433 54.588 44.0074 57.5868 45.8985 59.3844C46.8501 60.289 48.0757 60.7263 49.2935 60.6994C50.5113 60.6765 51.7194 60.1875 52.6302 59.2456L53.541 58.3037L59.8598 67.8713C60.0496 68.1562 60.0392 68.5296 59.838 68.8105C56.246 73.815 53.7108 79.3325 52.2267 85.0596C52.14 85.3991 51.8487 85.6486 51.4982 85.6793L40.9878 86.5887C41.2797 84.0134 39.4161 81.6535 36.7705 81.407C34.2881 81.1762 32.0843 83.0141 31.7062 85.4764L31.026 89.8813C30.6376 92.4074 32.2796 94.8702 34.7975 95.3243C37.2097 95.7593 39.4996 94.2665 40.132 91.9723L50.131 95.8605C50.4536 95.9852 50.662 96.2994 50.6569 96.6469C50.5644 102.392 51.4722 108.144 53.3732 113.62C53.4847 113.947 53.3906 114.307 53.1263 114.528L43.7672 122.419L43.6774 122.241C42.3537 119.577 39.0514 118.397 36.4132 119.771C33.8513 121.102 32.8217 124.246 34.1118 126.839L37.9636 134.592C39.3439 137.375 42.2263 137.808 44.3661 135.557C44.9383 135.272 45.4369 134.898 45.8544 134.459C47.3466 132.889 47.78 130.495 46.7596 128.441L46.6488 128.22L58.5994 125.254C58.9327 125.172 59.2814 125.306 59.479 125.587C61.3426 128.256 63.4961 130.779 65.9485 133.11C66.237 133.385 66.5337 133.66 66.827 133.926C60.141 114.114 64.374 91.3437 79.7816 75.1347Z" fill="#F37C7C"/>
<path d="M61.224 98.5191C63.4276 100.614 66.912 100.525 69.0067 98.3219C71.1014 96.1183 71.0131 92.6338 68.8095 90.5391C66.6058 88.4444 63.1214 88.5327 61.0267 90.7363C58.932 92.94 59.0203 96.4244 61.224 98.5191Z" fill="#EE6161"/>
<path d="M111.24 105.038L109.892 103.756C109.05 102.955 109.016 101.624 109.817 100.782C110.617 99.9393 111.949 99.9053 112.791 100.706L114.14 101.988C114.982 102.788 115.016 104.12 114.215 104.962C113.414 105.805 112.083 105.839 111.24 105.038Z" fill="#F9B1B1"/>
<path d="M67.939 114.624L66.5539 113.307C65.7114 112.506 65.6779 111.174 66.4785 110.332C67.2791 109.49 68.6108 109.456 69.4532 110.257L70.8384 111.573C71.6809 112.374 71.7144 113.706 70.9138 114.548C70.1132 115.39 68.7815 115.424 67.939 114.624Z" fill="#F9B1B1"/>
<path d="M74.8255 78.892L73.4912 77.6236C72.6487 76.8228 72.6152 75.4911 73.4158 74.6489C74.2164 73.8066 75.5481 73.7727 76.3906 74.5735L77.7249 75.8418C78.5673 76.6426 78.6009 77.9744 77.8003 78.8166C76.9997 79.6589 75.668 79.6928 74.8255 78.892Z" fill="#EE6161"/>
<path d="M127.275 77.9575L125.418 76.1923C124.576 75.3915 124.542 74.0598 125.343 73.2176C126.143 72.3753 127.475 72.3414 128.318 73.1422L130.174 74.9073C131.017 75.7081 131.05 77.0398 130.25 77.8821C129.449 78.7243 128.118 78.7583 127.275 77.9575Z" fill="#F9B1B1"/>
<path d="M97.7155 133.478L95.665 131.529C94.8225 130.728 94.7889 129.396 95.5896 128.554C96.3902 127.712 97.7219 127.678 98.5643 128.478L100.615 130.428C101.457 131.228 101.491 132.56 100.69 133.402C99.8896 134.245 98.5577 134.278 97.7155 133.478Z" fill="#EE6161"/>
<path d="M99.6018 84.9111C107.569 85.649 114.527 80.8532 115.143 74.1996C115.759 67.5459 109.8 61.5539 101.833 60.8161C93.8663 60.0782 86.9082 64.874 86.292 71.5276C85.6758 78.1813 91.6348 84.1733 99.6018 84.9111Z" fill="#EE6161"/>
</g>
<defs>
<clipPath id="clip0">
<rect width="139.147" height="139.147" fill="white" transform="translate(95.8675) rotate(43.5482)"/>
</clipPath>
</defs>
</svg>
