<svg width="89" height="92" viewBox="0 0 89 92" fill="none" xmlns="http://www.w3.org/2000/svg">
<path d="M86.7456 46.3889C88.2583 46.6957 89.2435 48.2058 88.9474 49.7621L87.8438 55.5511C87.5387 57.1536 85.9955 58.1813 84.4379 57.7876C82.979 57.4198 82.0944 55.8838 82.3833 54.3663L82.4138 54.211L75.1391 54.553C74.9202 54.5622 74.73 54.7119 74.6618 54.9282C73.9512 57.1388 73.0163 59.2459 71.884 61.2162C71.7691 61.4159 71.7871 61.6691 71.9324 61.8465L75.1499 65.7835C75.7887 65.1569 76.6231 64.8316 77.4665 64.8316C78.1771 64.8316 78.8949 65.0626 79.5032 65.5432C80.9764 66.7039 81.2564 68.8757 80.1295 70.3951L79.1964 71.6501C78.1017 73.1251 76.0614 73.5206 74.5756 72.4652C73.2962 71.5577 72.8332 69.9256 73.2962 68.5079L68.6611 66.4101C68.4512 66.3158 68.2089 66.3713 68.0564 66.545C65.9102 68.9719 63.4124 71.0605 60.6453 72.7277C60.4551 72.8423 60.3528 73.0641 60.3887 73.2877L61.5749 80.7402L62.6013 80.3169C64.0745 79.7107 65.7505 80.487 66.2763 82.0488C66.768 83.5109 65.9964 85.1097 64.6021 85.6827L59.3569 87.8452C57.8855 88.4515 56.2095 87.6752 55.6837 86.1133C55.192 84.6513 55.9636 83.0525 57.3579 82.4776L57.4997 82.4203L53.2684 76.3135C53.141 76.1286 52.9166 76.0473 52.7031 76.1046C50.1747 76.7792 47.5225 77.1415 44.7878 77.1415C42.6237 77.1415 40.5134 76.9142 38.4731 76.4853C38.2578 76.441 38.0371 76.5352 37.9186 76.7256L33.6855 83.5663L33.8345 83.6218C35.2126 84.1393 36.0668 85.4794 36.0668 86.9063C36.0668 87.3055 36.0004 87.7103 35.8604 88.1058C35.8604 90.1519 34.3333 91.2536 32.4671 90.5512L27.265 88.5975C25.5244 87.945 24.6164 85.9766 25.2175 84.1781C25.8348 82.3242 27.8859 81.389 29.6732 82.0599L29.7934 82.1043L30.6547 74.0881C30.6798 73.8626 30.565 73.6481 30.3694 73.5428C27.0748 71.7906 24.1193 69.4561 21.6304 66.6707C21.4797 66.5025 21.2446 66.447 21.0401 66.5339L14.6913 69.2158C15.4091 70.5984 15.0053 72.3506 13.6954 73.2378C12.328 74.1638 10.4815 73.7332 9.54841 72.3506L7.92264 69.9385C7.01285 68.5911 7.22459 66.7132 8.47712 65.6966C9.81219 64.6135 11.7161 64.8944 12.7156 66.2567L17.1874 61.0517C17.3363 60.878 17.3614 60.6266 17.252 60.4252C15.4163 57.0168 14.1601 53.2314 13.62 49.2113C13.5895 48.9858 13.4298 48.8028 13.2163 48.7529L6.07076 47.0524L6.06359 47.9156C6.05641 48.7788 5.71187 49.5606 5.15739 50.1244C4.6047 50.69 3.84385 51.0375 3.00405 51.0375C1.33521 51.0375 -0.0160068 49.6346 0.000143278 47.9156L0.046799 42.5684C0.0611545 40.8199 1.46441 39.3467 3.16017 39.3929C4.80568 39.4373 6.11921 40.8309 6.11024 42.5314L13.2037 40.818C13.419 40.7663 13.5787 40.5833 13.6075 40.3578C14.1637 36.1066 15.5221 32.116 17.5193 28.5524C17.6306 28.3528 17.6109 28.1033 17.4655 27.9259L14.083 23.8336L13.7887 24.2329C12.8771 25.475 11.1365 25.6912 9.96113 24.6839C8.85934 23.7375 8.72475 22.0408 9.58968 20.8634L11.8435 17.7951C12.3675 17.0835 13.1624 16.7083 13.9681 16.7083C14.5262 16.7083 15.0897 16.8894 15.5706 17.2628C16.6849 18.1297 16.9469 19.7229 16.2112 20.917L20.9414 23.0241C21.1495 23.1165 21.39 23.061 21.5443 22.8891C23.7766 20.368 26.3911 18.2128 29.2945 16.5179C29.4847 16.4052 29.5906 16.1852 29.5583 15.9616L28.4691 8.49245L27.4355 8.90278C25.9568 9.4887 24.2898 8.68837 23.7856 7.12098C23.3118 5.65156 24.105 4.06384 25.5064 3.50934L30.7785 1.42072C32.259 0.834793 33.9242 1.63327 34.4284 3.20251C34.9022 4.67009 34.1108 6.25781 32.7076 6.81416L32.5658 6.86961L36.7146 13.032C36.8402 13.2186 37.0627 13.3037 37.2762 13.2501C39.6844 12.642 42.1984 12.3204 44.7878 12.3204H44.7914C45.0175 12.3204 45.2203 12.178 45.2956 11.9581L46.6702 7.99894C45.0785 7.48511 44.018 5.86781 44.2207 4.1045C44.4522 2.10645 46.3095 0.686927 48.2493 0.9383L50.137 1.18228C52.0607 1.43181 53.5034 3.20621 53.2935 5.19317C53.1284 6.74023 52.0481 7.94534 50.6772 8.31501L51.1545 12.6068C51.1796 12.8379 51.3465 13.0264 51.569 13.0763C54.7595 13.799 57.7688 15.0208 60.5143 16.6566C60.7063 16.7693 60.9432 16.7527 61.1137 16.6085L66.8075 11.849L65.9426 11.1411C64.699 10.1245 64.5231 8.24108 65.5783 6.99715C66.5652 5.83085 68.2969 5.72734 69.4722 6.69032L73.8955 10.3075C75.1391 11.3223 75.315 13.2076 74.2598 14.4515C73.2729 15.6159 71.5412 15.7194 70.3659 14.7583L70.2456 14.6603L67.1969 21.4789C67.1036 21.684 67.1466 21.9262 67.3009 22.0888C69.4471 24.353 71.2739 26.9407 72.7058 29.7723C72.8099 29.9775 73.027 30.094 73.2495 30.0625L77.5724 29.4396C76.9371 27.6135 77.8792 25.5896 79.6916 24.9778C81.4197 24.3937 83.2823 25.3825 83.9175 27.1385L84.9135 29.8888C85.5415 31.6281 84.7878 33.6187 83.137 34.3581C81.5543 35.066 79.7688 34.4265 78.9182 32.9811L75.3311 35.4874C75.1427 35.6186 75.0583 35.8589 75.1194 36.0844C75.8569 38.8384 76.2517 41.7366 76.2517 44.7309C76.2517 45.2318 76.2409 45.729 76.2176 46.2225C76.2086 46.4499 76.3324 46.6587 76.5334 46.7493L83.259 49.775L83.4707 48.6568C83.7686 47.0987 85.2347 46.0839 86.7456 46.3889Z" fill="#F79595"/>
<path d="M58.4506 32.6C60.9041 32.6 62.893 30.8871 62.893 28.7742C62.893 26.6612 60.9041 24.9483 58.4506 24.9483C55.9972 24.9483 54.0083 26.6612 54.0083 28.7742C54.0083 30.8871 55.9972 32.6 58.4506 32.6Z" fill="#EE6161"/>
<path d="M42.4197 57.601C45.1014 57.601 47.2753 55.3618 47.2753 52.5996C47.2753 49.8374 45.1014 47.5982 42.4197 47.5982C39.738 47.5982 37.5641 49.8374 37.5641 52.5996C37.5641 55.3618 39.738 57.601 42.4197 57.601Z" fill="#EE6161"/>
<path d="M61.3434 53.5748C63.2634 53.5748 64.8199 51.9715 64.8199 49.9938C64.8199 48.0161 63.2634 46.4128 61.3434 46.4128C59.4233 46.4128 57.8668 48.0161 57.8668 49.9938C57.8668 51.9715 59.4233 53.5748 61.3434 53.5748Z" fill="#F9B1B1"/>
<path d="M48.5038 70.951C50.3705 70.951 51.8838 69.3922 51.8838 67.4694C51.8838 65.5466 50.3705 63.9879 48.5038 63.9879C46.6371 63.9879 45.1238 65.5466 45.1238 67.4694C45.1238 69.3922 46.6371 70.951 48.5038 70.951Z" fill="#F9B1B1"/>
<path d="M25.6525 43.1787C25.6525 30.7195 31.4229 19.6459 40.3573 12.6391C39.3142 12.7906 38.2843 12.9954 37.2762 13.2501C37.0627 13.3037 36.8402 13.2187 36.7146 13.032L32.5658 6.86966L32.7076 6.81421C34.1108 6.25786 34.9022 4.67014 34.4284 3.20256C33.9242 1.63333 32.2589 0.834846 30.7785 1.42077L25.5064 3.50939C24.105 4.06389 23.3118 5.65161 23.7856 7.12104C24.2898 8.68843 25.9568 9.48876 27.4355 8.90283L28.4691 8.4925L29.5583 15.9616C29.5906 16.1853 29.4847 16.4052 29.2945 16.518C26.3911 18.2129 23.7766 20.3681 21.5443 22.8892C21.39 23.0611 21.1495 23.1165 20.9414 23.0241L16.2112 20.917C16.9469 19.723 16.6849 18.1297 15.5706 17.2629C15.0897 16.8895 14.5262 16.7084 13.9681 16.7084C13.1624 16.7084 12.3675 17.0836 11.8435 17.7952L9.58968 20.8634C8.72475 22.0408 8.85934 23.7376 9.96113 24.6839C11.1365 25.6913 12.8771 25.475 13.7887 24.2329L14.083 23.8337L17.4655 27.9259C17.6109 28.1034 17.6306 28.3529 17.5193 28.5525C15.5221 32.1161 14.1637 36.1066 13.6074 40.3578C13.5787 40.5833 13.419 40.7663 13.2037 40.8181L6.11024 42.5315C6.11921 40.831 4.80568 39.4373 3.16017 39.393C1.46441 39.3468 0.0611545 40.8199 0.0467989 42.5684L0.000143278 47.9157C-0.0160068 49.6346 1.33521 51.0375 3.00405 51.0375C3.84385 51.0375 4.6047 50.69 5.15739 50.1244C5.71187 49.5607 6.05641 48.7788 6.06359 47.9157L6.07076 47.0525L13.2163 48.753C13.4298 48.8029 13.5895 48.9859 13.62 49.2114C14.1601 53.2315 15.4163 57.0169 17.252 60.4252C17.3614 60.6267 17.3363 60.8781 17.1874 61.0518L12.7156 66.2567C11.7161 64.8945 9.81219 64.6135 8.47712 65.6967C7.22459 66.7132 7.01285 68.5912 7.92263 69.9386L9.5484 72.3507C10.4815 73.7332 12.328 74.1639 13.6954 73.2379C15.0053 72.3507 15.4091 70.5984 14.6913 69.2159L21.0401 66.534C21.2446 66.4471 21.4797 66.5025 21.6304 66.6707C24.1193 69.4562 27.0748 71.7906 30.3694 73.5429C30.565 73.6482 30.6798 73.8626 30.6547 74.0881L29.7934 82.1043L29.6731 82.06C27.8859 81.389 25.8348 82.3243 25.2175 84.1782C24.6164 85.9766 25.5244 87.9451 27.265 88.5976L32.4671 90.5512C34.3333 91.2536 35.8604 90.152 35.8604 88.1059C36.0004 87.7104 36.0668 87.3056 36.0668 86.9063C36.0668 85.4794 35.2126 84.1394 33.8345 83.6218L33.6855 83.5664L37.9186 76.7257C38.0371 76.5353 38.2578 76.441 38.4731 76.4854C40.5134 76.9142 42.6237 77.1416 44.7878 77.1416C45.0424 77.1416 45.3012 77.1382 45.5544 77.1321C33.7241 70.7064 25.6525 57.9122 25.6525 43.1787Z" fill="#F37C7C"/>
<path d="M27.3541 62.7684C29.2987 62.7684 30.8752 61.1446 30.8752 59.1416C30.8752 57.1385 29.2987 55.5148 27.3541 55.5148C25.4094 55.5148 23.833 57.1385 23.833 59.1416C23.833 61.1446 25.4094 62.7684 27.3541 62.7684Z" fill="#EE6161"/>
<path d="M53.4135 43.1787H52.2238C51.4803 43.1787 50.8779 42.5581 50.8779 41.7925C50.8779 41.0269 51.4803 40.4062 52.2238 40.4062H53.4135C54.1569 40.4062 54.7593 41.0269 54.7593 41.7925C54.7593 42.5581 54.1569 43.1787 53.4135 43.1787Z" fill="#F9B1B1"/>
<path d="M37.5638 67.4103H36.3414C35.598 67.4103 34.9956 66.7896 34.9956 66.024C34.9956 65.2585 35.598 64.6378 36.3414 64.6378H37.5638C38.3073 64.6378 38.9097 65.2585 38.9097 66.024C38.9097 66.7896 38.3073 67.4103 37.5638 67.4103Z" fill="#F9B1B1"/>
<path d="M25.0105 47.2226H23.833C23.0896 47.2226 22.4872 46.6019 22.4872 45.8363C22.4872 45.0707 23.0896 44.4501 23.833 44.4501H25.0105C25.754 44.4501 26.3564 45.0707 26.3564 45.8363C26.3564 46.6019 25.754 47.2226 25.0105 47.2226Z" fill="#EE6161"/>
<path d="M48.9139 22.9692H47.2752C46.5317 22.9692 45.9293 22.3486 45.9293 21.583C45.9293 20.8174 46.5317 20.1967 47.2752 20.1967H48.9139C49.6573 20.1967 50.2597 20.8174 50.2597 21.583C50.2597 22.3486 49.6573 22.9692 48.9139 22.9692Z" fill="#F9B1B1"/>
<path d="M59.6762 62.8978H57.8667C57.1233 62.8978 56.5209 62.2771 56.5209 61.5115C56.5209 60.7459 57.1233 60.1253 57.8667 60.1253H59.6762C60.4197 60.1253 61.0221 60.7459 61.0221 61.5115C61.0221 62.2771 60.4195 62.8978 59.6762 62.8978Z" fill="#EE6161"/>
<path d="M39.149 38.8507C43.1675 35.5868 44.2798 30.1385 41.6334 26.6816C38.987 23.2247 33.584 23.0683 29.5655 26.3322C25.547 29.5961 24.4346 35.0444 27.081 38.5013C29.7274 41.9582 35.1304 42.1146 39.149 38.8507Z" fill="#EE6161"/>
</svg>
