<svg width="99" height="99" viewBox="0 0 99 99" fill="none" xmlns="http://www.w3.org/2000/svg">
<g clip-path="url(#clip0)">
<path d="M72.9856 72.3958C73.6817 73.3784 73.4505 74.7384 72.4698 75.4344L68.821 78.022C67.8111 78.7386 66.4007 78.473 65.7247 77.4185C65.091 76.4313 65.3926 75.1112 66.3489 74.4327L66.4472 74.3638L62.1506 70.6373C62.0218 70.5245 61.836 70.5045 61.6844 70.5866C60.1273 71.4191 58.4973 72.0741 56.8271 72.5476C56.6578 72.5955 56.5357 72.7443 56.5252 72.9201L56.2899 76.815C56.9788 76.8144 57.6211 77.0846 58.0985 77.5384C58.5008 77.9208 58.7864 78.434 58.8797 79.0254C59.1073 80.456 58.1312 81.8002 56.6996 82.0288L55.5157 82.2164C54.1256 82.438 52.764 81.5576 52.4743 80.1781C52.2241 78.9909 52.8146 77.8448 53.8173 77.3148L52.2895 73.6678C52.2199 73.503 52.0538 73.4032 51.8766 73.4166C49.394 73.5955 46.8889 73.3992 44.4516 72.8266C44.2841 72.7872 44.1103 72.854 44.0138 72.9963L40.792 77.7302L41.5942 78.0499C42.7448 78.5094 43.2881 79.8379 42.7698 80.9791C42.2843 82.0472 41.0123 82.5107 39.9237 82.0753L35.8249 80.4414C34.6752 79.9828 34.132 78.6543 34.6503 77.5131C35.1357 76.445 36.4077 75.9816 37.4973 76.4159L37.6075 76.4607L38.4025 70.8277C38.4269 70.6576 38.3424 70.4922 38.1916 70.4088C36.408 69.4191 34.7174 68.191 33.1693 66.7195C31.9443 65.555 30.8685 64.2946 29.9375 62.961C29.8388 62.8208 29.6646 62.7538 29.4981 62.7947L23.5283 64.2764L23.5837 64.387C24.0934 65.413 23.8769 66.609 23.1315 67.3932C22.9229 67.6126 22.6739 67.7994 22.388 67.9414C21.3191 69.0659 19.8792 68.8496 19.1897 67.4594L17.2655 63.5865C16.6211 62.2914 17.1354 60.721 18.4152 60.0561C19.7331 59.3694 21.3827 59.9591 22.0439 61.2895L22.0888 61.3786L26.7641 57.4366C26.8961 57.3262 26.9431 57.1465 26.8874 56.9834C25.9378 54.2476 25.4843 51.3744 25.5305 48.5044C25.5331 48.3308 25.429 48.1738 25.2678 48.1115L20.2729 46.1692C19.957 47.3153 18.8131 48.061 17.6081 47.8437C16.3503 47.6168 15.53 46.3866 15.7241 45.1247L16.0638 42.9243C16.2527 41.6942 17.3536 40.7761 18.5937 40.8914C19.9153 41.0145 20.8462 42.1934 20.7004 43.4799L25.9508 43.0256C26.1259 43.0103 26.2714 42.8856 26.3147 42.716C27.0561 39.8551 28.3225 37.0989 30.1169 34.5989C30.2174 34.4586 30.2226 34.2721 30.1278 34.1297L26.9712 29.3503L26.5163 29.8208C26.0613 30.2913 25.4578 30.5356 24.8494 30.5471C24.2411 30.5605 23.6289 30.3421 23.1535 29.8902C22.2088 28.9922 22.1768 27.4941 23.0839 26.5581L25.9037 23.6446C26.8253 22.6914 28.3892 22.6369 29.325 23.5747C30.2333 24.4845 30.2488 25.9572 29.3554 26.8869L34.2659 29.7622C34.4148 29.8496 34.6008 29.835 34.7349 29.7265C37.2706 27.6896 40.1242 26.2274 43.1164 25.3436C43.2836 25.2938 43.4028 25.1461 43.4132 24.9703L43.6363 20.9013L43.2611 20.9623C42.0962 21.1544 40.9979 20.3367 40.8588 19.1506C40.7295 18.0377 41.5397 17.0328 42.6444 16.8511L45.5231 16.3777C46.1914 16.2685 46.8374 16.4901 47.2935 16.9236C47.6094 17.2239 47.8338 17.6266 47.911 18.0906C48.0889 19.1666 47.4049 20.1832 46.3647 20.4435L47.9415 24.1468C48.0111 24.3096 48.1762 24.4085 48.3533 24.3971C50.934 24.2127 53.5398 24.4351 56.0688 25.0659C56.2354 25.1063 56.4102 25.0424 56.5088 24.9021L59.7941 20.2112L58.9946 19.8806C57.8515 19.4069 57.326 18.0701 57.8593 16.9374C58.3588 15.8749 59.6372 15.4291 60.7202 15.8785L64.7957 17.5675C65.9398 18.0421 66.4653 19.377 65.931 20.5107C65.4325 21.5722 64.1551 22.0189 63.0701 21.5696L62.9609 21.5238L62.0902 27.1428C62.0637 27.313 62.1453 27.4795 62.2942 27.5649C63.975 28.5265 65.5662 29.7025 67.0319 31.0958L67.034 31.0978C67.162 31.2194 67.3511 31.2503 67.5087 31.17L70.355 29.7338C69.7224 28.595 69.967 27.1355 71.0029 26.2756C72.1777 25.302 73.9706 25.5213 74.9374 26.7032L75.8785 27.8531C76.8371 29.0253 76.7269 30.7768 75.57 31.7558C74.6684 32.5172 73.4273 32.5982 72.4581 32.0636L70.4863 34.6791C70.3798 34.8196 70.3758 35.013 70.4757 35.1602C71.9042 37.2742 72.9694 39.5649 73.6691 41.9412C73.7189 42.1064 73.8616 42.2248 74.0334 42.2373L79.7429 42.6854L79.6231 41.8309C79.4502 40.6031 80.3346 39.4734 81.5817 39.3575C82.7497 39.2476 83.784 40.1225 83.9462 41.2842L84.5605 45.6522C84.7344 46.879 83.849 48.0097 82.6019 48.1256C81.4349 48.2345 80.4006 47.3596 80.2374 46.1989L80.2205 46.0804L74.9327 48.1871C74.7727 48.2497 74.6706 48.4059 74.673 48.5784C74.705 50.9775 74.3873 53.3826 73.7186 55.7093C73.6704 55.878 73.7324 56.0589 73.8748 56.1613L76.6472 58.1451C77.2416 56.7997 78.8322 56.1943 80.1778 56.8333C81.4611 57.4422 81.9989 58.9879 81.4412 60.2947L80.5682 62.3421C80.0151 63.6359 78.5486 64.3243 77.2278 63.8423C75.9621 63.3797 75.2854 62.0675 75.559 60.8155L72.2192 60.2627C72.044 60.2335 71.8707 60.3201 71.7874 60.4769C70.7662 62.3873 69.4757 64.1924 67.9114 65.838C67.6498 66.1133 67.3839 66.3807 67.1129 66.6394C66.9891 66.7595 66.9501 66.9409 67.0165 67.0989L69.243 72.3807L69.9471 71.8801C70.9297 71.184 72.2897 71.4152 72.9856 72.3958Z" fill="#F79595"/>
<path d="M64.1719 49.5928C65.5608 50.913 67.5814 51.0418 68.6853 49.8806C69.7891 48.7194 69.558 46.7078 68.1692 45.3877C66.7804 44.0675 64.7597 43.9387 63.6559 45.0999C62.5521 46.2611 62.7831 48.2727 64.1719 49.5928Z" fill="#EE6161"/>
<path d="M42.0368 54.7063C43.5548 56.1493 45.9552 56.0884 47.3982 54.5704C48.8411 53.0524 48.7803 50.652 47.2623 49.2091C45.7443 47.7661 43.3439 47.8269 41.9009 49.3449C40.4579 50.863 40.5188 53.2633 42.0368 54.7063Z" fill="#EE6161"/>
<path d="M54.8523 62.6764C55.9392 63.7095 57.6578 63.666 58.691 62.5791C59.7242 61.4922 59.6806 59.7735 58.5937 58.7404C57.5068 57.7072 55.7882 57.7508 54.755 58.8377C53.7219 59.9246 53.7654 61.6432 54.8523 62.6764Z" fill="#F9B1B1"/>
<path d="M38.5068 65.3169C39.5635 66.3214 41.2344 66.2791 42.2389 65.2223C43.2433 64.1656 43.201 62.4947 42.1443 61.4903C41.0876 60.4858 39.4167 60.5281 38.4122 61.5848C37.4077 62.6416 37.4501 64.3125 38.5068 65.3169Z" fill="#F9B1B1"/>
<path d="M40.0795 37.7582C46.5882 30.911 55.6395 27.9303 64.3574 28.887C63.6877 28.409 62.9978 27.9674 62.2941 27.5649C62.1452 27.4795 62.0636 27.313 62.0901 27.1428L62.9608 21.5238L63.07 21.5696C64.155 22.0189 65.4324 21.5722 65.9309 20.5108C66.4652 19.377 65.9397 18.0422 64.7956 17.5676L60.7201 15.8785C59.6371 15.4292 58.3587 15.8749 57.8592 16.9374C57.3259 18.0701 57.8514 19.407 58.9945 19.8806L59.794 20.2113L56.5087 24.9022C56.4101 25.0425 56.2353 25.1064 56.0687 25.066C53.5397 24.4352 50.9339 24.2127 48.3532 24.3971C48.1761 24.4085 48.011 24.3096 47.9414 24.1468L46.3646 20.4436C47.4048 20.1833 48.0888 19.1667 47.9109 18.0906C47.8337 17.6267 47.6093 17.2239 47.2934 16.9237C46.8373 16.4901 46.1913 16.2686 45.523 16.3777L42.6443 16.8511C41.5396 17.0328 40.7294 18.0377 40.8587 19.1506C40.9978 20.3367 42.0961 21.1545 43.261 20.9624L43.6362 20.9013L43.4131 24.9704C43.4027 25.1461 43.2835 25.2938 43.1163 25.3437C40.1241 26.2274 37.2705 27.6896 34.7348 29.7266C34.6007 29.835 34.4147 29.8497 34.2658 29.7622L29.3553 26.887C30.2487 25.9573 30.2332 24.4846 29.3249 23.5748C28.3891 22.6369 26.8252 22.6914 25.9036 23.6446L23.0838 26.5582C22.1767 27.4942 22.2087 28.9922 23.1534 29.8902C23.6288 30.3421 24.241 30.5605 24.8493 30.5471C25.4577 30.5357 26.0612 30.2914 26.5162 29.8209L26.9711 29.3503L30.1277 34.1298C30.2225 34.2721 30.2173 34.4586 30.1168 34.5989C28.3224 37.0989 27.056 39.8552 26.3146 42.716C26.2713 42.8857 26.1258 43.0103 25.9507 43.0256L20.7003 43.4799C20.8461 42.1934 19.9152 41.0146 18.5936 40.8914C17.3535 40.7761 16.2526 41.6942 16.0637 42.9243L15.7239 45.1247C15.5299 46.3866 16.3502 47.6169 17.608 47.8437C18.813 48.061 19.9569 47.3153 20.2728 46.1693L25.2677 48.1115C25.4289 48.1739 25.533 48.3308 25.5304 48.5044C25.4842 51.3744 25.9377 54.2477 26.8873 56.9834C26.943 57.1466 26.896 57.3262 26.764 57.4366L22.0887 61.3786L22.0438 61.2895C21.3826 59.9591 19.733 59.3694 18.4151 60.0561C17.1353 60.721 16.621 62.2914 17.2654 63.5866L19.1896 67.4594C19.8791 68.8496 21.319 69.0659 22.3879 67.9415C22.6738 67.7994 22.9228 67.6127 23.1314 67.3933C23.8768 66.6091 24.0933 65.413 23.5836 64.387L23.5282 64.2764L29.498 62.7948C29.6645 62.7539 29.8387 62.8208 29.9374 62.9611C30.8684 64.2946 31.9442 65.5551 33.1692 66.7195C33.3134 66.8565 33.4616 66.994 33.6081 67.1268C30.2681 57.2297 32.3827 45.8552 40.0795 37.7582Z" fill="#F37C7C"/>
<path d="M30.8091 49.4396C31.9099 50.486 33.6506 50.4419 34.6969 49.3411C35.7433 48.2403 35.6992 46.4996 34.5984 45.4532C33.4976 44.4069 31.757 44.451 30.7106 45.5518C29.6642 46.6526 29.7083 48.3932 30.8091 49.4396Z" fill="#EE6161"/>
<path d="M55.7943 52.696L55.1209 52.0558C54.7 51.6558 54.6833 50.9906 55.0832 50.5698C55.4831 50.1491 56.1484 50.1321 56.5692 50.5322L57.2427 51.1723C57.6635 51.5724 57.6803 52.2376 57.2803 52.6584C56.8804 53.0791 56.2152 53.096 55.7943 52.696Z" fill="#F9B1B1"/>
<path d="M34.1636 57.4845L33.4717 56.8267C33.0508 56.4267 33.0341 55.7614 33.434 55.3407C33.834 54.92 34.4992 54.903 34.92 55.303L35.612 55.9608C36.0328 56.3608 36.0496 57.0261 35.6497 57.4468C35.2497 57.8675 34.5845 57.8845 34.1636 57.4845Z" fill="#F9B1B1"/>
<path d="M37.6036 39.635L36.937 39.0014C36.5162 38.6014 36.4994 37.9361 36.8994 37.5154C37.2993 37.0946 37.9645 37.0777 38.3854 37.4777L39.0519 38.1113C39.4728 38.5114 39.4895 39.1766 39.0896 39.5973C38.6897 40.0181 38.0244 40.035 37.6036 39.635Z" fill="#EE6161"/>
<path d="M63.8046 39.1682L62.877 38.2864C62.4561 37.8864 62.4394 37.2212 62.8393 36.8004C63.2392 36.3797 63.9045 36.3627 64.3253 36.7628L65.2529 37.6445C65.6738 38.0446 65.6905 38.7098 65.2906 39.1305C64.8907 39.5513 64.2254 39.5682 63.8046 39.1682Z" fill="#F9B1B1"/>
<path d="M49.0382 66.9029L48.0139 65.9293C47.5931 65.5292 47.5763 64.864 47.9763 64.4432C48.3762 64.0225 49.0414 64.0055 49.4623 64.4056L50.4866 65.3793C50.9074 65.7793 50.9242 66.4445 50.5243 66.8653C50.1243 67.286 49.459 67.3029 49.0382 66.9029Z" fill="#EE6161"/>
<path d="M49.9806 42.6419C53.9604 43.0104 57.4363 40.6148 57.7441 37.291C58.0519 33.9672 55.0752 30.974 51.0953 30.6054C47.1155 30.2368 43.6396 32.6324 43.3318 35.9562C43.024 39.28 46.0007 42.2733 49.9806 42.6419Z" fill="#EE6161"/>
</g>
<defs>
<clipPath id="clip0">
<rect width="69.5099" height="69.5099" fill="white" transform="translate(48.115 0.225098) rotate(43.5482)"/>
</clipPath>
</defs>
</svg>
