<svg width="120" height="120" viewBox="0 0 120 120" fill="none" xmlns="http://www.w3.org/2000/svg">
<path d="M103.588 44.0513L108.165 41.7638L104.243 37.8412L117.244 29.7169L115.256 26.5369L98.2575 37.1625L101.835 40.74L99.9225 41.6963C98.1131 40.68 96.2119 39.7988 94.2038 39.1012L91.2487 38.0737L99.1294 26.25H92.7056L97.3819 13.7831L93.87 12.4669L87.2944 30H92.1206L87.5906 36.7969L80.0363 34.17C77.025 33.1219 75 30.2738 75 27.0844V25.3556C82.7175 20.3119 88.9594 13.1569 92.9325 4.53375L94.1569 1.875H25.8431L27.0675 4.53375C31.0406 13.1587 37.2825 20.3119 45 25.3556V27.0844C45 30.2738 42.975 33.12 39.9637 34.1681L25.7963 39.0956C11.4881 44.0737 1.875 57.5944 1.875 72.7444V97.5C1.875 108.872 11.1281 118.125 22.5 118.125H26.25H30.7369H118.125V72.7444C118.125 61.2188 112.551 50.6475 103.588 44.0513ZM31.8019 5.625H88.1962C82.2431 16.6481 72.1275 24.7294 60 28.0575C47.8725 24.7294 37.7569 16.6481 31.8019 5.625ZM114.375 114.375H95.625V81.0806C95.625 76.4512 97.4269 72.0994 100.701 68.8256L98.0494 66.1744C94.0669 70.1569 91.875 75.45 91.875 81.0806V114.375H34.7738L57.1125 93.6319L64.2525 92.4412C66.9656 91.9894 69.4294 90.7219 71.3738 88.7756L86.4112 73.7381C87.5156 72.6356 88.125 71.1656 88.125 69.6019C88.125 67.2131 86.6831 65.1619 84.6281 64.2525C85.6687 63.1613 86.25 61.7419 86.25 60.2269C86.25 57.8381 84.8081 55.7869 82.7531 54.8775C83.7937 53.7863 84.375 52.3669 84.375 50.8519C84.375 47.625 81.75 45 78.5231 45C76.9594 45 75.4894 45.6094 74.385 46.7137L72.615 48.4837C71.7019 46.4362 69.6562 45 67.2731 45C65.7094 45 64.2394 45.6094 63.135 46.7137L55.9631 53.8856C55.29 50.6175 53.385 47.7038 50.55 45.8063C49.7625 45.2794 48.8438 45 47.895 45C45.2663 45 43.125 47.1413 43.125 49.77V51.7031C43.125 54.1331 42.1781 56.4206 40.4606 58.1381L37.5956 61.0031C35.1169 63.4819 33.7519 66.7781 33.7519 70.2844V76.0987L28.1269 81.7237V81.0806C28.1269 75.45 25.935 70.1569 21.9525 66.1744L19.3012 68.8256C22.5731 72.0994 24.375 76.4512 24.375 81.0806V85.4737L11.7994 98.0494L14.4506 100.701L37.5 77.6513V70.2844C37.5 67.7812 38.475 65.4263 40.245 63.6544L43.11 60.7894C45.5381 58.3631 46.875 55.1362 46.875 51.7031V49.77C46.875 49.005 47.8237 48.495 48.465 48.9225C50.9906 50.6156 52.5 53.4412 52.5 56.4844V57.3488L45.5494 64.2994L45.4538 64.395L48.105 67.0462L48.2006 66.9506L56.25 58.9012L65.7862 49.365C66.1837 48.9694 66.7106 48.75 67.2731 48.75C68.4319 48.75 69.375 49.6931 69.375 50.8519C69.375 51.4144 69.1556 51.9412 68.76 52.3387L54.9244 66.1744L57.5756 68.8256L71.4112 54.99L77.0362 49.365C77.4337 48.9694 77.9606 48.75 78.5231 48.75C79.6819 48.75 80.625 49.6931 80.625 50.8519C80.625 51.4144 80.4056 51.9412 80.01 52.3387L76.26 56.0887L60.5494 71.7994L63.2006 74.4506L78.9112 58.74C79.3087 58.3444 79.8356 58.125 80.3981 58.125C81.5569 58.125 82.5 59.0681 82.5 60.2269C82.5 60.7894 82.2806 61.3163 81.885 61.7138L78.135 65.4638L66.1744 77.4244L68.8256 80.0756L80.7862 68.115C81.1837 67.7194 81.7106 67.5 82.2731 67.5C83.4319 67.5 84.375 68.4431 84.375 69.6019C84.375 70.1644 84.1556 70.6913 83.76 71.0888L68.7225 86.1262C67.3331 87.5156 65.5744 88.4213 63.6356 88.7438L55.3875 90.1181L29.2631 114.375H26.25H22.5C13.1962 114.375 5.625 106.804 5.625 97.5V72.7444C5.625 59.19 14.2256 47.0906 27.0281 42.6375L41.1956 37.71C45.5625 36.1912 48.5175 32.1431 48.7125 27.555C52.1025 29.37 55.7194 30.8119 59.5219 31.8131L60 31.9388L60.4763 31.8131C64.2788 30.8119 67.8975 29.37 71.2856 27.555C71.4806 32.1431 74.4356 36.1912 78.8025 37.71L85.44 40.0181L82.8131 43.9594L85.9331 46.0387L89.0981 41.2912L92.97 42.6375C93.9262 42.9694 94.8506 43.3575 95.7581 43.7738L85.41 48.9469L87.0881 52.3012L99.7725 45.9581C108.726 51.7388 114.375 61.7625 114.375 72.7444V114.375Z" fill="#EE6161"/>
<path d="M63.75 20.625H67.5C67.5 17.4712 64.2056 15 60 15C55.7944 15 52.5 17.4712 52.5 20.625H56.25C56.25 19.86 57.7106 18.75 60 18.75C62.2894 18.75 63.75 19.86 63.75 20.625Z" fill="#EE6161"/>
</svg>
