<svg width="120" height="120" viewBox="0 0 120 120" fill="none" xmlns="http://www.w3.org/2000/svg">
<g clip-path="url(#clip0)">
<path d="M73.0221 92.9894C71.1766 90.8609 68.6109 89.5868 65.7973 89.4016C63.169 89.2282 60.6248 90.0274 58.5776 91.6577C55.0261 88.1065 51.0052 85.0505 46.6427 82.586L47.8191 74.6184L56.9684 75.9694C59.6866 76.3713 62.3995 75.6895 64.6059 74.0505C66.8123 72.412 68.2486 70.0123 68.6498 67.2933L69.4481 61.8872L70.1168 61.9859C71.8521 62.2416 73.5607 61.5115 74.5739 60.0785C75.5873 58.6458 75.7073 56.7919 74.8868 55.2401L70.2926 46.5516L70.6559 45.5222C72.814 39.413 72.9314 32.7471 71.0196 26.5798C73.3652 24.4303 74.8917 21.5662 75.3628 18.3757C75.9054 14.7009 74.9845 11.0351 72.7699 8.05312C70.5551 5.07117 67.3116 3.13031 63.637 2.58796L48.6063 0.368665C39.0879 -1.03665 29.3803 1.6807 21.9682 7.82367C20.9714 8.64937 20.8331 10.1271 21.6593 11.1237C22.485 12.1205 23.9625 12.2587 24.9593 11.4326C31.3491 6.1371 39.7186 3.79452 47.9217 5.00577L62.9527 7.22507C65.3887 7.5846 67.5387 8.87132 69.0068 10.848C70.4752 12.825 71.0855 15.2552 70.7259 17.6909C70.3662 20.1272 69.0797 22.2771 67.1027 23.7452C65.1258 25.2136 62.6963 25.8234 60.2599 25.4644L57.2658 25.0221C49.3434 23.8528 41.2823 26.9843 36.2273 33.1948L34.1325 35.7687C29.9409 35.9133 26.2296 39.4237 25.5248 44.1961C24.8817 48.5529 26.9407 52.6268 30.3255 54.3302C28.5141 55.7885 26.1495 56.5029 23.7757 56.2134L22.4494 54.7795C16.1658 47.9873 13.3373 38.842 14.6888 29.6883C14.7769 29.0916 14.884 28.493 15.0068 27.9091C15.2733 26.6423 14.4626 25.3994 13.1958 25.1327C11.9276 24.8672 10.6861 25.6772 10.4194 26.9437C10.2773 27.6204 10.1531 28.3132 10.0514 29.0034C8.49164 39.5684 11.7562 50.1234 19.0083 57.9626L20.1431 59.1895L17.2767 79.062C7.13742 83.3285 0 93.3647 0 105.037V117.653C0 118.947 1.0493 119.997 2.34375 119.997C3.6382 119.997 4.6875 118.947 4.6875 117.653V105.037C4.6875 92.0913 15.2196 81.5592 28.1653 81.5592C30.7336 81.5592 33.2688 81.9771 35.7009 82.8014C38.0684 83.6037 40.3673 84.5857 42.5829 85.7252C42.828 85.9289 43.1166 86.0841 43.4372 86.1748C47.9346 88.597 52.0617 91.691 55.6441 95.3505C53.9995 98.813 54.315 103.049 56.7698 106.252C60.6567 111.322 63.2006 115.514 64.1257 118.374C64.4466 119.366 65.366 119.997 66.3553 119.997C66.5944 119.997 66.8377 119.961 67.0772 119.883C68.3088 119.485 68.9843 118.163 68.5856 116.932C67.4822 113.521 64.7585 108.968 60.4901 103.4C58.6486 100.998 58.9833 97.5405 61.2527 95.5298C62.4239 94.4918 63.9246 93.9748 65.4898 94.0793C67.0444 94.1815 68.4616 94.8851 69.4805 96.0602C74.1356 101.429 79.9964 109.601 81.4807 118.042C81.705 119.317 82.9237 120.169 84.1948 119.944C85.4695 119.72 86.3215 118.505 86.0972 117.23C84.4275 107.733 78.0654 98.8062 73.0221 92.9894ZM28.1653 76.8717C26.1323 76.8717 24.1498 77.0902 22.238 77.5013L24.6234 60.9637C24.6848 60.9647 24.7463 60.967 24.8074 60.967C29.5955 60.9668 34.1463 58.3716 36.5323 54.1263C36.9101 53.4539 36.933 52.6383 36.5932 51.9457C36.2536 51.2531 35.5945 50.7719 34.8312 50.6594L33.3895 50.4466C31.2045 50.1239 29.7565 47.6273 30.162 44.8812C30.5674 42.135 32.6737 40.1639 34.86 40.4857C35.6777 40.6076 36.4985 40.2876 37.0202 39.6466L39.863 36.154C43.8804 31.2187 50.2873 28.7302 56.5809 29.6594L59.5751 30.1017C62.0897 30.4723 64.6001 30.1577 66.8902 29.213C68.1267 34.0638 67.9141 39.2114 66.2363 43.9615L65.5308 45.9591C65.3128 46.5764 65.363 47.2563 65.6691 47.8352L70.6906 57.3323L67.8143 56.9079C66.5334 56.7178 65.3426 57.6035 65.1534 58.8841L64.9343 60.3684C63.544 60.4268 62.2711 61.1801 61.5563 62.4211C60.708 63.8927 60.843 65.7028 61.9006 67.0327L63.2442 68.7223C62.1045 70.5722 59.9355 71.6693 57.6534 71.3327L46.1855 69.6394C45.57 69.548 44.9445 69.7057 44.4455 70.0762C43.9465 70.447 43.6151 71.0006 43.5244 71.6154L42.2351 80.3501C40.5938 79.6073 38.9161 78.9417 37.2056 78.3621C34.2879 77.373 31.2464 76.8717 28.1653 76.8717Z" fill="#EE6161"/>
<path d="M16.5771 19.9563C17.1961 19.9563 17.7982 19.7055 18.2365 19.2694C18.6725 18.8336 18.9209 18.229 18.9209 17.6126C18.9209 16.9936 18.6725 16.3915 18.2365 15.9555C17.8008 15.5196 17.1961 15.2688 16.5771 15.2688C15.9607 15.2688 15.3561 15.5193 14.9204 15.9555C14.4844 16.3915 14.2334 16.9961 14.2334 17.6126C14.2334 18.229 14.4842 18.8336 14.9204 19.2694C15.3563 19.7053 15.961 19.9563 16.5771 19.9563Z" fill="#EE6161"/>
<path d="M111.51 57.8026C109.727 54.1494 106.013 51.7838 101.855 51.7838C96.8186 51.7838 92.4702 55.3573 91.3727 60.1529L77.0439 66.1496C76.1723 66.5145 75.6049 67.3667 75.6049 68.3117C75.6049 69.2565 76.1723 70.1089 77.0439 70.4738L91.3727 76.4708C92.4702 81.2661 96.8184 84.8396 101.855 84.8396C106.013 84.8396 109.727 82.4743 111.51 78.8211C116.376 77.7734 120 73.4173 120 68.3117C120 63.2061 116.376 58.8502 111.51 57.8026ZM109.683 74.3579C108.731 74.4252 107.915 75.0624 107.62 75.9694C106.804 78.4712 104.487 80.1521 101.855 80.1521C98.7332 80.1521 96.0801 77.7188 95.815 74.6124C95.741 73.7429 95.1897 72.9868 94.3846 72.6498L84.0194 68.3117L94.3846 63.9739C95.1897 63.6369 95.741 62.8808 95.815 62.0112C96.0801 58.9048 98.733 56.4713 101.855 56.4713C104.487 56.4713 106.804 58.1523 107.62 60.6542C107.915 61.5612 108.731 62.1985 109.683 62.2658C112.84 62.4884 115.312 65.1441 115.312 68.3117C115.312 71.4795 112.84 74.1352 109.683 74.3579Z" fill="#EE6161"/>
</g>
<defs>
<clipPath id="clip0">
<rect width="120" height="120" fill="white"/>
</clipPath>
</defs>
</svg>
