<svg width="40" height="40" viewBox="0 0 40 40" fill="none" xmlns="http://www.w3.org/2000/svg">
<g clip-path="url(#clip0)">
<path fill-rule="evenodd" clip-rule="evenodd" d="M20.12 3.91167e-08C14.8153 0.00033156 9.72807 2.10792 5.97734 5.85911C2.22661 9.61031 0.119664 14.6978 0.119995 20.0025C0.120327 25.3072 2.22791 30.3944 5.97911 34.1452C9.73031 37.8959 14.8178 40.0028 20.1225 40.0025C25.4272 40.0022 30.5144 37.8946 34.2651 34.1434C38.0159 30.3922 40.1228 25.3047 40.1225 20C40.1222 14.6953 38.0146 9.60807 34.2634 5.85735C30.5122 2.10662 25.4247 -0.000331481 20.12 3.91167e-08V3.91167e-08ZM20 37.5C15.3587 37.5 10.9075 35.6563 7.62563 32.3744C4.34374 29.0925 2.5 24.6413 2.5 20C2.5 15.3587 4.34374 10.9075 7.62563 7.62563C10.9075 4.34374 15.3587 2.5 20 2.5C24.6413 2.5 29.0925 4.34374 32.3744 7.62563C35.6562 10.9075 37.5 15.3587 37.5 20C37.5 24.6413 35.6562 29.0925 32.3744 32.3744C29.0925 35.6563 24.6413 37.5 20 37.5Z" fill="#2042F1"/>
<path fill-rule="evenodd" clip-rule="evenodd" d="M7.39749 6.70997C6.72249 10.07 9.23499 15.2075 14.5775 16.4575C19.9175 17.7075 17.6225 16.6675 16.7925 15C15.9575 13.3325 16.705 12.0825 17.9975 11.6675C19.2925 11.25 18.965 12.4 20.885 9.99997C21.37 4.99997 17.205 9.93247 16.79 7.84997C20.915 3.05747 14.875 1.24997 13.1225 1.87497C11.37 2.49997 8.07249 3.34747 7.39749 6.70997V6.70997Z" fill="#2042F1"/>
<path fill-rule="evenodd" clip-rule="evenodd" d="M17.1825 19.235C16.8725 19.3725 15.4275 20.275 14.93 20.9C14.4325 21.525 14.215 22.845 14.93 23.4C15.645 23.9575 14.89 26.5975 16.8175 27.0825C18.745 27.5675 20.675 27.85 20.7475 29.375C20.815 30.9 20.5675 34.4425 19.64 34.7925C20.89 35.485 23.9325 31.805 25.0025 29.86C26.075 27.9175 26.4325 25.1375 26.36 24.4425C26.2875 23.75 26.7875 22.2925 27.0025 20.4175C27.215 18.5425 25.5775 18.4175 25.365 17.585C25.1475 16.75 24.8575 15.8325 17.1825 19.235V19.235Z" fill="#2042F1"/>
<path fill-rule="evenodd" clip-rule="evenodd" d="M32.8125 10C32.8125 10 27.7825 12.1525 31.2025 15.35C34.6175 18.5425 36.3575 21.575 36.19 22.27C36.035 22.96 32.74 26.535 34.6325 26.255C36.535 25.9775 37.9375 22.2275 38.24 20.0025C38.5375 17.7775 35.93 13.405 35.8225 13.06C35.7325 12.7075 34.0175 10.0375 32.8125 10V10Z" fill="#2042F1"/>
</g>
<defs>
<clipPath id="clip0">
<rect width="40" height="40" fill="white"/>
</clipPath>
</defs>
</svg>
