<svg width="37" height="39" viewBox="0 0 37 39" fill="none" xmlns="http://www.w3.org/2000/svg">
<g clip-path="url(#clip0)">
<path d="M36.0628 19.3333C36.6917 19.4609 37.1012 20.0887 36.9781 20.7357L36.5193 23.1423C36.3925 23.8085 35.7509 24.2358 35.1034 24.0721C34.4969 23.9192 34.1291 23.2806 34.2492 22.6498L34.2619 22.5852L31.2376 22.7274C31.1466 22.7312 31.0675 22.7935 31.0392 22.8834C30.7437 23.8024 30.3551 24.6784 29.8843 25.4975C29.8366 25.5805 29.8441 25.6857 29.9045 25.7595L31.2421 27.3962C31.5077 27.1357 31.8545 27.0005 32.2052 27.0005C32.5006 27.0005 32.799 27.0965 33.0519 27.2963C33.6644 27.7789 33.7807 28.6818 33.3122 29.3134L32.9243 29.8352C32.4693 30.4483 31.621 30.6128 31.0034 30.174C30.4715 29.7967 30.279 29.1182 30.4715 28.5289L28.5445 27.6567C28.4572 27.6175 28.3565 27.6406 28.2931 27.7128C27.4009 28.7217 26.3624 29.59 25.2121 30.2831C25.133 30.3308 25.0905 30.423 25.1054 30.516L25.5985 33.6142L26.0253 33.4382C26.6377 33.1862 27.3345 33.5089 27.5531 34.1582C27.7575 34.766 27.4367 35.4307 26.857 35.6689L24.6765 36.568C24.0647 36.82 23.368 36.4973 23.1494 35.848C22.945 35.2401 23.2658 34.5755 23.8454 34.3365L23.9044 34.3127L22.1453 31.7739C22.0923 31.697 21.9991 31.6632 21.9103 31.687C20.8592 31.9675 19.7566 32.1181 18.6196 32.1181C17.72 32.1181 16.8427 32.0236 15.9944 31.8453C15.9049 31.8269 15.8132 31.8661 15.7639 31.9452L14.0041 34.7891L14.066 34.8121C14.639 35.0273 14.9941 35.5844 14.9941 36.1776C14.9941 36.3436 14.9664 36.5119 14.9083 36.6763C14.9083 37.5269 14.2734 37.9849 13.4976 37.6929L11.3349 36.8807C10.6113 36.6094 10.2338 35.7911 10.4837 35.0434C10.7403 34.2727 11.593 33.8839 12.336 34.1628L12.386 34.1813L12.7441 30.8487C12.7545 30.7549 12.7068 30.6658 12.6255 30.622C11.2558 29.8936 10.0271 28.9231 8.99243 27.7651C8.92976 27.6951 8.83203 27.6721 8.74699 27.7082L6.10762 28.8232C6.40602 29.3979 6.23817 30.1264 5.69358 30.4952C5.12513 30.8802 4.35749 30.7012 3.96956 30.1264L3.29368 29.1236C2.91545 28.5634 3.00348 27.7827 3.5242 27.3601C4.07923 26.9098 4.87074 27.0266 5.28626 27.5929L7.14531 25.4291C7.20723 25.3569 7.21768 25.2524 7.17217 25.1686C6.409 23.7517 5.8868 22.178 5.66225 20.5067C5.64957 20.4129 5.58317 20.3369 5.4944 20.3161L2.5238 19.6092L2.52082 19.968C2.51783 20.3269 2.3746 20.6519 2.14408 20.8863C1.91431 21.1214 1.59801 21.2659 1.24887 21.2659C0.555089 21.2659 -0.0066545 20.6826 5.95652e-05 19.968L0.0194557 17.745C0.0254238 17.0181 0.608801 16.4057 1.31378 16.4249C1.99787 16.4433 2.54394 17.0227 2.54021 17.7296L5.48918 17.0173C5.5787 16.9958 5.64509 16.9197 5.65703 16.826C5.88829 15.0587 6.45302 13.3997 7.28332 11.9182C7.32958 11.8352 7.32137 11.7315 7.26094 11.6577L5.85472 9.95643L5.73238 10.1224C5.3534 10.6388 4.62978 10.7287 4.14114 10.3099C3.6831 9.91647 3.62714 9.21107 3.98672 8.72159L4.9237 7.44603C5.14154 7.1502 5.47202 6.99421 5.80698 6.99421C6.03899 6.99421 6.27323 7.06951 6.47316 7.22473C6.93643 7.58512 7.04535 8.24748 6.73949 8.74388L8.70596 9.61986C8.7925 9.65828 8.89246 9.63523 8.95662 9.56377C9.88465 8.51566 10.9716 7.61969 12.1786 6.91506C12.2577 6.86819 12.3017 6.77675 12.2883 6.68377L11.8355 3.57863L11.4058 3.74922C10.791 3.99281 10.098 3.66008 9.88838 3.00847C9.69143 2.39759 10.0212 1.73753 10.6038 1.507L12.7956 0.638702C13.411 0.395116 14.1033 0.727069 14.3129 1.37945C14.5099 1.98956 14.1809 2.64963 13.5975 2.88092L13.5386 2.90397L15.2634 5.46585C15.3156 5.54345 15.4081 5.5788 15.4969 5.55652C16.498 5.30371 17.5432 5.17001 18.6196 5.17001H18.6211C18.7151 5.17001 18.7994 5.11084 18.8308 5.0194L19.4022 3.37347C18.7405 3.15985 18.2996 2.48749 18.3839 1.75443C18.4801 0.923781 19.2523 0.333644 20.0587 0.438147L20.8435 0.539577C21.6432 0.643312 22.243 1.38098 22.1557 2.20702C22.0871 2.85018 21.638 3.35118 21.068 3.50487L21.2665 5.28911C21.2769 5.38516 21.3463 5.46354 21.4388 5.48429C22.7652 5.78473 24.0163 6.29265 25.1576 6.97269C25.2375 7.01957 25.3359 7.01265 25.4068 6.95272L27.7739 4.97406L27.4143 4.67976C26.8973 4.25714 26.8242 3.47413 27.2629 2.95699C27.6732 2.47212 28.3931 2.42909 28.8817 2.82943L30.7206 4.33321C31.2376 4.75507 31.3107 5.53884 30.8721 6.05598C30.4618 6.54008 29.7419 6.58311 29.2532 6.18354L29.2032 6.14281L27.9358 8.97747C27.897 9.06277 27.9149 9.16343 27.979 9.23105C28.8713 10.1723 29.6307 11.2481 30.226 12.4253C30.2693 12.5106 30.3596 12.559 30.4521 12.546L32.2492 12.287C31.9851 11.5278 32.3768 10.6864 33.1302 10.4321C33.8486 10.1893 34.623 10.6004 34.8871 11.3303L35.3011 12.4737C35.5622 13.1968 35.2489 14.0244 34.5626 14.3317C33.9046 14.626 33.1623 14.3602 32.8087 13.7593L31.3174 14.8012C31.2391 14.8558 31.204 14.9557 31.2294 15.0494C31.536 16.1944 31.7001 17.3992 31.7001 18.6441C31.7001 18.8523 31.6957 19.059 31.686 19.2642C31.6822 19.3587 31.7337 19.4455 31.8172 19.4832L34.6133 20.741L34.7013 20.2762C34.8251 19.6284 35.4346 19.2065 36.0628 19.3333Z" fill="#F79595"/>
<path d="M24.2997 13.6009C25.3197 13.6009 26.1465 12.8888 26.1465 12.0104C26.1465 11.1319 25.3197 10.4198 24.2997 10.4198C23.2797 10.4198 22.4529 11.1319 22.4529 12.0104C22.4529 12.8888 23.2797 13.6009 24.2997 13.6009Z" fill="#EE6161"/>
<path d="M17.6352 23.9945C18.7501 23.9945 19.6538 23.0636 19.6538 21.9153C19.6538 20.767 18.7501 19.8361 17.6352 19.8361C16.5203 19.8361 15.6166 20.767 15.6166 21.9153C15.6166 23.0636 16.5203 23.9945 17.6352 23.9945Z" fill="#EE6161"/>
<path d="M25.5023 22.3207C26.3005 22.3207 26.9476 21.6542 26.9476 20.832C26.9476 20.0098 26.3005 19.3433 25.5023 19.3433C24.7041 19.3433 24.057 20.0098 24.057 20.832C24.057 21.6542 24.7041 22.3207 25.5023 22.3207Z" fill="#F9B1B1"/>
<path d="M20.1645 29.5445C20.9405 29.5445 21.5696 28.8965 21.5696 28.0971C21.5696 27.2978 20.9405 26.6498 20.1645 26.6498C19.3884 26.6498 18.7593 27.2978 18.7593 28.0971C18.7593 28.8965 19.3884 29.5445 20.1645 29.5445Z" fill="#F9B1B1"/>
<path d="M10.6645 17.9995C10.6645 12.8198 13.0635 8.21623 16.7778 5.30327C16.3441 5.36628 15.916 5.45142 15.4969 5.5573C15.4081 5.57959 15.3156 5.54424 15.2634 5.46663L13.5386 2.90476L13.5975 2.8817C14.1809 2.65041 14.5099 1.99035 14.3129 1.38023C14.1033 0.727855 13.411 0.395902 12.7956 0.639488L10.6038 1.50779C10.0212 1.73831 9.69143 2.39838 9.88838 3.00926C10.098 3.66087 10.791 3.99359 11.4058 3.75001L11.8355 3.57942L12.2883 6.68456C12.3017 6.77754 12.2577 6.86898 12.1786 6.91585C10.9716 7.62048 9.88465 8.51644 8.95662 9.56455C8.89246 9.63602 8.79249 9.65907 8.70596 9.62065L6.73948 8.74466C7.04535 8.24827 6.93643 7.5859 6.47316 7.22552C6.27323 7.0703 6.03898 6.995 5.80698 6.995C5.47202 6.995 5.14154 7.15098 4.9237 7.44682L3.98672 8.72238C3.62714 9.21185 3.68309 9.91725 4.14114 10.3107C4.62978 10.7295 5.3534 10.6396 5.73238 10.1232L5.85472 9.95721L7.26094 11.6585C7.32137 11.7322 7.32958 11.836 7.28332 11.919C6.45302 13.4004 5.88829 15.0594 5.65703 16.8268C5.64509 16.9205 5.5787 16.9966 5.48918 17.0181L2.54021 17.7304C2.54394 17.0235 1.99787 16.4441 1.31378 16.4257C0.608801 16.4065 0.0254238 17.0189 0.0194557 17.7458L5.95652e-05 19.9688C-0.0066545 20.6834 0.555088 21.2667 1.24887 21.2667C1.59801 21.2667 1.91431 21.1222 2.14408 20.8871C2.3746 20.6527 2.51783 20.3277 2.52082 19.9688L2.5238 19.61L5.4944 20.3169C5.58317 20.3376 5.64957 20.4137 5.66225 20.5075C5.8868 22.1788 6.409 23.7525 7.17217 25.1694C7.21767 25.2532 7.20723 25.3577 7.14531 25.4299L5.28626 27.5937C4.87074 27.0274 4.07922 26.9106 3.5242 27.3609C3.00348 27.7835 2.91545 28.5642 3.29368 29.1244L3.96956 30.1272C4.35748 30.7019 5.12513 30.881 5.69358 30.496C6.23817 30.1272 6.40602 29.3987 6.10762 28.8239L8.74699 27.709C8.83203 27.6729 8.92976 27.6959 8.99242 27.7659C10.0271 28.9238 11.2558 29.8943 12.6255 30.6228C12.7068 30.6666 12.7545 30.7557 12.7441 30.8495L12.386 34.1821L12.336 34.1636C11.593 33.8847 10.7403 34.2735 10.4837 35.0442C10.2338 35.7919 10.6113 36.6102 11.3349 36.8815L13.4976 37.6937C14.2734 37.9857 14.9083 37.5277 14.9083 36.6771C14.9664 36.5126 14.994 36.3444 14.994 36.1784C14.994 35.5852 14.6389 35.0281 14.066 34.8129L14.0041 34.7899L15.7639 31.946C15.8132 31.8668 15.9049 31.8277 15.9944 31.8461C16.8427 32.0244 17.72 32.1189 18.6196 32.1189C18.7255 32.1189 18.8331 32.1175 18.9383 32.115C14.0201 29.4436 10.6645 24.1247 10.6645 17.9995Z" fill="#F37C7C"/>
<path d="M11.3719 26.1428C12.1803 26.1428 12.8357 25.4677 12.8357 24.635C12.8357 23.8023 12.1803 23.1272 11.3719 23.1272C10.5635 23.1272 9.90808 23.8023 9.90808 24.635C9.90808 25.4677 10.5635 26.1428 11.3719 26.1428Z" fill="#EE6161"/>
<path d="M22.2055 17.9988H21.7109C21.4018 17.9988 21.1514 17.7407 21.1514 17.4224C21.1514 17.1042 21.4018 16.8461 21.7109 16.8461H22.2055C22.5145 16.8461 22.765 17.1042 22.765 17.4224C22.765 17.7407 22.5145 17.9988 22.2055 17.9988Z" fill="#F9B1B1"/>
<path d="M15.6165 28.0725H15.1083C14.7993 28.0725 14.5488 27.8145 14.5488 27.4962C14.5488 27.178 14.7993 26.9199 15.1083 26.9199H15.6165C15.9256 26.9199 16.176 27.178 16.176 27.4962C16.176 27.8145 15.9256 28.0725 15.6165 28.0725Z" fill="#F9B1B1"/>
<path d="M10.3975 19.6799H9.90802C9.59894 19.6799 9.34851 19.4219 9.34851 19.1036C9.34851 18.7853 9.59894 18.5273 9.90802 18.5273H10.3975C10.7066 18.5273 10.957 18.7853 10.957 19.1036C10.957 19.4219 10.7066 19.6799 10.3975 19.6799Z" fill="#EE6161"/>
<path d="M20.3349 9.59706H19.6536C19.3446 9.59706 19.0941 9.33903 19.0941 9.02075C19.0941 8.70247 19.3446 8.44444 19.6536 8.44444H20.3349C20.644 8.44444 20.8944 8.70247 20.8944 9.02075C20.8944 9.33903 20.644 9.59706 20.3349 9.59706Z" fill="#F9B1B1"/>
<path d="M24.8093 26.1966H24.0571C23.748 26.1966 23.4976 25.9385 23.4976 25.6202C23.4976 25.302 23.748 25.0439 24.0571 25.0439H24.8093C25.1184 25.0439 25.3688 25.302 25.3688 25.6202C25.3688 25.9385 25.1183 26.1966 24.8093 26.1966Z" fill="#EE6161"/>
<path d="M16.2753 16.1995C17.9459 14.8426 18.4084 12.5775 17.3082 11.1404C16.208 9.70329 13.9618 9.63826 12.2912 10.9952C10.6205 12.3521 10.1581 14.6171 11.2583 16.0542C12.3585 17.4913 14.6047 17.5564 16.2753 16.1995Z" fill="#EE6161"/>
</g>
<defs>
<clipPath id="clip0">
<rect width="37" height="38.1111" fill="white" transform="translate(0 0.0480652)"/>
</clipPath>
</defs>
</svg>
