<svg width="113" height="113" viewBox="0 0 113 113" fill="none" xmlns="http://www.w3.org/2000/svg">
<g clip-path="url(#clip0)">
<path d="M83.3451 82.4067C84.1398 83.5286 83.8758 85.0815 82.7561 85.8762L78.5897 88.8308C77.4366 89.649 75.8262 89.3457 75.0542 88.1417C74.3307 87.0145 74.6751 85.5071 75.767 84.7324L75.8793 84.6537L70.9733 80.3987C70.8263 80.2699 70.614 80.247 70.441 80.3408C68.663 81.2914 66.8019 82.0392 64.8947 82.58C64.7014 82.6347 64.562 82.8046 64.5501 83.0052L64.2813 87.4526C65.068 87.4519 65.8014 87.7604 66.3465 88.2786C66.8058 88.7152 67.1319 89.3012 67.2385 89.9765C67.4983 91.61 66.3838 93.1449 64.7491 93.4059L63.3974 93.6201C61.8101 93.8731 60.2554 92.8678 59.9246 91.2926C59.6389 89.937 60.3132 88.6284 61.4581 88.0233L59.7135 83.859C59.6341 83.6709 59.4444 83.5568 59.2422 83.5722C56.4074 83.7764 53.547 83.5524 50.7641 82.8985C50.5728 82.8535 50.3743 82.9299 50.2641 83.0922L46.5854 88.4975L47.5014 88.8626C48.8152 89.3873 49.4355 90.9042 48.8437 92.2073C48.2894 93.4269 46.837 93.9561 45.594 93.4589L40.9138 91.5933C39.6011 91.0697 38.9808 89.5528 39.5726 88.2497C40.1269 87.0301 41.5793 86.5009 42.8234 86.9969L42.9492 87.048L43.857 80.6161C43.8849 80.4219 43.7884 80.233 43.6162 80.1378C41.5796 79.0077 39.6492 77.6055 37.8816 75.9252C36.4828 74.5956 35.2544 73.1564 34.1915 71.6337C34.0787 71.4736 33.8799 71.3971 33.6897 71.4438L26.8732 73.1356L26.9364 73.2619C27.5185 74.4334 27.2712 75.7991 26.4201 76.6945C26.1819 76.9451 25.8976 77.1583 25.5712 77.3205C24.3507 78.6044 22.7065 78.3575 21.9193 76.7701L19.7222 72.3479C18.9863 70.8691 19.5736 69.0759 21.0349 68.3167C22.5397 67.5327 24.4233 68.206 25.1783 69.7251L25.2296 69.8268L30.5679 65.3257C30.7187 65.1997 30.7723 64.9946 30.7088 64.8083C29.6245 61.6845 29.1067 58.4038 29.1594 55.1267C29.1623 54.9285 29.0435 54.7493 28.8594 54.6781L23.1561 52.4603C22.7954 53.7689 21.4892 54.6204 20.1133 54.3723C18.6771 54.1133 17.7405 52.7085 17.9621 51.2676L18.35 48.7551C18.5657 47.3506 19.8228 46.3023 21.2387 46.4339C22.7477 46.5745 23.8108 47.9206 23.6442 49.3895L29.6393 48.8709C29.8392 48.8533 30.0054 48.711 30.0548 48.5174C30.9013 45.2507 32.3474 42.1036 34.3962 39.249C34.511 39.0888 34.5169 38.8758 34.4087 38.7133L30.8045 33.256L30.285 33.7932C29.7654 34.3305 29.0764 34.6094 28.3817 34.6225C27.6871 34.6378 26.9881 34.3884 26.4452 33.8725C25.3666 32.8471 25.33 31.1366 26.3658 30.0678L29.5855 26.741C30.6378 25.6526 32.4235 25.5904 33.492 26.6613C34.5291 27.7001 34.5469 29.3817 33.5267 30.4433L39.1337 33.7263C39.3037 33.8262 39.5161 33.8095 39.6692 33.6856C42.5645 31.3597 45.8229 29.6902 49.2395 28.6811C49.4304 28.6242 49.5665 28.4555 49.5784 28.2548L49.8331 23.6086L49.4047 23.6784C48.0746 23.8977 46.8206 22.964 46.6617 21.6097C46.5141 20.3389 47.4392 19.1915 48.7005 18.984L51.9875 18.4435C52.7506 18.3188 53.4883 18.5718 54.009 19.0668C54.3698 19.4097 54.6259 19.8696 54.714 20.3993C54.9172 21.628 54.1362 22.7887 52.9484 23.086L54.7489 27.3145C54.8284 27.5003 55.0169 27.6133 55.2191 27.6002C58.1658 27.3897 61.1413 27.6437 64.0289 28.364C64.2191 28.4101 64.4188 28.3371 64.5313 28.1769L68.2825 22.8207L67.3697 22.4432C66.0645 21.9024 65.4644 20.3759 66.0734 19.0826C66.6437 17.8694 68.1034 17.3604 69.34 17.8735L73.9935 19.8021C75.2999 20.344 75.8999 21.8682 75.2898 23.1627C74.7206 24.3747 73.2621 24.8848 72.0232 24.3717L71.8985 24.3194L70.9043 30.7354C70.8741 30.9297 70.9672 31.1198 71.1372 31.2174C73.0565 32.3154 74.8733 33.6582 76.5469 35.2491L76.5493 35.2513C76.6954 35.3902 76.9114 35.4255 77.0913 35.3338L80.3413 33.6939C79.619 32.3935 79.8983 30.7271 81.0811 29.7452C82.4226 28.6336 84.4698 28.8839 85.5736 30.2335L86.6483 31.5464C87.7428 32.8849 87.6169 34.8848 86.296 36.0026C85.2665 36.872 83.8494 36.9645 82.7428 36.3542L80.4912 39.3406C80.3696 39.501 80.3651 39.7219 80.4791 39.8899C82.1102 42.3037 83.3266 44.9193 84.1254 47.6326C84.1823 47.8213 84.3453 47.9564 84.5415 47.9707L91.0607 48.4824L90.9239 47.5067C90.7265 46.1047 91.7363 44.8148 93.1603 44.6825C94.4939 44.557 95.6749 45.556 95.8602 46.8824L96.5616 51.87C96.7601 53.2708 95.7492 54.5619 94.3252 54.6942C92.9927 54.8185 91.8117 53.8195 91.6253 52.4943L91.606 52.3589L85.5682 54.7645C85.3855 54.8359 85.269 55.0143 85.2717 55.2111C85.3083 57.9506 84.9455 60.6967 84.182 63.3535C84.1269 63.5461 84.1978 63.7526 84.3603 63.8696L87.526 66.1347C88.2047 64.5985 90.0209 63.9073 91.5572 64.6369C93.0226 65.3321 93.6367 67.097 92.9999 68.5892L92.003 70.927C91.3715 72.4043 89.697 73.1904 88.1889 72.64C86.7436 72.1118 85.971 70.6135 86.2834 69.1839L82.4699 68.5527C82.2698 68.5193 82.072 68.6183 81.9769 68.7973C80.8108 70.9786 79.3373 73.0398 77.5512 74.9187C77.2524 75.2331 76.9489 75.5385 76.6394 75.8338C76.498 75.9709 76.4534 76.1781 76.5293 76.3584L79.0716 82.3893L79.8755 81.8177C80.9975 81.023 82.5504 81.287 83.3451 82.4067V82.4067Z" fill="#F79595"/>
<path d="M73.2812 56.3695C74.867 57.8769 77.1743 58.024 78.4347 56.6981C79.695 55.3722 79.4312 53.0753 77.8454 51.5679C76.2597 50.0605 73.9524 49.9134 72.692 51.2393C71.4316 52.5652 71.6954 54.8621 73.2812 56.3695Z" fill="#EE6161"/>
<path d="M48.0068 62.2082C49.7401 63.8559 52.4809 63.7864 54.1286 62.0531C55.7762 60.3198 55.7067 57.579 53.9734 55.9313C52.2401 54.2837 49.4993 54.3532 47.8517 56.0865C46.204 57.8198 46.2735 60.5606 48.0068 62.2082Z" fill="#EE6161"/>
<path d="M62.6399 71.3087C63.8809 72.4884 65.8433 72.4386 67.023 71.1976C68.2027 69.9566 68.1529 67.9942 66.9119 66.8145C65.6709 65.6348 63.7085 65.6845 62.5288 66.9256C61.3491 68.1666 61.3988 70.129 62.6399 71.3087Z" fill="#F9B1B1"/>
<path d="M43.9761 74.3237C45.1827 75.4707 47.0906 75.4223 48.2375 74.2157C49.3845 73.0091 49.3361 71.1012 48.1295 69.9543C46.9229 68.8074 45.0151 68.8557 43.8681 70.0623C42.7212 71.2689 42.7695 73.1768 43.9761 74.3237Z" fill="#F9B1B1"/>
<path d="M45.7718 42.8563C53.2037 35.038 63.5387 31.6345 73.493 32.727C72.7284 32.1812 71.9406 31.6769 71.1371 31.2174C70.9671 31.1198 70.874 30.9297 70.9041 30.7354L71.8984 24.3194L72.0231 24.3717C73.2619 24.8848 74.7205 24.3747 75.2897 23.1627C75.8998 21.8682 75.2997 20.344 73.9934 19.8021L69.3399 17.8735C68.1033 17.3604 66.6435 17.8694 66.0732 19.0826C65.4642 20.3759 66.0643 21.9024 67.3696 22.4432L68.2824 22.8207L64.5311 28.177C64.4186 28.3371 64.219 28.4101 64.0288 28.364C61.1411 27.6437 58.1657 27.3897 55.219 27.6002C55.0167 27.6133 54.8282 27.5003 54.7488 27.3145L52.9483 23.086C54.1361 22.7888 54.9171 21.628 54.7139 20.3994C54.6258 19.8696 54.3696 19.4097 54.0089 19.0668C53.4881 18.5718 52.7505 18.3189 51.9874 18.4435L48.7004 18.9841C47.439 19.1915 46.5139 20.3389 46.6616 21.6097C46.8204 22.964 48.0745 23.8977 49.4046 23.6784L49.8329 23.6087L49.5783 28.2548C49.5664 28.4555 49.4303 28.6242 49.2393 28.6811C45.8227 29.6902 42.5644 31.3597 39.6691 33.6856C39.516 33.8095 39.3036 33.8262 39.1336 33.7263L33.5266 30.4433C34.5467 29.3817 34.529 27.7001 33.4919 26.6613C32.4234 25.5904 30.6377 25.6526 29.5854 26.741L26.3657 30.0678C25.3299 31.1366 25.3664 32.8471 26.4451 33.8725C26.9879 34.3884 27.687 34.6378 28.3816 34.6225C29.0762 34.6094 29.7653 34.3305 30.2848 33.7932L30.8043 33.256L34.4086 38.7133C34.5168 38.8758 34.5109 39.0888 34.3961 39.249C32.3472 42.1036 30.9012 45.2507 30.0547 48.5174C30.0052 48.711 29.8391 48.8533 29.6392 48.8709L23.6441 49.3895C23.8106 47.9206 22.7476 46.5745 21.2386 46.4339C19.8226 46.3023 18.5656 47.3506 18.3499 48.7551L17.962 51.2676C17.7404 52.7085 18.677 54.1132 20.1132 54.3723C21.4891 54.6204 22.7952 53.7689 23.156 52.4603L28.8593 54.6781C29.0433 54.7493 29.1622 54.9285 29.1593 55.1267C29.1065 58.4037 29.6243 61.6845 30.7086 64.8083C30.7722 64.9945 30.7186 65.1997 30.5678 65.3257L25.2295 69.8268L25.1782 69.7251C24.4232 68.206 22.5396 67.5327 21.0348 68.3167C19.5735 69.0759 18.9862 70.8691 19.7221 72.3479L21.9191 76.7701C22.7064 78.3575 24.3506 78.6044 25.571 77.3205C25.8975 77.1583 26.1818 76.945 26.42 76.6945C27.2711 75.7991 27.5183 74.4334 26.9363 73.2619L26.8731 73.1356L33.6896 71.4438C33.8797 71.3971 34.0786 71.4736 34.1913 71.6337C35.2543 73.1564 36.4827 74.5956 37.8815 75.9252C38.0461 76.0817 38.2153 76.2386 38.3826 76.3903C34.5689 65.0895 36.9834 52.1017 45.7718 42.8563V42.8563Z" fill="#F37C7C"/>
<path d="M35.1867 56.1946C36.4436 57.3894 38.4311 57.339 39.6259 56.0821C40.8207 54.8251 40.7703 52.8376 39.5134 51.6428C38.2565 50.448 36.269 50.4984 35.0742 51.7553C33.8794 53.0123 33.9298 54.9998 35.1867 56.1946Z" fill="#EE6161"/>
<path d="M63.7156 59.9128L62.9466 59.1818C62.4661 58.7251 62.4469 57.9655 62.9036 57.4851C63.3602 57.0047 64.1198 56.9853 64.6004 57.4421L65.3693 58.173C65.8499 58.6298 65.869 59.3894 65.4123 59.8698C64.9557 60.3502 64.1961 60.3696 63.7156 59.9128Z" fill="#F9B1B1"/>
<path d="M39.0169 65.3804L38.2268 64.6293C37.7463 64.1726 37.7272 63.413 38.1838 62.9326C38.6405 62.4521 39.4001 62.4328 39.8806 62.8896L40.6707 63.6406C41.1513 64.0974 41.1704 64.857 40.7137 65.3374C40.2571 65.8178 39.4975 65.8372 39.0169 65.3804Z" fill="#F9B1B1"/>
<path d="M42.945 44.9994L42.1839 44.2759C41.7034 43.8191 41.6842 43.0595 42.1409 42.5791C42.5975 42.0987 43.3571 42.0794 43.8377 42.5361L44.5988 43.2596C45.0793 43.7164 45.0984 44.476 44.6418 44.9564C44.1851 45.4368 43.4255 45.4562 42.945 44.9994Z" fill="#EE6161"/>
<path d="M72.8617 44.4664L71.8025 43.4596C71.322 43.0028 71.3029 42.2432 71.7595 41.7628C72.2162 41.2824 72.9758 41.263 73.4563 41.7198L74.5155 42.7266C74.996 43.1834 75.0152 43.943 74.5585 44.4234C74.1018 44.9038 73.3422 44.9232 72.8617 44.4664Z" fill="#F9B1B1"/>
<path d="M56.0012 76.1347L54.8316 75.0229C54.3511 74.5661 54.3319 73.8065 54.7886 73.3261C55.2453 72.8457 56.0048 72.8263 56.4854 73.2831L57.655 74.3949C58.1355 74.8517 58.1546 75.6113 57.698 76.0917C57.2413 76.5721 56.4816 76.5913 56.0012 76.1347Z" fill="#EE6161"/>
<path d="M57.0772 48.4327C61.6215 48.8536 65.5903 46.1181 65.9418 42.3229C66.2933 38.5277 62.8943 35.11 58.35 34.6891C53.8057 34.2682 49.8369 37.0037 49.4854 40.7989C49.1339 44.5941 52.5329 48.0119 57.0772 48.4327Z" fill="#EE6161"/>
</g>
<defs>
<clipPath id="clip0">
<rect width="79.3684" height="79.3684" fill="white" transform="translate(54.947) rotate(43.5482)"/>
</clipPath>
</defs>
</svg>
