<svg width="125" height="130" viewBox="0 0 125 130" fill="none" xmlns="http://www.w3.org/2000/svg">
<path d="M121.834 66.0148C123.958 66.4457 125.342 68.5666 124.926 70.7525L123.376 78.8831C122.948 81.1338 120.78 82.5771 118.593 82.0242C116.544 81.5076 115.301 79.3503 115.707 77.219L115.75 77.001L105.532 77.4812C105.225 77.4942 104.958 77.7045 104.862 78.0082C103.864 81.113 102.551 84.0724 100.961 86.8397C100.799 87.1201 100.825 87.4757 101.029 87.725L105.548 93.2544C106.445 92.3744 107.617 91.9175 108.801 91.9175C109.799 91.9175 110.807 92.242 111.662 92.9169C113.731 94.5472 114.124 97.5975 112.541 99.7314L111.231 101.494C109.693 103.566 106.828 104.121 104.741 102.639C102.944 101.364 102.294 99.072 102.944 97.0809L96.4342 94.1344C96.1393 94.002 95.7991 94.0799 95.5848 94.3239C92.5706 97.7325 89.0623 100.666 85.176 103.007C84.9089 103.168 84.7652 103.48 84.8156 103.794L86.4815 114.261L87.9231 113.667C89.9923 112.815 92.3463 113.905 93.0847 116.099C93.7753 118.152 92.6915 120.398 90.7333 121.203L83.3665 124.24C81.2998 125.091 78.9459 124.001 78.2074 121.808C77.5169 119.754 78.6006 117.509 80.5589 116.701L80.758 116.621L74.8151 108.044C74.6362 107.784 74.3211 107.67 74.0212 107.75C70.4701 108.698 66.7451 109.207 62.9042 109.207C59.8647 109.207 56.9009 108.887 54.0353 108.285C53.7329 108.223 53.4229 108.355 53.2565 108.623L47.3111 118.23L47.5203 118.308C49.4559 119.035 50.6556 120.917 50.6556 122.921C50.6556 123.482 50.5623 124.05 50.3657 124.606C50.3657 127.48 48.221 129.027 45.5999 128.04L38.2935 125.297C35.8489 124.38 34.5736 121.615 35.4179 119.09C36.2849 116.486 39.1656 115.172 41.6758 116.115L41.8446 116.177L43.0544 104.918C43.0897 104.601 42.9284 104.3 42.6536 104.152C38.0264 101.691 33.8755 98.4126 30.3798 94.5005C30.1681 94.2642 29.838 94.1864 29.5506 94.3084L20.6338 98.0751C21.642 100.017 21.0749 102.478 19.2351 103.724C17.3146 105.025 14.7212 104.42 13.4107 102.478L11.1273 99.0901C9.84951 97.1977 10.1469 94.5602 11.9061 93.1324C13.7812 91.6111 16.4552 92.0057 17.859 93.919L24.1396 86.6087C24.3488 86.3647 24.384 86.0116 24.2303 85.7287C21.652 80.9417 19.8878 75.6251 19.1292 69.9789C19.0864 69.6621 18.8621 69.4051 18.5622 69.3351L8.52635 66.9468L8.51627 68.1591C8.50619 69.3714 8.02229 70.4695 7.24352 71.2613C6.46727 72.0556 5.39867 72.5437 4.21917 72.5437C1.8753 72.5437 -0.0224814 70.5733 0.000201234 68.1591L0.0657289 60.6489C0.0858912 58.1931 2.05676 56.1241 4.43844 56.189C6.74955 56.2513 8.5944 58.2087 8.5818 60.597L18.5445 58.1905C18.847 58.1178 19.0713 57.8608 19.1116 57.5441C19.8929 51.5734 21.8007 45.9687 24.6058 40.9636C24.7621 40.6833 24.7344 40.3328 24.5302 40.0836L19.7795 34.3361L19.3661 34.8968C18.0858 36.6413 15.6411 36.945 13.9903 35.5302C12.4429 34.2011 12.2539 31.818 13.4686 30.1643L16.6341 25.855C17.3701 24.8556 18.4866 24.3286 19.6182 24.3286C20.402 24.3286 21.1933 24.583 21.8688 25.1074C23.4339 26.3249 23.8019 28.5626 22.7685 30.2396L29.412 33.199C29.7044 33.3288 30.0421 33.251 30.2588 33.0095C33.3941 29.4686 37.0662 26.4417 41.144 24.0612C41.4111 23.9028 41.5598 23.5939 41.5145 23.2798L39.9847 12.7895L38.533 13.3658C36.4562 14.1887 34.1149 13.0646 33.4067 10.8632C32.7413 8.79945 33.8553 6.5695 35.8237 5.79071L43.2283 2.85725C45.3075 2.03433 47.6463 3.15579 48.3545 5.35978C49.0199 7.42098 47.9085 9.65093 45.9376 10.4323L45.7385 10.5102L51.5654 19.1652C51.7418 19.4274 52.0543 19.5468 52.3543 19.4715C55.7365 18.6174 59.2674 18.1657 62.9042 18.1657H62.9092C63.2268 18.1657 63.5116 17.9658 63.6174 17.6569L65.548 12.0963C63.3125 11.3747 61.823 9.10318 62.1078 6.62661C62.4329 3.82036 65.0414 1.82665 67.7658 2.1797L70.4172 2.52237C73.1189 2.87283 75.1453 5.36497 74.8504 8.15565C74.6185 10.3285 73.1013 12.0211 71.1758 12.5403L71.8462 18.5681C71.8815 18.8926 72.1159 19.1574 72.4284 19.2275C76.9095 20.2425 81.136 21.9585 84.992 24.2559C85.2617 24.4143 85.5944 24.3909 85.8338 24.1884L93.8307 17.5038L92.6159 16.5095C90.8694 15.0817 90.6224 12.4364 92.1043 10.6893C93.4905 9.05126 95.9226 8.90588 97.5734 10.2584L103.786 15.3387C105.532 16.7639 105.779 19.4118 104.297 21.1589C102.911 22.7944 100.479 22.9397 98.8285 21.5898L98.6596 21.4522L94.3776 31.0288C94.2466 31.317 94.3071 31.657 94.5238 31.8855C97.5381 35.0656 100.104 38.6999 102.115 42.677C102.261 42.9651 102.566 43.1287 102.879 43.0845L108.95 42.2097C108.058 39.6449 109.381 36.8023 111.926 35.943C114.353 35.1227 116.97 36.5115 117.862 38.9777L119.26 42.8405C120.143 45.2833 119.084 48.0792 116.765 49.1176C114.542 50.1118 112.035 49.2136 110.84 47.1836L105.802 50.7037C105.537 50.888 105.419 51.2255 105.505 51.5422C106.541 55.4102 107.095 59.4807 107.095 63.6862C107.095 64.3897 107.08 65.088 107.047 65.7812C107.035 66.1005 107.208 66.3938 107.491 66.521L116.937 70.7706L117.234 69.2001C117.653 67.0117 119.712 65.5865 121.834 66.0148Z" fill="#F79595"/>
<path d="M82.0936 46.6485C85.5394 46.6485 88.3328 44.2427 88.3328 41.2751C88.3328 38.3074 85.5394 35.9016 82.0936 35.9016C78.6478 35.9016 75.8544 38.3074 75.8544 41.2751C75.8544 44.2427 78.6478 46.6485 82.0936 46.6485Z" fill="#EE6161"/>
<path d="M59.5782 81.7621C63.3446 81.7621 66.3979 78.6172 66.3979 74.7377C66.3979 70.8582 63.3446 67.7132 59.5782 67.7132C55.8118 67.7132 52.7585 70.8582 52.7585 74.7377C52.7585 78.6172 55.8118 81.7621 59.5782 81.7621Z" fill="#EE6161"/>
<path d="M86.1564 76.1073C88.8531 76.1073 91.0392 73.8556 91.0392 71.0779C91.0392 68.3002 88.8531 66.0484 86.1564 66.0484C83.4597 66.0484 81.2736 68.3002 81.2736 71.0779C81.2736 73.8556 83.4597 76.1073 86.1564 76.1073Z" fill="#F9B1B1"/>
<path d="M68.1233 100.512C70.7451 100.512 72.8705 98.3229 72.8705 95.6223C72.8705 92.9218 70.7451 90.7325 68.1233 90.7325C65.5015 90.7325 63.3761 92.9218 63.3761 95.6223C63.3761 98.3229 65.5015 100.512 68.1233 100.512Z" fill="#F9B1B1"/>
<path d="M36.0288 61.5062C36.0288 44.0072 44.1333 28.4544 56.6816 18.6134C55.2165 18.8262 53.7701 19.1139 52.3542 19.4716C52.0543 19.5469 51.7418 19.4275 51.5654 19.1653L45.7385 10.5103L45.9376 10.4324C47.9085 9.651 49.0199 7.42106 48.3545 5.35985C47.6463 3.15587 45.3075 2.0344 43.2283 2.85733L35.8236 5.79078C33.8553 6.56958 32.7413 8.79952 33.4067 10.8633C34.1149 13.0647 36.4562 14.1888 38.533 13.3658L39.9846 12.7895L41.5145 23.2799C41.5598 23.594 41.4111 23.9029 41.144 24.0613C37.0662 26.4418 33.3941 29.4687 30.2588 33.0096C30.0421 33.251 29.7044 33.3289 29.412 33.1991L22.7685 30.2397C23.8018 28.5627 23.4339 26.325 21.8688 25.1075C21.1933 24.5831 20.402 24.3287 19.6182 24.3287C18.4866 24.3287 17.3701 24.8556 16.6341 25.8551L13.4686 30.1644C12.2539 31.8181 12.4429 34.2012 13.9903 35.5303C15.6411 36.9451 18.0858 36.6414 19.3661 34.8969L19.7795 34.3362L24.5302 40.0836C24.7344 40.3329 24.7621 40.6833 24.6058 40.9637C21.8007 45.9687 19.8929 51.5734 19.1116 57.5442C19.0713 57.8609 18.847 58.1179 18.5445 58.1906L8.5818 60.5971C8.5944 58.2088 6.74955 56.2514 4.43844 56.1891C2.05676 56.1242 0.0858912 58.1932 0.0657289 60.649L0.000201234 68.1591C-0.0224814 70.5734 1.8753 72.5438 4.21917 72.5438C5.39867 72.5438 6.46727 72.0557 7.24352 71.2614C8.02229 70.4696 8.50619 69.3715 8.51627 68.1591L8.52635 66.9468L18.5622 69.3351C18.8621 69.4052 19.0864 69.6622 19.1292 69.9789C19.8878 75.6252 21.652 80.9417 24.2303 85.7287C24.384 86.0117 24.3488 86.3647 24.1396 86.6088L17.859 93.919C16.4552 92.0058 13.7812 91.6112 11.9061 93.1325C10.1469 94.5602 9.84951 97.1978 11.1273 99.0902L13.4107 102.478C14.7212 104.42 17.3146 105.025 19.2351 103.724C21.0749 102.478 21.642 100.017 20.6338 98.0752L29.5506 94.3084C29.8379 94.1864 30.1681 94.2643 30.3798 94.5005C33.8755 98.4127 38.0264 101.691 42.6536 104.152C42.9284 104.3 43.0896 104.601 43.0544 104.918L41.8446 116.177L41.6758 116.115C39.1656 115.172 36.2849 116.486 35.4179 119.09C34.5736 121.616 35.8488 124.38 38.2935 125.297L45.5999 128.041C48.221 129.027 50.3657 127.48 50.3657 124.606C50.5623 124.051 50.6556 123.482 50.6556 122.921C50.6556 120.917 49.4559 119.035 47.5203 118.308L47.3111 118.23L53.2565 108.623C53.4229 108.355 53.7328 108.223 54.0353 108.285C56.9009 108.887 59.8647 109.207 62.9042 109.207C63.2618 109.207 63.6253 109.202 63.9809 109.194C47.3653 100.169 36.0288 82.1992 36.0288 61.5062Z" fill="#F37C7C"/>
<path d="M38.4187 89.0197C41.1499 89.0197 43.364 86.7391 43.364 83.9259C43.364 81.1126 41.1499 78.832 38.4187 78.832C35.6875 78.832 33.4734 81.1126 33.4734 83.9259C33.4734 86.7391 35.6875 89.0197 38.4187 89.0197Z" fill="#EE6161"/>
<path d="M75.0188 61.5061H73.3479C72.3037 61.5061 71.4576 60.6344 71.4576 59.5592C71.4576 58.4839 72.3037 57.6122 73.3479 57.6122H75.0188C76.063 57.6122 76.909 58.4839 76.909 59.5592C76.909 60.6344 76.063 61.5061 75.0188 61.5061Z" fill="#F9B1B1"/>
<path d="M52.7582 95.5392H51.0413C49.9972 95.5392 49.1511 94.6675 49.1511 93.5922C49.1511 92.517 49.9972 91.6453 51.0413 91.6453H52.7582C53.8023 91.6453 54.6484 92.517 54.6484 93.5922C54.6484 94.6675 53.8023 95.5392 52.7582 95.5392Z" fill="#F9B1B1"/>
<path d="M35.127 67.1857H33.4732C32.4291 67.1857 31.583 66.314 31.583 65.2387C31.583 64.1635 32.4291 63.2918 33.4732 63.2918H35.127C36.1712 63.2918 37.0173 64.1635 37.0173 65.2387C37.0173 66.314 36.1712 67.1857 35.127 67.1857Z" fill="#EE6161"/>
<path d="M68.6992 33.122H66.3977C65.3535 33.122 64.5074 32.2502 64.5074 31.175C64.5074 30.0997 65.3535 29.228 66.3977 29.228H68.6992C69.7434 29.228 70.5894 30.0997 70.5894 31.175C70.5894 32.2502 69.7434 33.122 68.6992 33.122Z" fill="#F9B1B1"/>
<path d="M83.815 89.2014H81.2735C80.2294 89.2014 79.3833 88.3297 79.3833 87.2544C79.3833 86.1792 80.2294 85.3075 81.2735 85.3075H83.815C84.8591 85.3075 85.7052 86.1792 85.7052 87.2544C85.7052 88.3297 84.8589 89.2014 83.815 89.2014Z" fill="#EE6161"/>
<path d="M54.9843 55.4275C60.6284 50.8433 62.1906 43.1912 58.4738 38.3361C54.7569 33.4809 47.1685 33.2612 41.5244 37.8454C35.8804 42.4295 34.3182 50.0816 38.035 54.9367C41.7519 59.7919 49.3403 60.0116 54.9843 55.4275Z" fill="#EE6161"/>
</svg>
