<svg width="99" height="99" viewBox="0 0 99 99" fill="none" xmlns="http://www.w3.org/2000/svg">
<g clip-path="url(#clip0)">
<path d="M72.7605 72.1707C73.4566 73.1533 73.2254 74.5133 72.2447 75.2093L68.5959 77.7969C67.586 78.5134 66.1756 78.2478 65.4996 77.1934C64.8659 76.2062 65.1675 74.8861 66.1238 74.2076L66.2221 74.1386L61.9255 70.4121C61.7967 70.2994 61.6109 70.2793 61.4593 70.3615C59.9022 71.194 58.2722 71.8489 56.602 72.3225C56.4327 72.3704 56.3106 72.5192 56.3001 72.6949L56.0648 76.5898C56.7537 76.5892 57.396 76.8594 57.8734 77.3133C58.2757 77.6956 58.5613 78.2088 58.6546 78.8003C58.8822 80.2309 57.9061 81.5751 56.4745 81.8037L55.2906 81.9913C53.9005 82.2129 52.5389 81.3324 52.2492 79.9529C51.999 78.7657 52.5895 77.6197 53.5922 77.0897L52.0644 73.4427C51.9948 73.2779 51.8287 73.178 51.6516 73.1914C49.1689 73.3703 46.6638 73.1741 44.2265 72.6014C44.059 72.5621 43.8852 72.6289 43.7887 72.7711L40.5669 77.505L41.3691 77.8247C42.5198 78.2843 43.063 79.6128 42.5447 80.754C42.0592 81.8221 40.7872 82.2855 39.6986 81.8502L35.5998 80.2163C34.4501 79.7577 33.9069 78.4292 34.4252 77.288C34.9106 76.2199 36.1826 75.7564 37.2722 76.1908L37.3824 76.2356L38.1774 70.6026C38.2018 70.4325 38.1173 70.2671 37.9665 70.1837C36.1829 69.1939 34.4923 67.9659 32.9442 66.4944C31.7192 65.3299 30.6434 64.0694 29.7124 62.7359C29.6137 62.5957 29.4395 62.5287 29.273 62.5696L23.3032 64.0512L23.3586 64.1619C23.8683 65.1878 23.6518 66.3839 22.9064 67.1681C22.6978 67.3875 22.4488 67.5742 22.1629 67.7163C21.094 68.8408 19.6541 68.6245 18.9646 67.2343L17.0404 63.3614C16.396 62.0662 16.9103 60.4958 18.1901 59.8309C19.508 59.1443 21.1576 59.7339 21.8189 61.0644L21.8637 61.1534L26.539 57.2114C26.671 57.101 26.718 56.9214 26.6623 56.7583C25.7127 54.0225 25.2592 51.1493 25.3055 48.2792C25.308 48.1057 25.2039 47.9487 25.0427 47.8864L20.0478 45.9441C19.7319 47.0901 18.588 47.8358 17.383 47.6186C16.1252 47.3917 15.3049 46.1614 15.499 44.8995L15.8387 42.6991C16.0276 41.4691 17.1285 40.551 18.3686 40.6663C19.6902 40.7894 20.6211 41.9683 20.4753 43.2547L25.7257 42.8005C25.9008 42.7851 26.0463 42.6605 26.0896 42.4909C26.831 39.63 28.0974 36.8738 29.8918 34.3738C29.9923 34.2334 29.9975 34.0469 29.9027 33.9046L26.7461 29.1252L26.2912 29.5957C25.8362 30.0662 25.2327 30.3105 24.6243 30.3219C24.016 30.3354 23.4038 30.1169 22.9284 29.6651C21.9837 28.7671 21.9517 27.269 22.8588 26.333L25.6786 23.4195C26.6002 22.4662 28.1641 22.4117 29.0999 23.3496C30.0082 24.2594 30.0237 25.7321 29.1303 26.6618L34.0408 29.5371C34.1897 29.6245 34.3757 29.6099 34.5098 29.5014C37.0455 27.4644 39.8991 26.0023 42.8913 25.1185C43.0585 25.0687 43.1777 24.9209 43.1881 24.7452L43.4112 20.6761L43.036 20.7372C41.8711 20.9293 40.7728 20.1115 40.6337 18.9255C40.5044 17.8125 41.3146 16.8076 42.4193 16.626L45.298 16.1525C45.9663 16.0434 46.6123 16.2649 47.0684 16.6985C47.3843 16.9988 47.6087 17.4015 47.6859 17.8655C47.8638 18.9415 47.1798 19.9581 46.1396 20.2184L47.7164 23.9216C47.786 24.0844 47.9511 24.1834 48.1282 24.1719C50.7089 23.9876 53.3147 24.21 55.8437 24.8408C56.0103 24.8812 56.1851 24.8173 56.2837 24.677L59.569 19.9861L58.7695 19.6554C57.6264 19.1818 57.1009 17.845 57.6342 16.7122C58.1337 15.6498 59.4121 15.204 60.4951 15.6534L64.5706 17.3424C65.7147 17.817 66.2402 19.1519 65.7059 20.2856C65.2074 21.347 63.93 21.7938 62.845 21.3445L62.7358 21.2986L61.8651 26.9177C61.8387 27.0879 61.9202 27.2543 62.0691 27.3398C63.7499 28.3014 65.3411 29.4774 66.8068 30.8707L66.8089 30.8726C66.9369 30.9943 67.126 31.0252 67.2836 30.9449L70.1299 29.5087C69.4973 28.3698 69.7419 26.9104 70.7778 26.0504C71.9526 25.0769 73.7455 25.2962 74.7123 26.4781L75.6534 27.628C76.612 28.8002 76.5018 30.5517 75.3449 31.5307C74.4433 32.292 73.2022 32.3731 72.2331 31.8385L70.2612 34.454C70.1547 34.5945 70.1507 34.7879 70.2506 34.9351C71.6791 37.049 72.7443 39.3397 73.444 41.716C73.4938 41.8813 73.6365 41.9996 73.8083 42.0121L79.5178 42.4602L79.398 41.6058C79.2251 40.378 80.1095 39.2482 81.3566 39.1324C82.5246 39.0225 83.5589 39.8974 83.7211 41.059L84.3354 45.4271C84.5093 46.6539 83.6239 47.7846 82.3768 47.9005C81.2098 48.0094 80.1755 47.1345 80.0123 45.9738L79.9954 45.8553L74.7076 47.962C74.5476 48.0246 74.4455 48.1808 74.4479 48.3532C74.4799 50.7524 74.1622 53.1574 73.4935 55.4842C73.4453 55.6529 73.5073 55.8337 73.6497 55.9362L76.4221 57.9199C77.0165 56.5745 78.6071 55.9692 79.9527 56.6082C81.236 57.217 81.7738 58.7627 81.2161 60.0696L80.3431 62.1169C79.79 63.4107 78.3235 64.0992 77.0027 63.6172C75.737 63.1546 75.0603 61.8424 75.3339 60.5904L71.9941 60.0376C71.8189 60.0083 71.6456 60.095 71.5623 60.2518C70.5411 62.1621 69.2506 63.9673 67.6863 65.6129C67.4247 65.8882 67.1588 66.1556 66.8878 66.4143C66.764 66.5344 66.725 66.7158 66.7914 66.8737L69.0179 72.1555L69.722 71.6549C70.7046 70.9589 72.0646 71.1901 72.7605 72.1707Z" fill="#F79595"/>
<path d="M63.9468 49.3677C65.3357 50.6878 67.3563 50.8167 68.4602 49.6555C69.564 48.4942 69.3329 46.4827 67.9441 45.1625C66.5553 43.8424 64.5346 43.7135 63.4308 44.8747C62.327 46.036 62.558 48.0475 63.9468 49.3677Z" fill="#EE6161"/>
<path d="M41.8117 54.4812C43.3297 55.9242 45.7301 55.8633 47.1731 54.3453C48.616 52.8273 48.5552 50.4269 47.0372 48.984C45.5192 47.541 43.1188 47.6018 41.6758 49.1198C40.2329 50.6379 40.2937 53.0382 41.8117 54.4812Z" fill="#EE6161"/>
<path d="M54.6272 62.4513C55.7141 63.4844 57.4327 63.4409 58.4659 62.354C59.4991 61.2671 59.4555 59.5485 58.3686 58.5153C57.2817 57.4821 55.5631 57.5257 54.5299 58.6126C53.4968 59.6995 53.5403 61.4181 54.6272 62.4513Z" fill="#F9B1B1"/>
<path d="M38.2817 65.0918C39.3384 66.0962 41.0093 66.0539 42.0138 64.9972C43.0182 63.9405 42.9759 62.2696 41.9192 61.2651C40.8625 60.2606 39.1916 60.303 38.1871 61.3597C37.1826 62.4164 37.225 64.0873 38.2817 65.0918Z" fill="#F9B1B1"/>
<path d="M39.8544 37.533C46.3631 30.6858 55.4144 27.7051 64.1323 28.6618C63.4626 28.1839 62.7727 27.7423 62.069 27.3398C61.9201 27.2543 61.8386 27.0879 61.865 26.9177L62.7357 21.2987L62.8449 21.3445C63.9299 21.7938 65.2073 21.347 65.7058 20.2856C66.2401 19.1519 65.7146 17.817 64.5705 17.3424L60.495 15.6534C59.412 15.204 58.1336 15.6498 57.6341 16.7123C57.1008 17.845 57.6263 19.1818 58.7694 19.6554L59.5689 19.9861L56.2836 24.677C56.185 24.8173 56.0102 24.8812 55.8436 24.8408C53.3146 24.21 50.7088 23.9876 48.1281 24.1719C47.951 24.1834 47.7859 24.0844 47.7163 23.9217L46.1395 20.2184C47.1797 19.9581 47.8637 18.9415 47.6858 17.8655C47.6086 17.4015 47.3842 16.9988 47.0683 16.6985C46.6122 16.265 45.9662 16.0434 45.2979 16.1525L42.4192 16.626C41.3145 16.8076 40.5043 17.8125 40.6336 18.9255C40.7727 20.1115 41.871 20.9293 43.0359 20.7372L43.4111 20.6762L43.188 24.7452C43.1776 24.9209 43.0584 25.0687 42.8912 25.1185C39.899 26.0023 37.0454 27.4644 34.5097 29.5014C34.3756 29.6099 34.1896 29.6245 34.0407 29.5371L29.1302 26.6618C30.0236 25.7321 30.0081 24.2594 29.0998 23.3496C28.164 22.4117 26.6001 22.4662 25.6785 23.4195L22.8587 26.333C21.9516 27.269 21.9836 28.7671 22.9283 29.6651C23.4037 30.1169 24.0159 30.3354 24.6242 30.3219C25.2326 30.3105 25.8361 30.0662 26.2911 29.5957L26.746 29.1252L29.9026 33.9046C29.9974 34.0469 29.9922 34.2334 29.8917 34.3738C28.0973 36.8738 26.8309 39.63 26.0895 42.4909C26.0462 42.6605 25.9007 42.7851 25.7256 42.8005L20.4752 43.2547C20.621 41.9683 19.6901 40.7894 18.3685 40.6663C17.1284 40.551 16.0275 41.4691 15.8386 42.6991L15.4989 44.8995C15.3048 46.1615 16.1251 47.3917 17.3829 47.6186C18.5879 47.8358 19.7318 47.0901 20.0477 45.9441L25.0426 47.8864C25.2038 47.9487 25.3079 48.1057 25.3054 48.2792C25.2591 51.1493 25.7126 54.0225 26.6622 56.7583C26.7179 56.9214 26.6709 57.101 26.5389 57.2114L21.8636 61.1534L21.8187 61.0644C21.1575 59.7339 19.5079 59.1443 18.19 59.8309C16.9102 60.4958 16.3959 62.0662 17.0403 63.3614L18.9645 67.2343C19.654 68.6245 21.0939 68.8408 22.1628 67.7163C22.4487 67.5742 22.6977 67.3875 22.9063 67.1681C23.6517 66.3839 23.8682 65.1878 23.3585 64.1619L23.3031 64.0512L29.2729 62.5696C29.4394 62.5287 29.6136 62.5957 29.7123 62.7359C30.6433 64.0694 31.7191 65.3299 32.9441 66.4944C33.0883 66.6314 33.2365 66.7688 33.383 66.9017C30.043 57.0046 32.1576 45.6301 39.8544 37.533Z" fill="#F37C7C"/>
<path d="M30.584 49.2145C31.6848 50.2609 33.4255 50.2168 34.4718 49.116C35.5182 48.0152 35.4741 46.2745 34.3733 45.2281C33.2725 44.1818 31.5319 44.2259 30.4855 45.3267C29.4391 46.4275 29.4832 48.1681 30.584 49.2145Z" fill="#EE6161"/>
<path d="M55.5692 52.4709L54.8958 51.8307C54.4749 51.4307 54.4582 50.7654 54.8581 50.3447C55.258 49.924 55.9233 49.907 56.3441 50.307L57.0176 50.9472C57.4384 51.3472 57.4552 52.0125 57.0552 52.4332C56.6553 52.854 55.9901 52.8709 55.5692 52.4709Z" fill="#F9B1B1"/>
<path d="M33.9385 57.2593L33.2466 56.6016C32.8257 56.2015 32.809 55.5363 33.2089 55.1155C33.6089 54.6948 34.2741 54.6778 34.6949 55.0779L35.3869 55.7356C35.8077 56.1357 35.8245 56.8009 35.4246 57.2216C35.0246 57.6424 34.3594 57.6593 33.9385 57.2593Z" fill="#F9B1B1"/>
<path d="M37.3785 39.4099L36.7119 38.7763C36.2911 38.3762 36.2743 37.711 36.6743 37.2903C37.0742 36.8695 37.7394 36.8526 38.1603 37.2526L38.8268 37.8862C39.2477 38.2862 39.2644 38.9515 38.8645 39.3722C38.4646 39.793 37.7993 39.8099 37.3785 39.4099Z" fill="#EE6161"/>
<path d="M63.5795 38.9431L62.6519 38.0613C62.231 37.6613 62.2143 36.9961 62.6142 36.5753C63.0141 36.1546 63.6794 36.1376 64.1002 36.5377L65.0278 37.4194C65.4487 37.8195 65.4654 38.4847 65.0655 38.9054C64.6656 39.3262 64.0003 39.3431 63.5795 38.9431Z" fill="#F9B1B1"/>
<path d="M48.8131 66.6778L47.7888 65.7041C47.368 65.3041 47.3512 64.6388 47.7512 64.2181C48.1511 63.7973 48.8163 63.7804 49.2372 64.1804L50.2615 65.1541C50.6823 65.5541 50.6991 66.2194 50.2992 66.6401C49.8992 67.0609 49.2339 67.0777 48.8131 66.6778Z" fill="#EE6161"/>
<path d="M49.7555 42.4168C53.7353 42.7854 57.2112 40.3897 57.519 37.0659C57.8268 33.7421 54.8501 30.7489 50.8702 30.3803C46.8904 30.0117 43.4145 32.4074 43.1067 35.7311C42.7989 39.0549 45.7756 42.0482 49.7555 42.4168Z" fill="#EE6161"/>
</g>
<defs>
<clipPath id="clip0">
<rect width="69.5099" height="69.5099" fill="white" transform="translate(47.8899) rotate(43.5482)"/>
</clipPath>
</defs>
</svg>
