<svg width="73" height="73" viewBox="0 0 73 73" fill="none" xmlns="http://www.w3.org/2000/svg">
<g clip-path="url(#clip0)">
<path d="M53.6835 53.2511C54.1939 53.9715 54.0243 54.9688 53.3053 55.4791L50.6297 57.3764C49.8893 57.9019 48.8551 57.7071 48.3594 56.9339C47.8947 56.2101 48.1159 55.2421 48.8171 54.7446L48.8892 54.694L45.7387 51.9616C45.6443 51.8789 45.508 51.8642 45.3969 51.9244C44.2551 52.5349 43.06 53.0151 41.8352 53.3623C41.7111 53.3975 41.6216 53.5066 41.6139 53.6354L41.4413 56.4914C41.9465 56.4909 42.4175 56.6891 42.7675 57.0218C43.0625 57.3022 43.2719 57.6785 43.3403 58.1122C43.5072 59.1612 42.7915 60.1468 41.7418 60.3144L40.8737 60.452C39.8544 60.6145 38.856 59.9689 38.6436 58.9573C38.4601 58.0868 38.8931 57.2465 39.6283 56.8579L38.508 54.1837C38.457 54.0629 38.3352 53.9897 38.2054 53.9995C36.3849 54.1307 34.5481 53.9868 32.761 53.5669C32.6381 53.538 32.5107 53.587 32.4399 53.6913L30.0776 57.1624L30.6657 57.3968C31.5095 57.7338 31.9078 58.7079 31.5277 59.5447C31.1718 60.3279 30.2391 60.6677 29.4409 60.3485L26.4354 59.1504C25.5924 58.8142 25.1941 57.8401 25.5741 57.0033C25.9301 56.2201 26.8628 55.8803 27.6617 56.1988L27.7425 56.2316L28.3255 52.1012C28.3434 51.9765 28.2814 51.8552 28.1708 51.794C26.863 51.0683 25.6233 50.1679 24.4882 49.0889C23.59 48.235 22.8011 47.3108 22.1185 46.333C22.0461 46.2302 21.9184 46.1811 21.7963 46.211L17.419 47.2975L17.4596 47.3786C17.8333 48.1309 17.6746 49.0079 17.128 49.5829C16.9751 49.7438 16.7925 49.8807 16.5828 49.9849C15.7991 50.8094 14.7433 50.6508 14.2377 49.6314L12.8268 46.7916C12.3542 45.8419 12.7314 44.6905 13.6698 44.2029C14.6361 43.6994 15.8457 44.1318 16.3306 45.1073L16.3635 45.1726L19.7916 42.2822C19.8884 42.2012 19.9229 42.0695 19.882 41.9499C19.1857 39.9439 18.8532 37.8371 18.8871 35.7326C18.889 35.6054 18.8126 35.4903 18.6945 35.4446L15.032 34.0204C14.8003 34.8607 13.9615 35.4075 13.078 35.2482C12.1557 35.0819 11.5542 34.1798 11.6965 33.2545L11.9456 31.641C12.0842 30.7391 12.8914 30.0659 13.8007 30.1504C14.7697 30.2407 15.4523 31.1051 15.3454 32.0484L19.1953 31.7154C19.3236 31.7041 19.4304 31.6127 19.4621 31.4884C20.0057 29.3906 20.9343 27.3696 22.25 25.5365C22.3237 25.4336 22.3275 25.2968 22.258 25.1925L19.9435 21.688L19.6099 22.033C19.2763 22.378 18.8338 22.5571 18.3877 22.5655C17.9416 22.5753 17.4927 22.4152 17.1441 22.0838C16.4514 21.4254 16.428 20.3269 17.0931 19.6406L19.1607 17.5043C19.8365 16.8053 20.9832 16.7653 21.6694 17.453C22.3354 18.1202 22.3468 19.2 21.6917 19.8817L25.2923 21.99C25.4015 22.0541 25.5379 22.0434 25.6362 21.9638C27.4955 20.4702 29.5879 19.3981 31.7819 18.7501C31.9045 18.7135 31.9919 18.6052 31.9996 18.4764L32.1631 15.4927L31.888 15.5375C31.0339 15.6784 30.2285 15.0787 30.1266 14.2091C30.0317 13.393 30.6258 12.6561 31.4358 12.523L33.5466 12.1758C34.0367 12.0958 34.5104 12.2582 34.8448 12.5761C35.0764 12.7963 35.2409 13.0916 35.2975 13.4318C35.428 14.2208 34.9264 14.9662 34.1637 15.1571L35.3199 17.8725C35.3709 17.9919 35.492 18.0644 35.6219 18.056C37.5141 17.9208 39.4249 18.0839 41.2793 18.5465C41.4014 18.5761 41.5296 18.5292 41.6019 18.4264L44.0108 14.9868L43.4246 14.7443C42.5864 14.397 42.201 13.4168 42.5921 12.5862C42.9584 11.8072 43.8958 11.4803 44.6899 11.8098L47.6782 13.0483C48.5171 13.3963 48.9025 14.3751 48.5107 15.2064C48.1451 15.9847 47.2085 16.3122 46.4129 15.9828L46.3329 15.9492L45.6944 20.0693C45.675 20.1941 45.7348 20.3162 45.844 20.3788C47.0765 21.0839 48.2432 21.9462 49.3179 22.9679L49.3194 22.9693C49.4133 23.0585 49.552 23.0812 49.6675 23.0223L51.7546 21.9692C51.2907 21.1341 51.4701 20.064 52.2297 19.4334C53.0911 18.7196 54.4057 18.8803 55.1146 19.747L55.8047 20.5901C56.5076 21.4497 56.4267 22.7339 55.5785 23.4518C54.9174 24.0101 54.0074 24.0695 53.2967 23.6775L51.8508 25.5953C51.7728 25.6983 51.7698 25.8402 51.8431 25.9481C52.8905 27.4981 53.6716 29.1778 54.1846 30.9202C54.2211 31.0414 54.3258 31.1281 54.4518 31.1373L58.6382 31.4659L58.5504 30.8394C58.4236 29.9391 59.0721 29.1107 59.9865 29.0257C60.8429 28.9452 61.6013 29.5867 61.7203 30.4385L62.1708 33.6413C62.2982 34.5409 61.6491 35.37 60.7346 35.4549C59.8789 35.5348 59.1205 34.8933 59.0008 34.0422L58.9884 33.9553L55.1112 35.5001C54.9938 35.5459 54.919 35.6605 54.9207 35.7869C54.9442 37.5461 54.7112 39.3096 54.2209 41.0157C54.1856 41.1394 54.2311 41.272 54.3355 41.3471L56.3684 42.8017C56.8042 41.8152 57.9705 41.3713 58.9571 41.8398C59.8981 42.2863 60.2925 43.4197 59.8835 44.3779L59.2434 45.8791C58.8378 46.8278 57.7625 47.3326 56.7941 46.9792C55.866 46.64 55.3698 45.6778 55.5704 44.7598L53.1215 44.3545C52.993 44.333 52.866 44.3966 52.8049 44.5115C52.0561 45.9123 51.1098 47.2359 49.9628 48.4425C49.771 48.6444 49.576 48.8405 49.3773 49.0302C49.2865 49.1182 49.2579 49.2512 49.3066 49.367L50.9392 53.2399L51.4555 52.8728C52.176 52.3625 53.1732 52.532 53.6835 53.2511Z" fill="#F79595"/>
<path d="M47.2209 36.5307C48.2392 37.4987 49.7209 37.5932 50.5303 36.7418C51.3396 35.8903 51.1702 34.4153 50.1519 33.4473C49.1335 32.4793 47.6519 32.3848 46.8425 33.2363C46.0331 34.0878 46.2025 35.5627 47.2209 36.5307Z" fill="#EE6161"/>
<path d="M30.9902 40.2804C32.1033 41.3384 33.8634 41.2938 34.9215 40.1807C35.9795 39.0677 35.9349 37.3076 34.8218 36.2495C33.7087 35.1915 31.9487 35.2361 30.8906 36.3492C29.8325 37.4622 29.8772 39.2223 30.9902 40.2804Z" fill="#EE6161"/>
<path d="M40.3873 46.1242C41.1842 46.8818 42.4444 46.8498 43.202 46.0529C43.9595 45.2559 43.9276 43.9957 43.1306 43.2381C42.3337 42.4806 41.0735 42.5125 40.3159 43.3095C39.5584 44.1064 39.5903 45.3666 40.3873 46.1242Z" fill="#F9B1B1"/>
<path d="M28.4019 48.0604C29.1767 48.7969 30.4019 48.7659 31.1384 47.991C31.875 47.2162 31.8439 45.991 31.0691 45.2545C30.2943 44.518 29.0691 44.549 28.3325 45.3239C27.596 46.0987 27.6271 47.3239 28.4019 48.0604Z" fill="#F9B1B1"/>
<path d="M29.555 27.8529C34.3276 22.8321 40.9644 20.6466 47.3568 21.3481C46.8658 20.9976 46.3599 20.6738 45.8439 20.3787C45.7347 20.316 45.6749 20.194 45.6943 20.0692L46.3327 15.949L46.4128 15.9826C47.2084 16.3121 48.145 15.9845 48.5105 15.2062C48.9023 14.3749 48.517 13.3961 47.6781 13.0481L44.6897 11.8097C43.8956 11.4802 42.9582 11.807 42.592 12.5861C42.2009 13.4166 42.5863 14.3969 43.4245 14.7442L44.0107 14.9866L41.6017 18.4262C41.5295 18.5291 41.4013 18.5759 41.2791 18.5463C39.4248 18.0838 37.514 17.9207 35.6217 18.0559C35.4918 18.0642 35.3708 17.9917 35.3198 17.8724L34.1636 15.157C34.9263 14.9661 35.4279 14.2207 35.2974 13.4317C35.2408 13.0915 35.0763 12.7962 34.8447 12.576C34.5102 12.2581 34.0366 12.0956 33.5465 12.1757L31.4357 12.5228C30.6257 12.656 30.0316 13.3929 30.1264 14.2089C30.2284 15.0786 31.0337 15.6782 31.8879 15.5374L32.163 15.4926L31.9994 18.4762C31.9918 18.6051 31.9044 18.7134 31.7818 18.75C29.5878 19.398 27.4953 20.4701 25.636 21.9637C25.5377 22.0432 25.4014 22.054 25.2922 21.9899L21.6915 19.8816C22.3466 19.1999 22.3353 18.12 21.6692 17.4529C20.9831 16.7652 19.8364 16.8052 19.1606 17.5041L17.093 19.6405C16.4279 20.3268 16.4513 21.4253 17.144 22.0837C17.4926 22.415 17.9415 22.5752 18.3876 22.5654C18.8337 22.557 19.2761 22.3778 19.6098 22.0328L19.9434 21.6878L22.2579 25.1923C22.3274 25.2967 22.3236 25.4335 22.2499 25.5364C20.9342 27.3695 20.0056 29.3905 19.462 31.4882C19.4302 31.6126 19.3235 31.704 19.1951 31.7152L15.3453 32.0483C15.4522 31.105 14.7696 30.2406 13.8005 30.1503C12.8913 30.0658 12.084 30.739 11.9455 31.6409L11.6964 33.2544C11.5541 34.1797 12.1556 35.0817 13.0778 35.2481C13.9614 35.4074 14.8002 34.8606 15.0318 34.0203L18.6943 35.4445C18.8125 35.4902 18.8889 35.6053 18.887 35.7325C18.8531 37.837 19.1856 39.9438 19.8819 41.9497C19.9228 42.0694 19.8883 42.2011 19.7915 42.282L16.3634 45.1725L16.3304 45.1072C15.8456 44.1316 14.636 43.6993 13.6697 44.2028C12.7313 44.6903 12.3541 45.8418 12.8267 46.7915L14.2376 49.6313C14.7431 50.6506 15.799 50.8092 16.5827 49.9847C16.7923 49.8805 16.9749 49.7436 17.1279 49.5827C17.6744 49.0077 17.8332 48.1307 17.4594 47.3784L17.4188 47.2973L21.7962 46.2109C21.9183 46.1809 22.046 46.23 22.1184 46.3329C22.801 47.3107 23.5898 48.2349 24.4881 49.0887C24.5938 49.1892 24.7025 49.29 24.8099 49.3874C22.3609 42.1304 23.9114 33.79 29.555 27.8529Z" fill="#F37C7C"/>
<path d="M22.7576 36.4184C23.5648 37.1857 24.8411 37.1534 25.6083 36.3462C26.3756 35.539 26.3432 34.2627 25.5361 33.4955C24.7289 32.7282 23.4526 32.7605 22.6853 33.5677C21.9181 34.3749 21.9504 35.6512 22.7576 36.4184Z" fill="#EE6161"/>
<path d="M41.0781 38.8061L40.5843 38.3367C40.2757 38.0434 40.2634 37.5556 40.5566 37.2471C40.8499 36.9386 41.3377 36.9262 41.6463 37.2195L42.1401 37.6889C42.4487 37.9822 42.461 38.47 42.1677 38.7785C41.8744 39.087 41.3867 39.0995 41.0781 38.8061Z" fill="#F9B1B1"/>
<path d="M25.2172 42.3173L24.7099 41.835C24.4013 41.5417 24.389 41.0539 24.6823 40.7454C24.9755 40.4369 25.4633 40.4244 25.7719 40.7178L26.2792 41.2001C26.5878 41.4934 26.6001 41.9812 26.3069 42.2897C26.0136 42.5982 25.5258 42.6106 25.2172 42.3173Z" fill="#F9B1B1"/>
<path d="M27.7398 29.2293L27.251 28.7647C26.9424 28.4714 26.9301 27.9836 27.2234 27.6751C27.5166 27.3666 28.0044 27.3541 28.313 27.6475L28.8018 28.1121C29.1103 28.4054 29.1226 28.8932 28.8294 29.2017C28.5361 29.5102 28.0483 29.5226 27.7398 29.2293Z" fill="#EE6161"/>
<path d="M46.9514 28.8868L46.2713 28.2403C45.9627 27.947 45.9504 27.4592 46.2437 27.1507C46.5369 26.8422 47.0247 26.8297 47.3333 27.123L48.0135 27.7696C48.322 28.0629 48.3343 28.5507 48.0411 28.8592C47.7478 29.1677 47.26 29.1802 46.9514 28.8868Z" fill="#F9B1B1"/>
<path d="M36.124 49.2233L35.373 48.5093C35.0644 48.216 35.0521 47.7282 35.3453 47.4197C35.6386 47.1112 36.1264 47.0988 36.435 47.3921L37.186 48.106C37.4946 48.3994 37.5069 48.8872 37.2137 49.1957C36.9204 49.5042 36.4325 49.5165 36.124 49.2233Z" fill="#EE6161"/>
<path d="M36.8149 31.434C39.7331 31.7043 42.2818 29.9476 42.5075 27.5105C42.7332 25.0733 40.5505 22.8785 37.6323 22.6083C34.7141 22.338 32.1654 24.0946 31.9397 26.5318C31.714 28.9689 33.8967 31.1637 36.8149 31.434Z" fill="#EE6161"/>
</g>
<defs>
<clipPath id="clip0">
<rect width="50.968" height="50.968" fill="white" transform="translate(35.4471 0.332031) rotate(43.5482)"/>
</clipPath>
</defs>
</svg>
