<svg width="93" height="93" viewBox="0 0 93 93" fill="none" xmlns="http://www.w3.org/2000/svg">
<g clip-path="url(#clip0)">
<path d="M68.6925 68.1357C69.3496 69.0634 69.1313 70.3473 68.2055 71.0044L64.7606 73.4474C63.8073 74.1238 62.4757 73.8731 61.8374 72.8775C61.2392 71.9456 61.5239 70.6992 62.4268 70.0587L62.5196 69.9936L58.4632 66.4755C58.3417 66.369 58.1662 66.3501 58.0231 66.4277C56.553 67.2136 55.0142 67.8319 53.4373 68.279C53.2775 68.3242 53.1622 68.4647 53.1524 68.6306L52.9302 72.3078C53.5806 72.3072 54.187 72.5623 54.6377 72.9908C55.0175 73.3517 55.2871 73.8363 55.3752 74.3946C55.59 75.7453 54.6685 77.0143 53.317 77.2301L52.1993 77.4073C50.8869 77.6165 49.6014 76.7852 49.3279 75.4828C49.0917 74.362 49.6492 73.28 50.5958 72.7797L49.1534 69.3366C49.0877 69.181 48.9309 69.0867 48.7637 69.0994C46.4198 69.2683 44.0548 69.083 41.7538 68.5424C41.5956 68.5052 41.4315 68.5683 41.3404 68.7026L38.2988 73.1718L39.0561 73.4736C40.1424 73.9075 40.6553 75.1617 40.166 76.2391C39.7077 77.2475 38.5068 77.685 37.479 77.274L33.6093 75.7315C32.524 75.2985 32.0111 74.0443 32.5004 72.9669C32.9587 71.9585 34.1596 71.521 35.1883 71.931L35.2923 71.9733L36.0429 66.6553C36.0659 66.4947 35.9862 66.3385 35.8438 66.2598C34.1598 65.3254 32.5638 64.166 31.1023 62.7767C29.9457 61.6774 28.9301 60.4874 28.0512 59.2284C27.958 59.096 27.7935 59.0328 27.6363 59.0714L22.0003 60.4702L22.0525 60.5746C22.5338 61.5433 22.3294 62.6724 21.6256 63.4128C21.4287 63.6199 21.1936 63.7962 20.9237 63.9303C19.9146 64.992 18.5552 64.7878 17.9042 63.4753L16.0876 59.8189C15.4792 58.5962 15.9648 57.1136 17.173 56.4859C18.4173 55.8376 19.9747 56.3943 20.5989 57.6503L20.6413 57.7344L25.0552 54.0128C25.1798 53.9086 25.2242 53.739 25.1716 53.585C24.2751 51.0022 23.8469 48.2896 23.8906 45.58C23.893 45.4161 23.7947 45.268 23.6425 45.2091L18.9269 43.3754C18.6286 44.4574 17.5486 45.1614 16.411 44.9563C15.2236 44.7421 14.4492 43.5806 14.6323 42.3893L14.9531 40.3119C15.1315 39.1506 16.1708 38.2838 17.3415 38.3927C18.5892 38.5089 19.4682 39.6219 19.3305 40.8364L24.2873 40.4075C24.4526 40.3931 24.59 40.2754 24.6309 40.1153C25.3308 37.4143 26.5264 34.8122 28.2205 32.452C28.3154 32.3195 28.3203 32.1434 28.2308 32.0091L25.2507 27.4968L24.8212 27.941C24.3916 28.3852 23.8219 28.6159 23.2475 28.6267C22.6732 28.6394 22.0952 28.4331 21.6464 28.0065C20.7545 27.1587 20.7243 25.7444 21.5807 24.8608L24.2429 22.1101C25.1129 21.2102 26.5894 21.1587 27.4728 22.0442C28.3304 22.9031 28.345 24.2935 27.5016 25.1712L32.1375 27.8857C32.2781 27.9682 32.4537 27.9544 32.5803 27.852C34.9742 25.9289 37.6683 24.5485 40.4932 23.7142C40.6511 23.6671 40.7636 23.5276 40.7734 23.3617L40.984 19.5202L40.6298 19.5778C39.5301 19.7592 38.4932 18.9871 38.3619 17.8674C38.2398 16.8167 39.0047 15.868 40.0476 15.6965L42.7653 15.2495C43.3963 15.1464 44.0062 15.3556 44.4368 15.7649C44.735 16.0484 44.9468 16.4286 45.0197 16.8667C45.1877 17.8825 44.5419 18.8423 43.5599 19.088L45.0486 22.5842C45.1142 22.7379 45.2701 22.8313 45.4373 22.8205C47.8737 22.6465 50.3339 22.8565 52.7215 23.452C52.8787 23.4901 53.0438 23.4298 53.1368 23.2974L56.2384 18.8687L55.4837 18.5565C54.4045 18.1094 53.9083 16.8473 54.4119 15.7779C54.8834 14.7748 56.0903 14.354 57.1128 14.7782L60.9604 16.3728C62.0405 16.8209 62.5367 18.0811 62.0322 19.1515C61.5616 20.1536 60.3556 20.5753 59.3313 20.1511L59.2282 20.1079L58.4062 25.4128C58.3812 25.5734 58.4582 25.7306 58.5988 25.8112C60.1856 26.7191 61.6878 27.8294 63.0716 29.1448L63.0736 29.1466C63.1944 29.2615 63.373 29.2906 63.5217 29.2148L66.2089 27.8589C65.6117 26.7837 65.8426 25.4059 66.8206 24.594C67.9297 23.6749 69.6224 23.8819 70.5351 24.9977L71.4236 26.0833C72.3286 27.19 72.2245 28.8436 71.1324 29.7678C70.2811 30.4866 69.1095 30.5631 68.1945 30.0585L66.3329 32.5277C66.2323 32.6604 66.2285 32.843 66.3228 32.9819C67.6715 34.9777 68.6772 37.1403 69.3377 39.3837C69.3847 39.5398 69.5195 39.6515 69.6817 39.6633L75.0719 40.0863L74.9588 39.2797C74.7956 38.1205 75.6305 37.0539 76.8079 36.9445C77.9106 36.8408 78.8871 37.6668 79.0403 38.7635L79.6202 42.8873C79.7843 44.0455 78.9485 45.113 77.7711 45.2224C76.6694 45.3252 75.6929 44.4992 75.5388 43.4035L75.5228 43.2916L70.5307 45.2805C70.3796 45.3396 70.2832 45.4871 70.2855 45.6499C70.3157 47.9149 70.0157 50.1855 69.3845 52.3821C69.3389 52.5414 69.3975 52.7121 69.5319 52.8089L72.1494 54.6817C72.7105 53.4115 74.2122 52.84 75.4825 53.4433C76.6941 54.0181 77.2018 55.4774 76.6753 56.7111L75.8511 58.644C75.3289 59.8655 73.9444 60.5155 72.6975 60.0604C71.5025 59.6237 70.8637 58.3849 71.122 57.2028L67.9689 56.681C67.8034 56.6533 67.6399 56.7352 67.5613 56.8832C66.5971 58.6867 65.3787 60.391 63.902 61.9445C63.6549 62.2044 63.404 62.4569 63.1481 62.7011C63.0312 62.8145 62.9943 62.9858 63.0571 63.1349L65.1591 68.1214L65.8238 67.6488C66.7515 66.9917 68.0354 67.2099 68.6925 68.1357Z" fill="#F79595"/>
<path d="M60.3715 46.6076C61.6827 47.854 63.5904 47.9756 64.6325 46.8793C65.6746 45.783 65.4565 43.8839 64.1453 42.6376C62.8342 41.3912 60.9264 41.2696 59.8843 42.3659C58.8422 43.4622 59.0604 45.3613 60.3715 46.6076Z" fill="#EE6161"/>
<path d="M39.474 51.4352C40.9071 52.7975 43.1733 52.7401 44.5356 51.3069C45.8979 49.8738 45.8405 47.6076 44.4073 46.2453C42.9742 44.883 40.708 44.9404 39.3457 46.3736C37.9834 47.8067 38.0408 50.0729 39.474 51.4352Z" fill="#EE6161"/>
<path d="M51.5729 58.9597C52.599 59.9351 54.2216 59.894 55.197 58.8678C56.1724 57.8417 56.1313 56.2192 55.1051 55.2438C54.079 54.2684 52.4565 54.3095 51.4811 55.3356C50.5057 56.3617 50.5468 57.9843 51.5729 58.9597Z" fill="#F9B1B1"/>
<path d="M36.1413 61.4526C37.1389 62.4009 38.7164 62.3609 39.6647 61.3633C40.613 60.3657 40.573 58.7882 39.5754 57.8399C38.5778 56.8916 37.0003 56.9315 36.052 57.9292C35.1037 58.9268 35.1436 60.5043 36.1413 61.4526Z" fill="#F9B1B1"/>
<path d="M37.626 35.4346C43.7709 28.9702 52.3161 26.1562 60.5466 27.0594C59.9144 26.6081 59.263 26.1912 58.5986 25.8113C58.4581 25.7306 58.3811 25.5734 58.406 25.4128L59.2281 20.1079L59.3312 20.1511C60.3555 20.5753 61.5615 20.1536 62.0321 19.1515C62.5365 18.0811 62.0404 16.8209 60.9603 16.3728L57.1126 14.7782C56.0902 14.354 54.8833 14.7748 54.4117 15.7779C53.9082 16.8473 54.4044 18.1094 55.4835 18.5565L56.2383 18.8687L53.1367 23.2974C53.0436 23.4298 52.8786 23.4901 52.7213 23.452C50.3337 22.8565 47.8736 22.6465 45.4372 22.8205C45.2699 22.8313 45.1141 22.7379 45.0484 22.5842L43.5597 19.088C44.5418 18.8423 45.1876 17.8825 45.0196 16.8667C44.9467 16.4286 44.7349 16.0484 44.4367 15.7649C44.0061 15.3556 43.3962 15.1465 42.7652 15.2495L40.0475 15.6965C39.0045 15.868 38.2396 16.8167 38.3617 17.8674C38.493 18.9871 39.5299 19.7592 40.6297 19.5778L40.9839 19.5202L40.7733 23.3617C40.7635 23.5276 40.651 23.6671 40.493 23.7142C37.6681 24.5485 34.9741 25.9289 32.5801 27.852C32.4536 27.9544 32.278 27.9683 32.1374 27.8857L27.5014 25.1712C28.3449 24.2935 28.3302 22.9031 27.4727 22.0442C26.5893 21.1587 25.1128 21.2102 24.2427 22.1101L21.5806 24.8608C20.7242 25.7445 20.7544 27.1588 21.6463 28.0065C22.0951 28.4332 22.6731 28.6394 23.2474 28.6267C23.8218 28.6159 24.3915 28.3853 24.821 27.941L25.2506 27.4968L28.2306 32.0091C28.3201 32.1434 28.3152 32.3195 28.2203 32.452C26.5263 34.8122 25.3307 37.4143 24.6307 40.1153C24.5899 40.2754 24.4525 40.3931 24.2872 40.4076L19.3303 40.8364C19.468 39.6219 18.5891 38.5089 17.3414 38.3927C16.1707 38.2838 15.1313 39.1506 14.953 40.3119L14.6322 42.3893C14.449 43.5806 15.2234 44.7421 16.4109 44.9563C17.5485 45.1614 18.6285 44.4574 18.9267 43.3754L23.6424 45.2091C23.7945 45.268 23.8928 45.4162 23.8904 45.58C23.8468 48.2896 24.2749 51.0022 25.1714 53.585C25.224 53.739 25.1796 53.9086 25.055 54.0128L20.6411 57.7344L20.5988 57.6503C19.9745 56.3943 18.4171 55.8376 17.1729 56.4859C15.9647 57.1136 15.4791 58.5962 16.0875 59.8189L17.9041 63.4753C18.555 64.7878 19.9144 64.992 20.9236 63.9303C21.1935 63.7962 21.4286 63.6199 21.6255 63.4128C22.3292 62.6724 22.5336 61.5433 22.0524 60.5746L22.0001 60.4702L27.6362 59.0714C27.7934 59.0328 27.9578 59.096 28.051 59.2284C28.9299 60.4874 29.9456 61.6774 31.1021 62.7767C31.2382 62.9061 31.3781 63.0358 31.5164 63.1613C28.3632 53.8175 30.3596 43.0789 37.626 35.4346Z" fill="#F37C7C"/>
<path d="M28.874 46.463C29.9133 47.4508 31.5566 47.4092 32.5445 46.3699C33.5324 45.3307 33.4907 43.6874 32.4514 42.6995C31.4122 41.7116 29.7689 41.7532 28.781 42.7925C27.7931 43.8318 27.8348 45.4751 28.874 46.463Z" fill="#EE6161"/>
<path d="M52.4624 49.5373L51.8266 48.9329C51.4293 48.5552 51.4135 47.9272 51.791 47.53C52.1686 47.1328 52.7967 47.1167 53.194 47.4944L53.8298 48.0988C54.2271 48.4765 54.2429 49.1045 53.8653 49.5017C53.4878 49.899 52.8597 49.915 52.4624 49.5373Z" fill="#F9B1B1"/>
<path d="M32.0409 54.058L31.3876 53.4371C30.9903 53.0594 30.9745 52.4313 31.3521 52.0341C31.7297 51.6369 32.3577 51.6209 32.755 51.9986L33.4083 52.6195C33.8056 52.9972 33.8214 53.6253 33.4438 54.0225C33.0663 54.4197 32.4382 54.4357 32.0409 54.058Z" fill="#F9B1B1"/>
<path d="M35.2886 37.2065L34.6594 36.6083C34.262 36.2307 34.2462 35.6026 34.6238 35.2054C35.0014 34.8082 35.6294 34.7922 36.0267 35.1698L36.656 35.768C37.0533 36.1457 37.0692 36.7737 36.6916 37.171C36.314 37.5682 35.686 37.5842 35.2886 37.2065Z" fill="#EE6161"/>
<path d="M60.0246 36.7659L59.1489 35.9334C58.7515 35.5557 58.7357 34.9277 59.1133 34.5305C59.4909 34.1332 60.1189 34.1172 60.5162 34.4949L61.392 35.3274C61.7893 35.705 61.8051 36.3331 61.4276 36.7303C61.05 37.1275 60.4219 37.1435 60.0246 36.7659Z" fill="#F9B1B1"/>
<path d="M46.0839 62.9499L45.1169 62.0307C44.7196 61.653 44.7037 61.025 45.0813 60.6278C45.4589 60.2305 46.0869 60.2145 46.4843 60.5922L47.4513 61.5114C47.8486 61.8891 47.8645 62.5172 47.4869 62.9144C47.1093 63.3116 46.4811 63.3275 46.0839 62.9499Z" fill="#EE6161"/>
<path d="M46.9735 40.0452C50.7309 40.3932 54.0124 38.1315 54.303 34.9935C54.5936 31.8556 51.7833 29.0297 48.0259 28.6817C44.2686 28.3337 40.9871 30.5955 40.6965 33.7334C40.4058 36.8714 43.2162 39.6973 46.9735 40.0452Z" fill="#EE6161"/>
</g>
<defs>
<clipPath id="clip0">
<rect width="65.6236" height="65.6236" fill="white" transform="translate(45.2124) rotate(43.5482)"/>
</clipPath>
</defs>
</svg>
