<svg width="191" height="197" viewBox="0 0 191 197" fill="none" xmlns="http://www.w3.org/2000/svg">
<g clip-path="url(#clip0)">
<path d="M139.654 144.474C141.048 146.441 140.585 149.163 138.622 150.556L131.317 155.736C129.296 157.171 126.472 156.639 125.119 154.528C123.85 152.552 124.454 149.909 126.369 148.551L126.565 148.413L117.964 140.953C117.707 140.728 117.334 140.687 117.031 140.852C113.914 142.518 110.651 143.83 107.308 144.778C106.969 144.873 106.724 145.171 106.703 145.523L106.232 153.32C107.611 153.319 108.897 153.86 109.853 154.768C110.658 155.534 111.23 156.561 111.417 157.745C111.872 160.609 109.918 163.3 107.052 163.757L104.682 164.133C101.9 164.576 99.1739 162.814 98.5939 160.052C98.0932 157.676 99.2753 155.382 101.282 154.321L98.224 147.02C98.0846 146.69 97.7521 146.49 97.3976 146.517C92.4277 146.875 87.413 146.482 82.5339 145.336C82.1985 145.257 81.8507 145.391 81.6575 145.676L75.2081 155.152L76.8138 155.792C79.1173 156.712 80.2047 159.371 79.1672 161.656C78.1954 163.794 75.649 164.722 73.4698 163.85L65.2646 160.58C62.9632 159.662 61.8758 157.002 62.9133 154.718C63.8851 152.579 66.4314 151.652 68.6125 152.521L68.8331 152.611L70.4246 141.335C70.4735 140.994 70.3044 140.663 70.0025 140.496C66.4319 138.515 63.0476 136.056 59.9487 133.111C57.4963 130.779 55.3428 128.256 53.4792 125.587C53.2816 125.306 52.9329 125.172 52.5996 125.254L40.649 128.22L40.7598 128.441C41.7802 130.495 41.3468 132.889 39.8546 134.459C39.4371 134.898 38.9385 135.272 38.3663 135.557C36.2266 137.808 33.3441 137.375 31.9638 134.592L28.112 126.839C26.8219 124.246 27.8515 121.103 30.4134 119.772C33.0516 118.397 36.3539 119.577 37.6776 122.241L37.7674 122.419L47.1265 114.528C47.3908 114.307 47.4849 113.947 47.3734 113.621C45.4724 108.144 44.5646 102.392 44.6571 96.6469C44.6622 96.2995 44.4538 95.9853 44.1312 95.8605L34.1322 91.9724C33.4998 94.2666 31.2099 95.7594 28.7977 95.3244C26.2798 94.8703 24.6377 92.4075 25.0262 89.8814L25.7063 85.4765C26.0845 83.0142 28.2883 81.1763 30.7707 81.4071C33.4163 81.6536 35.2799 84.0135 34.988 86.5887L45.4984 85.6794C45.8489 85.6487 46.1402 85.3992 46.2269 85.0596C47.711 79.3326 50.2462 73.8151 53.8382 68.8106C54.0394 68.5297 54.0498 68.1563 53.86 67.8714L47.5412 58.3038L46.6304 59.2456C45.7196 60.1875 44.5115 60.6766 43.2936 60.6995C42.0759 60.7264 40.8503 60.2891 39.8987 59.3845C38.0076 57.5869 37.9435 54.588 39.7594 52.7143L45.4042 46.8819C47.249 44.9737 50.3797 44.8646 52.2529 46.742C54.0712 48.5633 54.1023 51.5114 52.3138 53.3725L62.1438 59.1283C62.4419 59.3033 62.8143 59.2741 63.0826 59.0569C68.1587 54.9792 73.8711 52.0522 79.861 50.2831C80.1958 50.1833 80.4344 49.8876 80.4553 49.5358L80.9017 41.3902L80.1507 41.5124C77.8188 41.897 75.6202 40.26 75.3418 37.8857C75.0829 35.6578 76.7048 33.6461 78.9162 33.2825L84.6788 32.3347C86.0168 32.1163 87.3099 32.5597 88.223 33.4276C88.8554 34.0288 89.3044 34.835 89.4589 35.7637C89.8152 37.9178 88.4459 39.9528 86.3635 40.4739L89.5201 47.8872C89.6594 48.2131 89.9898 48.4111 90.3445 48.3882C95.5105 48.0191 100.727 48.4644 105.79 49.7272C106.123 49.808 106.473 49.6801 106.67 49.3993L113.247 40.0089L111.647 39.3469C109.358 38.3988 108.306 35.7227 109.374 33.4552C110.374 31.3283 112.933 30.4359 115.101 31.3355L123.259 34.7166C125.55 35.6667 126.602 38.3389 125.532 40.6084C124.534 42.7332 121.977 43.6275 119.805 42.7281L119.586 42.6364L117.843 53.8847C117.79 54.2254 117.954 54.5586 118.252 54.7297C121.617 56.6547 124.802 59.0088 127.736 61.798L127.74 61.8019C127.996 62.0454 128.375 62.1073 128.69 61.9465L134.388 59.0715C133.122 56.7917 133.611 53.8701 135.685 52.1486C138.037 50.1998 141.626 50.6387 143.561 53.0047L145.445 55.3066C147.364 57.6532 147.144 61.1593 144.828 63.1191C143.023 64.6433 140.538 64.8055 138.598 63.7354L134.651 68.9712C134.438 69.2524 134.43 69.6396 134.63 69.9342C137.489 74.166 139.622 78.7516 141.022 83.5085C141.122 83.8394 141.408 84.0762 141.752 84.1013L153.181 84.9983L152.941 83.2878C152.595 80.8299 154.366 78.5684 156.862 78.3365C159.2 78.1165 161.271 79.8679 161.596 82.1934L162.825 90.9374C163.173 93.3933 161.401 95.6568 158.904 95.8888C156.568 96.1067 154.498 94.3553 154.171 92.0319L154.137 91.7946L143.552 96.0119C143.232 96.1371 143.027 96.4499 143.032 96.7951C143.096 101.598 142.46 106.412 141.122 111.07C141.025 111.408 141.149 111.77 141.434 111.975L146.984 115.946C148.174 113.253 151.358 112.041 154.052 113.32C156.621 114.539 157.697 117.633 156.581 120.249L154.833 124.348C153.726 126.938 150.79 128.316 148.146 127.351C145.613 126.425 144.258 123.798 144.806 121.292L138.12 120.185C137.769 120.127 137.422 120.3 137.256 120.614C135.211 124.438 132.628 128.052 129.497 131.346C128.973 131.897 128.441 132.432 127.898 132.95C127.65 133.191 127.572 133.554 127.705 133.87L132.162 144.443L133.572 143.441C135.539 142.048 138.261 142.511 139.654 144.474Z" fill="#F79595"/>
<path d="M122.011 98.8259C124.791 101.469 128.836 101.727 131.045 99.402C133.255 97.0774 132.793 93.0506 130.012 90.4078C127.232 87.7651 123.187 87.5072 120.978 89.8317C118.768 92.1563 119.23 96.1831 122.011 98.8259Z" fill="#EE6161"/>
<path d="M77.6999 109.062C80.7387 111.951 85.5438 111.829 88.4324 108.79C91.321 105.751 91.1992 100.946 88.1604 98.0577C85.1216 95.1691 80.3165 95.2908 77.4279 98.3297C74.5393 101.368 74.6611 106.174 77.6999 109.062Z" fill="#EE6161"/>
<path d="M103.354 125.017C105.53 127.085 108.97 126.998 111.039 124.822C113.107 122.646 113.02 119.206 110.844 117.138C108.668 115.07 105.228 115.157 103.16 117.333C101.091 119.508 101.179 122.949 103.354 125.017Z" fill="#F9B1B1"/>
<path d="M70.6333 130.303C72.7486 132.314 76.0935 132.229 78.1043 130.113C80.1151 127.998 80.0303 124.653 77.915 122.642C75.7996 120.632 72.4547 120.716 70.4439 122.832C68.4332 124.947 68.5179 128.292 70.6333 130.303Z" fill="#F9B1B1"/>
<path d="M73.7816 75.1349C86.811 61.4279 104.93 55.4611 122.382 57.3763C121.041 56.4194 119.66 55.5354 118.252 54.7297C117.953 54.5587 117.79 54.2255 117.843 53.8848L119.586 42.6364L119.805 42.7281C121.977 43.6276 124.534 42.7333 125.532 40.6084C126.601 38.3389 125.549 35.6667 123.259 34.7167L115.101 31.3356C112.933 30.436 110.374 31.3283 109.374 33.4552C108.306 35.7227 109.358 38.3989 111.646 39.347L113.247 40.0089L106.67 49.3993C106.473 49.6802 106.123 49.8081 105.789 49.7272C100.727 48.4644 95.5103 48.0192 90.3443 48.3882C89.9896 48.4111 89.6592 48.2131 89.5199 47.8872L86.3633 40.4739C88.4457 39.9528 89.815 37.9178 89.4587 35.7638C89.3042 34.835 88.8552 34.0288 88.2228 33.4277C87.3097 32.5598 86.0166 32.1163 84.6786 32.3348L78.916 33.2825C76.7046 33.6462 75.0827 35.6578 75.3416 37.8857C75.62 40.26 77.8186 41.897 80.1505 41.5125L80.9015 41.3903L80.4551 49.5358C80.4342 49.8876 80.1956 50.1834 79.8608 50.2832C73.8709 52.0523 68.1585 54.9793 63.0824 59.0569C62.8141 59.2741 62.4417 59.3034 62.1436 59.1284L52.3136 53.3726C54.1021 51.5115 54.071 48.5634 52.2527 46.7421C50.3795 44.8646 47.2488 44.9737 45.404 46.8819L39.7592 52.7144C37.9433 54.5881 38.0074 57.5869 39.8985 59.3846C40.8501 60.2892 42.0757 60.7264 43.2935 60.6995C44.5113 60.6766 45.7194 60.1876 46.6302 59.2457L47.541 58.3038L53.8598 67.8714C54.0496 68.1564 54.0392 68.5297 53.838 68.8106C50.246 73.8152 47.7108 79.3327 46.2267 85.0597C46.14 85.3992 45.8487 85.6487 45.4982 85.6794L34.9878 86.5888C35.2797 84.0135 33.4161 81.6536 30.7705 81.4071C28.2881 81.1763 26.0843 83.0142 25.7062 85.4766L25.026 89.8814C24.6376 92.4075 26.2796 94.8703 28.7975 95.3244C31.2097 95.7594 33.4996 94.2666 34.132 91.9724L44.131 95.8606C44.4536 95.9854 44.662 96.2996 44.6569 96.647C44.5644 102.392 45.4722 108.144 47.3732 113.621C47.4847 113.947 47.3906 114.307 47.1263 114.528L37.7672 122.419L37.6774 122.241C36.3537 119.577 33.0514 118.397 30.4132 119.772C27.8513 121.103 26.8217 124.246 28.1118 126.839L31.9636 134.592C33.3439 137.375 36.2263 137.808 38.3661 135.557C38.9383 135.272 39.4369 134.899 39.8544 134.459C41.3466 132.889 41.78 130.495 40.7596 128.441L40.6488 128.22L52.5994 125.254C52.9327 125.172 53.2814 125.306 53.479 125.587C55.3426 128.256 57.4961 130.78 59.9485 133.111C60.237 133.385 60.5337 133.66 60.827 133.926C54.141 114.114 58.374 91.3438 73.7816 75.1349Z" fill="#F37C7C"/>
<path d="M55.224 98.5192C57.4276 100.614 60.912 100.526 63.0067 98.3219C65.1014 96.1183 65.0131 92.6339 62.8095 90.5392C60.6058 88.4445 57.1214 88.5328 55.0267 90.7364C52.932 92.94 53.0203 96.4245 55.224 98.5192Z" fill="#EE6161"/>
<path d="M105.24 105.038L103.892 103.756C103.05 102.956 103.016 101.624 103.817 100.782C104.617 99.9394 105.949 99.9055 106.791 100.706L108.14 101.988C108.982 102.789 109.016 104.12 108.215 104.963C107.414 105.805 106.083 105.839 105.24 105.038Z" fill="#F9B1B1"/>
<path d="M61.939 114.624L60.5539 113.307C59.7114 112.506 59.6779 111.174 60.4785 110.332C61.2791 109.49 62.6108 109.456 63.4532 110.257L64.8384 111.573C65.6809 112.374 65.7144 113.706 64.9138 114.548C64.1132 115.39 62.7815 115.424 61.939 114.624Z" fill="#F9B1B1"/>
<path d="M68.8255 78.892L67.4912 77.6236C66.6487 76.8228 66.6152 75.4911 67.4158 74.6489C68.2164 73.8066 69.5481 73.7727 70.3906 74.5735L71.7249 75.8418C72.5673 76.6426 72.6009 77.9744 71.8003 78.8166C70.9997 79.6589 69.668 79.6928 68.8255 78.892Z" fill="#EE6161"/>
<path d="M121.275 77.9575L119.418 76.1924C118.576 75.3916 118.542 74.0599 119.343 73.2176C120.143 72.3754 121.475 72.3414 122.318 73.1423L124.175 74.9074C125.017 75.7082 125.051 77.0399 124.25 77.8822C123.449 78.7244 122.118 78.7583 121.275 77.9575Z" fill="#F9B1B1"/>
<path d="M91.7155 133.478L89.665 131.529C88.8225 130.728 88.7889 129.396 89.5896 128.554C90.3902 127.712 91.7219 127.678 92.5643 128.478L94.6148 130.428C95.4573 131.228 95.4908 132.56 94.6902 133.402C93.8896 134.245 92.5577 134.278 91.7155 133.478Z" fill="#EE6161"/>
<path d="M93.6018 84.9112C101.569 85.6491 108.527 80.8534 109.143 74.1997C109.759 67.546 103.8 61.5541 95.8333 60.8162C87.8663 60.0784 80.9082 64.8741 80.292 71.5277C79.6758 78.1814 85.6348 84.1734 93.6018 84.9112Z" fill="#EE6161"/>
</g>
<defs>
<clipPath id="clip0">
<rect width="139.147" height="139.147" fill="white" transform="translate(89.8675) rotate(43.5482)"/>
</clipPath>
</defs>
</svg>
