<svg width="135" height="135" viewBox="0 0 135 135" fill="none" xmlns="http://www.w3.org/2000/svg">
<g clip-path="url(#clip0)">
<path d="M99.4065 98.6064C100.351 99.9392 100.037 101.784 98.7068 102.728L93.7574 106.238C92.3876 107.21 90.4744 106.85 89.5574 105.419C88.6979 104.08 89.107 102.29 90.4041 101.369L90.5376 101.276L84.7095 96.221C84.5348 96.0681 84.2827 96.0409 84.0771 96.1523C81.965 97.2815 79.7541 98.1699 77.4885 98.8123C77.2589 98.8772 77.0932 99.0791 77.0791 99.3175L76.7598 104.601C77.6943 104.6 78.5655 104.966 79.2131 105.582C79.7588 106.101 80.1462 106.797 80.2727 107.599C80.5814 109.539 79.2574 111.363 77.3156 111.673L75.7098 111.927C73.8241 112.228 71.9772 111.034 71.5842 109.162C71.2449 107.552 72.0459 105.998 73.406 105.279L71.3336 100.332C71.2391 100.108 71.0138 99.9727 70.7736 99.9909C67.406 100.234 64.0081 99.9674 60.7021 99.1906C60.4748 99.1372 60.2391 99.2279 60.1082 99.4208L55.7381 105.842L56.8261 106.276C58.387 106.899 59.1238 108.701 58.4208 110.249C57.7623 111.698 56.0369 112.326 54.5603 111.736L49.0005 109.52C47.441 108.898 46.7042 107.096 47.4072 105.548C48.0657 104.099 49.7911 103.47 51.269 104.059L51.4185 104.12L52.4969 96.4793C52.53 96.2486 52.4154 96.0242 52.2108 95.9111C49.7914 94.5686 47.4982 92.9028 45.3984 90.9068C43.7367 89.3273 42.2775 87.6176 41.0147 85.8087C40.8808 85.6185 40.6446 85.5277 40.4187 85.5831L32.3211 87.5929L32.3961 87.7429C33.0876 89.1346 32.7939 90.757 31.7828 91.8207C31.4999 92.1183 31.1621 92.3716 30.7743 92.5643C29.3244 94.0895 27.3713 93.7962 26.436 91.9105L23.8261 86.6572C22.9519 84.9003 23.6496 82.7702 25.3855 81.8683C27.1731 80.9369 29.4107 81.7367 30.3076 83.5414L30.3685 83.6622L36.7102 78.3152C36.8893 78.1654 36.953 77.9218 36.8775 77.7005C35.5894 73.9896 34.9743 70.0923 35.037 66.1992C35.0404 65.9639 34.8992 65.7509 34.6806 65.6664L27.9053 63.0318C27.4768 64.5863 25.9252 65.5978 24.2907 65.3031C22.5846 64.9954 21.4719 63.3266 21.7351 61.6149L22.196 58.6302C22.4522 56.9618 23.9455 55.7164 25.6276 55.8728C27.4202 56.0398 28.683 57.6389 28.4852 59.3839L35.607 58.7677C35.8445 58.7469 36.0419 58.5779 36.1006 58.3478C37.1062 54.4672 38.8241 50.7285 41.258 47.3375C41.3944 47.1471 41.4014 46.8942 41.2728 46.7011L36.9912 40.2181L36.374 40.8564C35.7569 41.4946 34.9383 41.8259 34.1131 41.8415C33.2879 41.8597 32.4575 41.5634 31.8127 40.9504C30.5313 39.7324 30.4878 37.7004 31.7183 36.4308L35.5432 32.4787C36.7932 31.1858 38.9145 31.1118 40.1838 32.384C41.4159 33.6181 41.4369 35.6157 40.2251 36.8767L46.8858 40.7769C47.0878 40.8954 47.3401 40.8756 47.522 40.7285C50.9615 37.9654 54.8322 35.9821 58.8909 34.7834C59.1178 34.7158 59.2794 34.5154 59.2936 34.277L59.5961 28.7576L59.0872 28.8404C57.5071 29.101 56.0174 27.9918 55.8287 26.383C55.6533 24.8733 56.7523 23.5103 58.2507 23.2639L62.1554 22.6217C63.062 22.4736 63.9383 22.7741 64.5569 23.3622C64.9854 23.7695 65.2897 24.3158 65.3944 24.9452C65.6358 26.4047 64.708 27.7836 63.297 28.1367L65.4359 33.1599C65.5302 33.3807 65.7541 33.5149 65.9944 33.4994C69.4949 33.2493 73.0296 33.551 76.46 34.4067C76.6859 34.4615 76.9231 34.3748 77.0568 34.1845L81.513 27.8216L80.4286 27.3731C78.8781 26.7307 78.1652 24.9173 78.8887 23.3809C79.5662 21.9397 81.3002 21.3351 82.7692 21.9446L88.2973 24.2356C89.8492 24.8794 90.5621 26.69 89.8373 28.2279C89.1611 29.6676 87.4284 30.2736 85.9567 29.6641L85.8086 29.602L84.6275 37.2238C84.5917 37.4547 84.7023 37.6805 84.9042 37.7964C87.1842 39.1007 89.3425 40.6959 91.3307 42.5858L91.3334 42.5885C91.507 42.7535 91.7636 42.7954 91.9773 42.6864L95.8382 40.7383C94.9801 39.1936 95.3119 37.2139 96.717 36.0475C98.3106 34.727 100.743 35.0243 102.054 36.6276L103.33 38.1873C104.631 39.7773 104.481 42.1531 102.912 43.481C101.689 44.5138 100.006 44.6237 98.691 43.8986L96.0163 47.4463C95.8718 47.6369 95.8664 47.8992 96.0019 48.0989C97.9396 50.9663 99.3845 54.0735 100.333 57.2967C100.401 57.5209 100.595 57.6814 100.828 57.6984L108.572 58.3062L108.41 57.1472C108.175 55.4817 109.375 53.9494 111.066 53.7922C112.651 53.6431 114.054 54.8299 114.274 56.4056L115.107 62.3305C115.343 63.9946 114.142 65.5284 112.45 65.6855C110.867 65.8332 109.464 64.6465 109.243 63.0721L109.22 62.9113L102.047 65.769C101.83 65.8538 101.692 66.0657 101.695 66.2996C101.739 69.5539 101.308 72.8162 100.401 75.9722C100.335 76.2011 100.419 76.4464 100.613 76.5854L104.373 79.2762C105.179 77.4513 107.337 76.6301 109.162 77.4969C110.903 78.3228 111.632 80.4194 110.876 82.192L109.692 84.9691C108.941 86.7241 106.952 87.658 105.161 87.0041C103.444 86.3767 102.526 84.5967 102.897 82.8985L98.3668 82.1487C98.1291 82.109 97.8941 82.2265 97.7812 82.4392C96.396 85.0305 94.6454 87.479 92.5237 89.7112C92.1687 90.0845 91.8081 90.4473 91.4405 90.7982C91.2725 90.9611 91.2196 91.2072 91.3098 91.4214L94.3299 98.5858L95.2849 97.9067C96.6177 96.9626 98.4624 97.2763 99.4065 98.6064Z" fill="#F79595"/>
<path d="M87.4512 67.6757C89.3351 69.4664 92.076 69.6412 93.5732 68.0661C95.0705 66.491 94.7571 63.7624 92.8733 61.9717C90.9894 60.181 88.2485 60.0063 86.7513 61.5814C85.254 63.1565 85.5674 65.885 87.4512 67.6757Z" fill="#EE6161"/>
<path d="M57.4265 74.6118C59.4856 76.5691 62.7415 76.4866 64.6988 74.4275C66.6561 72.3684 66.5736 69.1125 64.5145 67.1552C62.4554 65.1979 59.1995 65.2804 57.2422 67.3395C55.2849 69.3986 55.3674 72.6545 57.4265 74.6118Z" fill="#EE6161"/>
<path d="M74.8098 85.4226C76.2841 86.824 78.6153 86.7649 80.0167 85.2906C81.4181 83.8164 81.3591 81.4851 79.8848 80.0837C78.4105 78.6823 76.0793 78.7414 74.6779 80.2157C73.2765 81.69 73.3355 84.0212 74.8098 85.4226Z" fill="#F9B1B1"/>
<path d="M52.6383 89.0043C54.0716 90.3668 56.3381 90.3094 57.7006 88.876C59.0631 87.4427 59.0056 85.1762 57.5723 83.8137C56.1389 82.4512 53.8725 82.5086 52.51 83.942C51.1475 85.3753 51.2049 87.6418 52.6383 89.0043Z" fill="#F9B1B1"/>
<path d="M54.7716 51.6228C63.6002 42.335 75.8777 38.2919 87.7029 39.5896C86.7946 38.9413 85.8587 38.3423 84.9041 37.7963C84.7022 37.6804 84.5916 37.4547 84.6274 37.2238L85.8085 29.602L85.9566 29.6641C87.4283 30.2736 89.161 29.6676 89.8372 28.2278C90.562 26.69 89.8492 24.8794 88.2973 24.2356L82.7692 21.9446C81.3001 21.335 79.5661 21.9397 78.8886 23.3809C78.1651 24.9173 78.878 26.7307 80.4285 27.3731L81.5129 27.8216L77.0567 34.1845C76.923 34.3748 76.6858 34.4615 76.4599 34.4067C73.0295 33.551 69.4949 33.2493 65.9943 33.4994C65.754 33.5149 65.5301 33.3807 65.4358 33.1599L63.2969 28.1367C64.7079 27.7836 65.6357 26.4047 65.3943 24.9451C65.2896 24.3158 64.9853 23.7695 64.5568 23.3622C63.9382 22.7741 63.0619 22.4736 62.1553 22.6216L58.2506 23.2638C56.7522 23.5102 55.6532 24.8733 55.8286 26.383C56.0173 27.9918 57.507 29.101 59.0871 28.8404L59.596 28.7576L59.2935 34.277C59.2794 34.5154 59.1177 34.7158 58.8908 34.7834C54.8321 35.9821 50.9614 37.9654 47.5219 40.7284C47.34 40.8756 47.0877 40.8954 46.8857 40.7768L40.225 36.8767C41.4368 35.6157 41.4158 33.618 40.1837 32.384C38.9144 31.1118 36.7931 31.1857 35.5431 32.4787L31.7182 36.4308C30.4877 37.7004 30.5312 39.7324 31.8126 40.9504C32.4574 41.5634 33.2878 41.8597 34.113 41.8415C34.9382 41.8259 35.7568 41.4946 36.3739 40.8563L36.9911 40.2181L41.2727 46.7011C41.4013 46.8942 41.3943 47.1471 41.2579 47.3375C38.824 50.7285 37.1061 54.4672 36.1005 58.3478C36.0418 58.5778 35.8444 58.7469 35.6069 58.7677L28.4851 59.3839C28.6829 57.6389 27.4201 56.0398 25.6275 55.8728C23.9454 55.7164 22.4522 56.9617 22.1959 58.6302L21.7351 61.6149C21.4719 63.3266 22.5845 64.9954 24.2906 65.3031C25.9251 65.5978 27.4767 64.5863 27.9053 63.0318L34.6805 65.6664C34.8991 65.7509 35.0403 65.9638 35.0369 66.1992C34.9742 70.0922 35.5893 73.9896 36.8774 77.7005C36.9529 77.9217 36.8892 78.1654 36.7101 78.3152L30.3684 83.6622L30.3076 83.5414C29.4106 81.7367 27.1731 80.9369 25.3854 81.8683C23.6495 82.7702 22.9518 84.9003 23.826 86.6572L26.4359 91.9104C27.3712 93.7961 29.3244 94.0895 30.7742 92.5643C31.162 92.3716 31.4998 92.1183 31.7827 91.8207C32.7938 90.757 33.0875 89.1346 32.396 87.7429L32.321 87.5929L40.4186 85.5831C40.6445 85.5277 40.8807 85.6185 41.0146 85.8087C42.2774 87.6175 43.7366 89.3273 45.3983 90.9068C45.5938 91.0927 45.7949 91.279 45.9936 91.4593C41.4632 78.0346 44.3315 62.6058 54.7716 51.6228Z" fill="#F37C7C"/>
<path d="M42.197 67.4679C43.6902 68.8872 46.0512 68.8274 47.4706 67.3342C48.8899 65.8411 48.8301 63.48 47.3369 62.0607C45.8437 60.6413 43.4827 60.7012 42.0634 62.1943C40.644 63.6875 40.7038 66.0485 42.197 67.4679Z" fill="#EE6161"/>
<path d="M76.0877 71.8849L75.1742 71.0166C74.6034 70.474 74.5806 69.5716 75.1231 69.0009C75.6656 68.4302 76.5679 68.4072 77.1388 68.9498L78.0523 69.8182C78.6231 70.3608 78.6459 71.2632 78.1034 71.8339C77.5609 72.4046 76.6586 72.4276 76.0877 71.8849Z" fill="#F9B1B1"/>
<path d="M46.7471 78.3801L45.8085 77.4879C45.2376 76.9453 45.2149 76.0429 45.7574 75.4722C46.2999 74.9015 47.2022 74.8785 47.7731 75.4211L48.7117 76.3133C49.2825 76.856 49.3052 77.7583 48.7627 78.329C48.2203 78.8997 47.3179 78.9227 46.7471 78.3801Z" fill="#F9B1B1"/>
<path d="M51.4134 54.1686L50.5092 53.3092C49.9384 52.7666 49.9156 51.8642 50.4581 51.2935C51.0006 50.7228 51.903 50.6998 52.4738 51.2424L53.378 52.1019C53.9488 52.6445 53.9715 53.5469 53.429 54.1176C52.8865 54.6883 51.9842 54.7113 51.4134 54.1686Z" fill="#EE6161"/>
<path d="M86.9529 53.5354L85.6946 52.3393C85.1238 51.7967 85.1011 50.8944 85.6436 50.3237C86.186 49.753 87.0884 49.73 87.6592 50.2726L88.9175 51.4686C89.4883 52.0113 89.5111 52.9136 88.9686 53.4843C88.4261 54.055 87.5237 54.078 86.9529 53.5354Z" fill="#F9B1B1"/>
<path d="M66.9234 91.1556L65.534 89.8348C64.9632 89.2922 64.9404 88.3899 65.4829 87.8191C66.0254 87.2484 66.9278 87.2254 67.4986 87.7681L68.888 89.0888C69.4588 89.6314 69.4816 90.5338 68.9391 91.1045C68.3966 91.6752 67.4941 91.6981 66.9234 91.1556Z" fill="#EE6161"/>
<path d="M68.2016 58.2472C73.5999 58.7471 78.3147 55.4976 78.7322 50.9891C79.1498 46.4806 75.112 42.4205 69.7136 41.9205C64.3152 41.4206 59.6005 44.6701 59.1829 49.1786C58.7654 53.6871 62.8032 57.7472 68.2016 58.2472Z" fill="#EE6161"/>
</g>
<defs>
<clipPath id="clip0">
<rect width="94.2853" height="94.2853" fill="white" transform="translate(65.6712 0.711914) rotate(43.5482)"/>
</clipPath>
</defs>
</svg>
