<svg width="316" height="316" viewBox="0 0 316 316" fill="none" xmlns="http://www.w3.org/2000/svg">
<g clip-path="url(#clip0)">
<path d="M90.2272 75.9168C88.3366 72.5244 89.5502 68.2439 92.9361 66.3527L105.535 59.3225C109.022 57.3755 113.452 58.7169 115.253 62.3328C116.943 65.7182 115.517 69.8465 112.215 71.6901L111.876 71.8769L124.359 85.3178C124.733 85.7239 125.322 85.8528 125.836 85.642C131.118 83.5132 136.572 81.9791 142.092 81.0406C142.652 80.9458 143.095 80.511 143.189 79.9512L145.297 67.5439C143.087 67.3066 141.122 66.2172 139.748 64.5962C138.591 63.2305 137.854 61.4858 137.76 59.5569C137.527 54.8905 141.123 50.9193 145.793 50.6834L149.654 50.4929C154.189 50.265 158.249 53.561 158.699 58.085C159.089 61.9786 156.797 65.4484 153.398 66.7997L157.031 79.0242C157.197 79.5768 157.695 79.9547 158.268 79.9732C166.29 80.2616 174.255 81.7606 181.871 84.4431C182.395 84.6276 182.975 84.4735 183.334 84.051L195.308 69.9904L192.847 68.6868C189.317 66.8137 188.036 62.3653 190.095 58.8859C192.022 55.6297 196.262 54.5853 199.601 56.3592L212.177 63.0215C215.704 64.8911 216.984 69.3395 214.926 72.819C212.999 76.0751 208.759 77.1196 205.416 75.3486L205.079 75.1667L200.574 92.9528C200.436 93.4898 200.65 94.0495 201.104 94.3693C206.48 98.1622 211.474 102.687 215.927 107.943C219.451 112.102 222.463 116.517 224.985 121.116C225.253 121.6 225.788 121.876 226.336 121.802L245.993 119.124L245.854 118.75C244.576 115.283 245.685 111.523 248.348 109.268C249.093 108.637 249.956 108.124 250.922 107.768C254.74 104.534 259.282 105.727 261.01 110.424L265.835 123.511C267.452 127.887 265.257 132.744 260.923 134.432C256.458 136.176 251.374 133.713 249.715 129.217L249.602 128.916L233.242 139.932C232.781 140.241 232.568 140.8 232.69 141.343C234.785 150.445 235.241 159.815 234.096 169.002C234.028 169.558 234.307 170.097 234.803 170.353L250.144 178.315C251.555 174.75 255.482 172.756 259.27 173.871C263.225 175.035 265.428 179.265 264.368 183.244L262.514 190.182C261.481 194.06 257.632 196.622 253.696 195.821C249.501 194.968 246.925 190.864 247.84 186.79L230.847 186.424C230.28 186.412 229.77 186.761 229.572 187.29C226.202 196.206 221.184 204.604 214.562 211.997C214.191 212.412 214.11 213.009 214.364 213.498L222.826 229.919L224.449 228.568C226.071 227.218 228.091 226.644 230.045 226.818C232.001 226.987 233.888 227.9 235.255 229.514C237.973 232.721 237.555 237.536 234.322 240.222L224.268 248.585C220.982 251.322 215.949 250.953 213.274 247.621C210.677 244.389 211.139 239.661 214.326 236.99L199.579 226.066C199.132 225.734 198.53 225.716 198.063 226.017C189.225 231.668 179.567 235.366 169.666 237.161C169.112 237.262 168.679 237.695 168.584 238.255L166.456 251.225L167.68 251.159C171.482 250.948 174.72 253.951 174.754 257.802C174.783 261.416 171.836 264.357 168.23 264.556L158.836 265.074C156.655 265.192 154.66 264.258 153.348 262.709C152.439 261.637 151.86 260.267 151.774 258.753C151.577 255.241 154.123 252.219 157.549 251.745L153.778 239.323C153.612 238.777 153.117 238.402 152.545 238.378C144.206 238.073 135.927 236.455 128.037 233.554C127.517 233.366 126.934 233.511 126.57 233.926L114.407 247.827L116.855 249.165C120.356 251.08 121.577 255.55 119.474 258.996C117.503 262.23 113.249 263.215 109.933 261.398L97.4512 254.567C93.9473 252.648 92.7257 248.186 94.8327 244.736C96.7997 241.505 101.051 240.516 104.374 242.334L104.708 242.519L109.451 224.804C109.595 224.267 109.391 223.705 108.943 223.379C103.888 219.712 99.194 215.389 94.9778 210.412L94.9719 210.406C94.6038 209.971 94.0081 209.806 93.4749 210.009L83.8495 213.626C85.4824 217.497 84.1915 222.092 80.5712 224.49C76.4661 227.204 70.7933 225.878 68.1038 221.752L65.4852 217.739C62.8186 213.647 63.7803 208.069 67.8296 205.332C70.985 203.203 74.9926 203.375 77.9147 205.425L85.1456 197.723C85.5358 197.31 85.6158 196.691 85.3466 196.184C81.5001 188.91 78.8798 181.195 77.4615 173.332C77.3592 172.785 76.9425 172.356 76.3959 172.256L58.2442 168.837L58.3317 171.619C58.4597 175.616 55.2317 178.931 51.1926 178.87C47.4094 178.816 44.3966 175.652 44.2796 171.871L43.8266 157.651C43.6951 153.657 46.9265 150.339 50.9656 150.4C54.7454 150.456 57.7581 153.621 57.8786 157.399L57.8916 157.785L75.5784 152.866C76.1132 152.721 76.4949 152.255 76.5471 151.702C77.2773 143.998 79.1312 136.396 82.0831 129.168C82.2965 128.643 82.1602 128.042 81.7392 127.664L73.5382 120.341C71.1652 124.448 65.8547 125.837 61.7621 123.321C57.8585 120.923 56.6708 115.78 58.9128 111.783L62.423 105.521C64.6456 101.565 69.5872 99.8666 73.6548 101.871C77.5528 103.793 79.2668 108.236 77.9547 112.156L88.4721 115.088C89.0238 115.242 89.6095 115.025 89.9309 114.551C93.8687 108.78 98.6336 103.44 104.221 98.7063C105.155 97.9145 106.101 97.1492 107.059 96.4139C107.498 96.0717 107.686 95.5036 107.528 94.9742L102.223 77.265L99.7913 78.6257C96.3989 80.5164 92.1184 79.3028 90.2272 75.9168Z" fill="#F79595"/>
<path d="M110.571 152.096C106.577 147.38 100.142 146.266 96.1995 149.606C92.2569 152.946 92.2993 159.476 96.2941 164.192C100.289 168.907 106.724 170.022 110.666 166.682C114.609 163.341 114.566 156.811 110.571 152.096Z" fill="#EE6161"/>
<path d="M183.323 143.385C178.957 138.231 171.239 137.593 166.085 141.959C160.931 146.326 160.292 154.043 164.659 159.197C169.025 164.351 176.743 164.99 181.897 160.623C187.051 156.257 187.69 148.539 183.323 143.385Z" fill="#EE6161"/>
<path d="M144.998 113.379C141.871 109.689 136.345 109.232 132.655 112.358C128.965 115.485 128.508 121.011 131.634 124.701C134.76 128.391 140.286 128.848 143.977 125.722C147.667 122.595 148.124 117.069 144.998 113.379Z" fill="#F9B1B1"/>
<path d="M198.326 110.588C195.287 107 189.914 106.556 186.327 109.595C182.739 112.635 182.294 118.007 185.334 121.595C188.374 125.183 193.746 125.627 197.334 122.587C200.922 119.548 201.366 114.175 198.326 110.588Z" fill="#F9B1B1"/>
<path d="M183.715 198.409C160.467 218.104 130.409 224.519 102.787 218.424C104.769 220.19 106.828 221.845 108.944 223.38C109.392 223.706 109.596 224.268 109.452 224.804L104.709 242.519L104.375 242.335C101.052 240.517 96.8006 241.506 94.8336 244.737C92.7266 248.186 93.9482 252.649 97.452 254.568L109.934 261.399C113.25 263.216 117.504 262.23 119.475 258.997C121.578 255.55 120.357 251.081 116.856 249.165L114.408 247.828L126.571 233.927C126.935 233.511 127.518 233.367 128.038 233.554C135.928 236.455 144.207 238.073 152.546 238.378C153.118 238.403 153.613 238.778 153.779 239.324L157.55 251.746C154.124 252.219 151.577 255.241 151.774 258.753C151.861 260.268 152.44 261.637 153.349 262.71C154.661 264.258 156.655 265.193 158.836 265.075L168.231 264.556C171.836 264.358 174.783 261.417 174.755 257.803C174.721 253.952 171.483 250.948 167.681 251.16L166.457 251.225L168.585 238.255C168.68 237.695 169.113 237.263 169.667 237.161C179.568 235.366 189.226 231.669 198.064 226.018C198.531 225.716 199.133 225.734 199.58 226.066L214.327 236.991C211.14 239.662 210.678 244.389 213.275 247.622C215.949 250.954 220.983 251.322 224.269 248.586L234.322 240.223C237.556 237.536 237.974 232.722 235.256 229.514C233.889 227.9 232.002 226.987 230.046 226.819C228.092 226.645 226.072 227.218 224.449 228.569L222.827 229.92L214.365 213.499C214.111 213.009 214.192 212.413 214.563 211.998C221.185 204.605 226.203 196.207 229.573 187.291C229.771 186.762 230.281 186.413 230.847 186.424L247.841 186.791C246.926 190.865 249.502 194.968 253.697 195.822C257.633 196.622 261.482 194.061 262.515 190.182L264.368 183.245C265.429 179.266 263.226 175.036 259.271 173.872C255.483 172.757 251.556 174.751 250.145 178.316L234.803 170.353C234.308 170.098 234.029 169.558 234.097 169.003C235.242 159.816 234.786 150.445 232.69 141.343C232.569 140.801 232.782 140.241 233.243 139.933L249.603 128.916L249.716 129.218C251.374 133.713 256.459 136.177 260.924 134.433C265.258 132.745 267.453 127.888 265.836 123.511L261.011 110.425C259.283 105.728 254.741 104.534 250.923 107.769C249.957 108.125 249.093 108.637 248.348 109.268C245.686 111.524 244.576 115.284 245.855 118.751L245.994 119.125L226.337 121.803C225.789 121.876 225.254 121.601 224.986 121.117C222.464 116.518 219.452 112.103 215.928 107.943C215.514 107.454 215.086 106.962 214.662 106.485C221.936 139.38 211.206 175.118 183.715 198.409Z" fill="#F37C7C"/>
<path d="M217.496 164.171C214.33 160.434 208.733 159.971 204.995 163.137C201.258 166.303 200.795 171.9 203.962 175.638C207.128 179.375 212.725 179.838 216.462 176.672C220.199 173.505 220.662 167.908 217.496 164.171Z" fill="#EE6161"/>
<path d="M138.511 145.054L140.449 147.341C141.659 148.77 141.482 150.908 140.053 152.119C138.625 153.329 136.486 153.152 135.275 151.723L133.338 149.437C132.128 148.008 132.305 145.869 133.733 144.659C135.162 143.449 137.301 143.625 138.511 145.054Z" fill="#F9B1B1"/>
<path d="M209.533 137.21L211.524 139.56C212.734 140.989 212.557 143.127 211.128 144.338C209.7 145.548 207.561 145.371 206.35 143.942L204.36 141.593C203.149 140.164 203.327 138.025 204.755 136.815C206.184 135.605 208.323 135.781 209.533 137.21Z" fill="#F9B1B1"/>
<path d="M192.305 193.25L194.222 195.513C195.433 196.942 195.256 199.081 193.827 200.291C192.399 201.502 190.26 201.325 189.049 199.896L187.132 197.633C185.921 196.204 186.098 194.065 187.527 192.855C188.955 191.645 191.094 191.821 192.305 193.25Z" fill="#EE6161"/>
<path d="M108.13 185.65L110.798 188.799C112.009 190.228 111.831 192.367 110.403 193.577C108.974 194.787 106.835 194.611 105.625 193.182L102.957 190.032C101.746 188.604 101.923 186.465 103.352 185.254C104.78 184.044 106.919 184.221 108.13 185.65Z" fill="#F9B1B1"/>
<path d="M165.108 101.846L168.054 105.323C169.265 106.752 169.088 108.891 167.659 110.101C166.231 111.312 164.092 111.135 162.881 109.706L159.935 106.228C158.724 104.8 158.901 102.661 160.33 101.45C161.758 100.24 163.898 100.417 165.108 101.846Z" fill="#EE6161"/>
<path d="M153.663 179.311C141.029 176.747 129.052 183.222 126.911 193.773C124.77 204.324 133.275 214.955 145.909 217.519C158.542 220.083 170.519 213.608 172.661 203.057C174.802 192.506 166.296 181.875 153.663 179.311Z" fill="#EE6161"/>
</g>
<defs>
<clipPath id="clip0">
<rect width="224.186" height="224.186" fill="white" transform="translate(144.917 315.968) rotate(-130.272)"/>
</clipPath>
</defs>
</svg>
