<svg width="197" height="197" viewBox="0 0 197 197" fill="none" xmlns="http://www.w3.org/2000/svg">
<g clip-path="url(#clip0)">
<path d="M145.654 144.474C147.048 146.441 146.585 149.163 144.622 150.556L137.317 155.736C135.296 157.171 132.472 156.639 131.119 154.528C129.85 152.552 130.454 149.909 132.368 148.551L132.565 148.413L123.964 140.953C123.706 140.728 123.334 140.687 123.031 140.852C119.914 142.518 116.651 143.83 113.307 144.777C112.969 144.873 112.724 145.171 112.703 145.523L112.232 153.32C113.611 153.319 114.897 153.86 115.853 154.768C116.658 155.534 117.23 156.561 117.416 157.745C117.872 160.609 115.918 163.3 113.052 163.757L110.682 164.133C107.9 164.576 105.174 162.814 104.594 160.052C104.093 157.676 105.275 155.382 107.282 154.321L104.224 147.02C104.085 146.69 103.752 146.49 103.398 146.517C98.4276 146.875 93.4129 146.482 88.5339 145.336C88.1985 145.257 87.8506 145.391 87.6574 145.676L81.208 155.152L82.8138 155.792C85.1172 156.712 86.2046 159.371 85.1671 161.656C84.1953 163.794 81.649 164.722 79.4698 163.85L71.2646 160.58C68.9631 159.661 67.8757 157.002 68.9133 154.718C69.885 152.579 72.4314 151.652 74.6125 152.521L74.833 152.611L76.4246 141.335C76.4735 140.994 76.3043 140.663 76.0024 140.496C72.4318 138.515 69.0476 136.056 65.9486 133.111C63.4963 130.779 61.3427 128.256 59.4791 125.587C59.2815 125.306 58.9328 125.172 58.5995 125.254L46.6489 128.22L46.7597 128.441C47.7802 130.495 47.3467 132.889 45.8545 134.459C45.437 134.898 44.9385 135.272 44.3662 135.557C42.2265 137.808 39.344 137.375 37.9637 134.592L34.1119 126.839C32.8218 124.246 33.8514 121.103 36.4134 119.771C39.0516 118.397 42.3538 119.577 43.6775 122.241L43.7673 122.419L53.1264 114.528C53.3907 114.307 53.4848 113.947 53.3733 113.621C51.4723 108.144 50.5646 102.392 50.6571 96.6469C50.6622 96.2995 50.4538 95.9853 50.1311 95.8605L40.1322 91.9724C39.4997 94.2665 37.2098 95.7593 34.7976 95.3244C32.2797 94.8702 30.6377 92.4075 31.0261 89.8813L31.7063 85.4765C32.0844 83.0141 34.2882 81.1762 36.7706 81.407C39.4162 81.6535 41.2799 84.0134 40.9879 86.5887L51.4984 85.6794C51.8488 85.6487 52.1402 85.3992 52.2268 85.0596C53.7109 79.3326 56.2461 73.8151 59.8381 68.8106C60.0394 68.5296 60.0498 68.1563 59.86 67.8714L53.5411 58.3037L52.6303 59.2456C51.7195 60.1875 50.5115 60.6765 49.2936 60.6995C48.0758 60.7264 46.8503 60.2891 45.8986 59.3845C44.0075 57.5869 43.9434 54.588 45.7593 52.7143L51.4041 46.8818C53.2489 44.9737 56.3796 44.8646 58.2529 46.742C60.0711 48.5633 60.1022 51.5114 58.3138 53.3725L68.1437 59.1283C68.4419 59.3033 68.8142 59.274 69.0825 59.0569C74.1586 54.9792 79.8711 52.0522 85.861 50.2831C86.1958 50.1833 86.4344 49.8875 86.4552 49.5358L86.9017 41.3902L86.1507 41.5124C83.8188 41.897 81.6202 40.26 81.3417 37.8857C81.0828 35.6577 82.7047 33.6461 84.9161 33.2825L90.6788 32.3347C92.0167 32.1162 93.3099 32.5597 94.2229 33.4276C94.8553 34.0287 95.3044 34.8349 95.4589 35.7637C95.8151 37.9177 94.4458 39.9528 92.3634 40.4739L95.5201 47.8871C95.6593 48.213 95.9898 48.411 96.3444 48.3882C101.51 48.0191 106.727 48.4644 111.79 49.7272C112.123 49.808 112.473 49.6801 112.67 49.3992L119.247 40.0089L117.647 39.3469C115.358 38.3988 114.306 35.7226 115.374 33.4551C116.374 31.3283 118.933 30.4359 121.101 31.3355L129.259 34.7166C131.55 35.6667 132.602 38.3388 131.532 40.6084C130.534 42.7332 127.977 43.6275 125.805 42.728L125.586 42.6363L123.843 53.8847C123.79 54.2254 123.954 54.5586 124.252 54.7297C127.616 56.6546 130.802 59.0088 133.736 61.798L133.74 61.8019C133.996 62.0454 134.375 62.1073 134.69 61.9465L140.388 59.0715C139.122 56.7917 139.611 53.8701 141.685 52.1486C144.037 50.1998 147.626 50.6387 149.561 53.0047L151.445 55.3066C153.364 57.6532 153.143 61.1593 150.828 63.1191C149.023 64.6433 146.538 64.8054 144.598 63.7354L140.651 68.9712C140.438 69.2524 140.43 69.6396 140.63 69.9342C143.489 74.166 145.622 78.7516 147.022 83.5085C147.122 83.8394 147.408 84.0762 147.752 84.1012L159.181 84.9983L158.941 83.2878C158.595 80.8299 160.366 78.5684 162.862 78.3365C165.2 78.1165 167.271 79.8679 167.595 82.1933L168.825 90.9374C169.173 93.3933 167.401 95.6568 164.904 95.8887C162.568 96.1067 160.498 94.3553 160.171 92.0319L160.137 91.7946L149.552 96.0119C149.232 96.1371 149.027 96.4499 149.032 96.795C149.096 101.598 148.46 106.412 147.121 111.07C147.025 111.408 147.149 111.77 147.434 111.975L152.984 115.946C154.174 113.253 157.358 112.041 160.052 113.32C162.621 114.539 163.697 117.633 162.581 120.249L160.833 124.348C159.726 126.938 156.79 128.316 154.146 127.351C151.612 126.425 150.258 123.798 150.806 121.292L144.12 120.185C143.769 120.127 143.422 120.3 143.256 120.614C141.211 124.438 138.628 128.052 135.496 131.346C134.973 131.897 134.441 132.432 133.898 132.95C133.65 133.191 133.572 133.554 133.705 133.87L138.162 144.443L139.571 143.441C141.538 142.048 144.261 142.511 145.654 144.474Z" fill="#F79595"/>
<path d="M128.01 98.8258C130.791 101.469 134.836 101.727 137.045 99.402C139.255 97.0774 138.793 93.0506 136.012 90.4078C133.232 87.7651 129.187 87.5072 126.977 89.8317C124.768 92.1563 125.23 96.1831 128.01 98.8258Z" fill="#EE6161"/>
<path d="M83.6998 109.062C86.7386 111.951 91.5438 111.829 94.4324 108.79C97.321 105.751 97.1992 100.946 94.1604 98.0576C91.1215 95.169 86.3164 95.2908 83.4278 98.3296C80.5392 101.368 80.661 106.174 83.6998 109.062Z" fill="#EE6161"/>
<path d="M109.354 125.017C111.53 127.085 114.97 126.998 117.039 124.822C119.107 122.646 119.02 119.206 116.844 117.138C114.668 115.07 111.228 115.157 109.159 117.332C107.091 119.508 107.178 122.949 109.354 125.017Z" fill="#F9B1B1"/>
<path d="M76.6332 130.303C78.7485 132.314 82.0934 132.229 84.1042 130.113C86.115 127.998 86.0302 124.653 83.9149 122.642C81.7995 120.632 78.4547 120.716 76.4439 122.832C74.4331 124.947 74.5179 128.292 76.6332 130.303Z" fill="#F9B1B1"/>
<path d="M79.7816 75.1348C92.811 61.4279 110.93 55.461 128.382 57.3763C127.041 56.4194 125.66 55.5354 124.252 54.7297C123.953 54.5586 123.79 54.2254 123.843 53.8847L125.586 42.6364L125.805 42.7281C127.977 43.6276 130.534 42.7332 131.532 40.6084C132.601 38.3389 131.549 35.6667 129.259 34.7166L121.101 31.3355C118.933 30.4359 116.374 31.3283 115.374 33.4552C114.306 35.7227 115.358 38.3988 117.646 39.347L119.247 40.0089L112.67 49.3993C112.473 49.6801 112.123 49.8081 111.789 49.7272C106.727 48.4644 101.51 48.0191 96.3443 48.3882C95.9896 48.4111 95.6592 48.2131 95.5199 47.8872L92.3633 40.4739C94.4457 39.9528 95.815 37.9178 95.4587 35.7638C95.3042 34.835 94.8552 34.0288 94.2228 33.4276C93.3097 32.5598 92.0166 32.1163 90.6786 32.3347L84.916 33.2825C82.7046 33.6461 81.0827 35.6578 81.3416 37.8857C81.62 40.26 83.8186 41.897 86.1505 41.5125L86.9015 41.3902L86.4551 49.5358C86.4342 49.8876 86.1956 50.1834 85.8608 50.2831C79.8709 52.0523 74.1585 54.9792 69.0824 59.0569C68.8141 59.2741 68.4417 59.3034 68.1436 59.1283L58.3136 53.3725C60.1021 51.5114 60.071 48.5633 58.2527 46.742C56.3795 44.8646 53.2488 44.9737 51.404 46.8819L45.7592 52.7144C43.9433 54.588 44.0074 57.5869 45.8985 59.3845C46.8501 60.2891 48.0757 60.7264 49.2935 60.6995C50.5113 60.6766 51.7194 60.1875 52.6302 59.2457L53.541 58.3038L59.8598 67.8714C60.0496 68.1563 60.0392 68.5297 59.838 68.8106C56.246 73.8151 53.7108 79.3326 52.2267 85.0597C52.14 85.3992 51.8487 85.6487 51.4982 85.6794L40.9878 86.5887C41.2797 84.0135 39.4161 81.6536 36.7705 81.4071C34.2881 81.1763 32.0843 83.0142 31.7062 85.4765L31.026 89.8814C30.6376 92.4075 32.2796 94.8703 34.7975 95.3244C37.2097 95.7594 39.4996 94.2666 40.132 91.9724L50.131 95.8605C50.4536 95.9853 50.662 96.2995 50.6569 96.6469C50.5644 102.392 51.4722 108.144 53.3732 113.621C53.4847 113.947 53.3906 114.307 53.1263 114.528L43.7672 122.419L43.6774 122.241C42.3537 119.577 39.0514 118.397 36.4132 119.772C33.8513 121.103 32.8217 124.246 34.1118 126.839L37.9636 134.592C39.3439 137.375 42.2263 137.808 44.3661 135.557C44.9383 135.272 45.4369 134.898 45.8544 134.459C47.3466 132.889 47.78 130.495 46.7596 128.441L46.6488 128.22L58.5994 125.254C58.9327 125.172 59.2814 125.306 59.479 125.587C61.3426 128.256 63.4961 130.779 65.9485 133.111C66.237 133.385 66.5337 133.66 66.827 133.926C60.141 114.114 64.374 91.3437 79.7816 75.1348Z" fill="#F37C7C"/>
<path d="M61.224 98.5191C63.4276 100.614 66.912 100.526 69.0067 98.3219C71.1014 96.1183 71.0131 92.6338 68.8095 90.5391C66.6058 88.4444 63.1214 88.5327 61.0267 90.7364C58.932 92.94 59.0203 96.4244 61.224 98.5191Z" fill="#EE6161"/>
<path d="M111.24 105.038L109.892 103.756C109.049 102.956 109.016 101.624 109.817 100.782C110.617 99.9394 111.949 99.9054 112.791 100.706L114.139 101.988C114.982 102.789 115.015 104.12 114.215 104.963C113.414 105.805 112.083 105.839 111.24 105.038Z" fill="#F9B1B1"/>
<path d="M67.939 114.624L66.5538 113.307C65.7114 112.506 65.6778 111.174 66.4784 110.332C67.279 109.49 68.6107 109.456 69.4532 110.257L70.8384 111.573C71.6808 112.374 71.7144 113.706 70.9138 114.548C70.1131 115.39 68.7814 115.424 67.939 114.624Z" fill="#F9B1B1"/>
<path d="M74.8255 78.892L73.4912 77.6236C72.6487 76.8228 72.6152 75.4911 73.4158 74.6488C74.2164 73.8066 75.5481 73.7726 76.3906 74.5734L77.7249 75.8418C78.5673 76.6426 78.6009 77.9743 77.8003 78.8166C76.9997 79.6588 75.668 79.6928 74.8255 78.892Z" fill="#EE6161"/>
<path d="M127.275 77.9575L125.418 76.1924C124.576 75.3916 124.542 74.0599 125.343 73.2176C126.143 72.3754 127.475 72.3414 128.318 73.1422L130.174 74.9074C131.017 75.7082 131.05 77.0399 130.25 77.8821C129.449 78.7244 128.118 78.7583 127.275 77.9575Z" fill="#F9B1B1"/>
<path d="M97.7154 133.478L95.6649 131.529C94.8224 130.728 94.7889 129.396 95.5895 128.554C96.3901 127.712 97.7218 127.678 98.5643 128.478L100.615 130.428C101.457 131.228 101.491 132.56 100.69 133.402C99.8896 134.245 98.5577 134.278 97.7154 133.478Z" fill="#EE6161"/>
<path d="M99.6017 84.9112C107.569 85.6491 114.527 80.8533 115.143 74.1997C115.759 67.546 109.8 61.554 101.833 60.8162C93.8662 60.0783 86.9082 64.874 86.292 71.5277C85.6757 78.1814 91.6347 84.1734 99.6017 84.9112Z" fill="#EE6161"/>
</g>
<defs>
<clipPath id="clip0">
<rect width="139.147" height="139.147" fill="white" transform="translate(95.8674) rotate(43.5482)"/>
</clipPath>
</defs>
</svg>
